<?xml version="1.0" encoding="utf-8"?>
<!-- Generator: Adobe Illustrator 16.0.0, SVG Export Plug-In . SVG Version: 6.00 Build 0)  -->
<!DOCTYPE svg PUBLIC "-//W3C//DTD SVG 1.1//EN" "http://www.w3.org/Graphics/SVG/1.1/DTD/svg11.dtd">
<svg version="1.1" id="Calque_1" xmlns="http://www.w3.org/2000/svg" xmlns:xlink="http://www.w3.org/1999/xlink" x="0px" y="0px"
	 width="603.667px" height="439.5px" viewBox="-182.167 71 603.667 439.5" enable-background="new -182.167 71 603.667 439.5"
	 xml:space="preserve">
<path fill="#FFFFFF" d="M297.032,191.833c0-3.853-3.851-6.972-8.603-6.972H63.691c-4.753,0-8.604,3.122-8.604,6.972v23.177
	c0,3.852,3.851,6.971,8.604,6.971h224.728c4.76,0.006,8.611-3.119,8.611-6.966L297.032,191.833z"/>
<path fill="#FFFFFF" d="M297.032,281.166c0-3.853-3.851-6.972-8.603-6.972H63.691c-4.753,0-8.604,3.122-8.604,6.972v23.177
	c0,3.852,3.851,6.971,8.604,6.971h224.728c4.76,0.006,8.611-3.119,8.611-6.966L297.032,281.166z"/>
<path fill="#FFFFFF" d="M297.032,370.5c0-3.854-3.851-6.973-8.603-6.973H63.691c-4.753,0-8.604,3.122-8.604,6.973v23.177
	c0,3.853,3.851,6.972,8.604,6.972h224.728c4.76,0.006,8.611-3.119,8.611-6.967L297.032,370.5z"/>
<path fill="#FFFFFF" d="M418.885,158.002c0-47.541-39.85-79.689-87.387-79.689H24.352c-49.271,0-84.805,33.713-84.805,79.689
	v109.062l-105.108,108.29c-4.816,5.073-9.629,11.597-9.629,18.343c0,3.564,0.713,6.947,2.177,10.359
	c4.227,9.836,13.915,15.779,24.625,15.779h87.936v1.332c0,47.596,37.205,85.643,84.805,85.643h307.146
	c45.982,0,87.387-36.381,87.387-85.643V157.996V158.002z M331.496,129.986c18.09,0,29.252,9.914,29.252,28.012v263.173
	c0,17.185-10.859,33.965-29.252,33.965H24.35c-18.041,0-33.131-15.928-33.131-33.965v-27.264c0-14.803-14.608-25.747-29.419-25.747
	h-47.816l68.565-71.431c4.736-4.974,8.67-12.12,8.67-18.979V157.996c0-18.398,15.945-28.014,33.131-28.014L331.496,129.986z"/>
</svg>
