<?xml version="1.0" encoding="utf-8"?>
<!-- Generator: Adobe Illustrator 16.0.0, SVG Export Plug-In . SVG Version: 6.00 Build 0)  -->
<!DOCTYPE svg PUBLIC "-//W3C//DTD SVG 1.1//EN" "http://www.w3.org/Graphics/SVG/1.1/DTD/svg11.dtd">
<svg version="1.1" id="Calque_1" xmlns="http://www.w3.org/2000/svg" xmlns:xlink="http://www.w3.org/1999/xlink" x="0px" y="0px"
	 width="50px" height="50px" viewBox="0 0 50 50" enable-background="new 0 0 50 50" xml:space="preserve">
<g>
	<g>
		<path fill="#4B2258" d="M7.633,14.163c-0.049-0.742-0.198-1.484-0.148-2.227c0-0.399,0.05-0.741,0.1-1.141V7.313
			c0-0.286,0-0.571,0.199-0.799l0.398-0.171l0.449-0.172l0.995-0.114c0.3,0,0.648-0.058,0.948,0c0.148,0,0.298,0.058,0.497,0.058
			c0.149,0,0.299-0.058,0.448-0.058l0.996-0.114h4.135c1.395,0,2.739,0,4.135-0.057h2.043c0.149,0.057,0.299,0,0.448-0.058h0.497
			c0.349-0.057,0.698,0,1.047,0c0.647,0.058,1.295-0.113,1.993-0.057c0.647,0,1.346,0.057,2.041,0.057l4.135,0.114
			c1.347,0,2.742,0.057,4.137,0c0.646,0,1.344,0,2.042,0.057c0.647,0.058,1.295,0.172,1.942,0.286c0.1,0,0.149,0,0.25,0.114
			l0.099,0.114c0.051,0.171,0.149,0.286,0.149,0.457c0.101,0.285,0.101,0.571,0.101,0.913v6.167c0,0.113,0.05,0.399-0.051,0.57
			c-0.099,0.229-0.497,0.229-0.747,0.285h-3.039c-1.395,0-2.789-0.057-4.135-0.057h-8.27c-0.299,0-0.647-0.058-0.996-0.058
			c-0.15,0-0.3-0.058-0.399-0.058c-0.199,0-0.348,0.058-0.548,0.058c-0.647,0.058-1.345-0.058-1.992-0.058
			c-0.349,0-0.647,0.058-0.996,0.058H19.49c-0.648-0.058-1.345-0.058-2.042-0.058c-2.74-0.057-5.48,0-8.271-0.113
			C8.631,14.62,8.083,14.62,7.633,14.163z"/>
	</g>
</g>
<g>
	<g>
		<path fill="#4B2258" d="M7.633,29.502c-0.049-0.742-0.198-1.484-0.148-2.227c0-0.4,0.05-0.742,0.1-1.142v-3.483
			c0-0.286,0-0.57,0.199-0.799l0.398-0.171l0.449-0.172l0.995-0.114c0.3,0,0.648-0.058,0.948,0c0.148,0,0.298,0.058,0.497,0.058
			c0.149,0,0.299-0.058,0.448-0.058l0.996-0.114h4.135c1.395,0,2.739,0,4.135-0.057h2.043c0.149,0.057,0.299,0,0.448-0.058h0.497
			c0.349-0.057,0.698,0,1.047,0c0.647,0.058,1.295-0.113,1.993-0.057c0.647,0,1.346,0.057,2.041,0.057l4.135,0.114
			c1.347,0,2.742,0.057,4.137,0c0.646,0,1.344,0,2.042,0.057c0.647,0.058,1.295,0.172,1.942,0.286c0.1,0,0.149,0,0.25,0.114
			l0.099,0.115c0.051,0.171,0.149,0.285,0.149,0.456c0.101,0.285,0.101,0.571,0.101,0.914v6.167c0,0.113,0.05,0.398-0.051,0.57
			c-0.099,0.229-0.497,0.229-0.747,0.285h-3.039c-1.395,0-2.789-0.057-4.135-0.057h-8.27c-0.299,0-0.647-0.06-0.996-0.06
			c-0.15,0-0.3-0.058-0.399-0.058c-0.199,0-0.348,0.058-0.548,0.058c-0.647,0.06-1.345-0.058-1.992-0.058
			c-0.349,0-0.647,0.058-0.996,0.058H19.49c-0.648-0.058-1.345-0.058-2.042-0.058c-2.74-0.057-5.48,0-8.271-0.112
			C8.631,29.959,8.083,29.959,7.633,29.502z"/>
	</g>
</g>
<g>
	<g>
		<path fill="#4B2258" d="M7.633,44.496c-0.049-0.742-0.198-1.484-0.148-2.227c0-0.4,0.05-0.742,0.1-1.144v-3.481
			c0-0.285,0-0.57,0.199-0.8l0.398-0.17l0.449-0.172l0.995-0.114c0.3,0,0.648-0.058,0.948,0c0.148,0,0.298,0.059,0.497,0.059
			c0.149,0,0.299-0.059,0.448-0.059l0.996-0.115h4.135c1.395,0,2.739,0,4.135-0.058h2.043c0.149,0.058,0.299,0,0.448-0.057h0.497
			c0.349-0.058,0.698,0,1.047,0c0.647,0.057,1.295-0.113,1.993-0.058c0.647,0,1.346,0.058,2.041,0.058l4.135,0.112
			c1.347,0,2.742,0.06,4.137,0c0.646,0,1.344,0,2.042,0.06c0.647,0.058,1.295,0.172,1.942,0.285c0.1,0,0.149,0,0.25,0.114
			l0.099,0.113c0.051,0.172,0.149,0.285,0.149,0.457c0.101,0.285,0.101,0.57,0.101,0.912v6.166c0,0.115,0.05,0.4-0.051,0.572
			c-0.099,0.229-0.497,0.229-0.747,0.285h-3.039c-1.395,0-2.789-0.057-4.135-0.057h-8.27c-0.299,0-0.647-0.06-0.996-0.06
			c-0.15,0-0.3-0.058-0.399-0.058c-0.199,0-0.348,0.058-0.548,0.058c-0.647,0.06-1.345-0.058-1.992-0.058
			c-0.349,0-0.647,0.058-0.996,0.058H19.49c-0.648-0.058-1.345-0.058-2.042-0.058c-2.74-0.057-5.48,0-8.271-0.112
			C8.631,44.953,8.083,44.953,7.633,44.496z"/>
	</g>
</g>
</svg>
