<?xml version="1.0" encoding="utf-8"?>
<!-- Generator: Adobe Illustrator 16.0.0, SVG Export Plug-In . SVG Version: 6.00 Build 0)  -->
<!DOCTYPE svg PUBLIC "-//W3C//DTD SVG 1.1//EN" "http://www.w3.org/Graphics/SVG/1.1/DTD/svg11.dtd">
<svg version="1.1" id="Calque_1" xmlns="http://www.w3.org/2000/svg" xmlns:xlink="http://www.w3.org/1999/xlink" x="0px" y="0px"
	 width="50px" height="50px" viewBox="0 0 50 50" enable-background="new 0 0 50 50" xml:space="preserve">
<g>
	<g>
		<path fill="#4B2258" d="M4.134,11.133C4.856,10.31,5.474,9.38,6.3,8.657c0.415-0.414,0.825-0.719,1.293-1.082l3.629-3.63
			c0.298-0.299,0.595-0.596,1.04-0.625l0.594,0.236l0.647,0.288l1.155,0.918c0.313,0.313,0.735,0.616,0.988,0.99
			c0.154,0.153,0.25,0.369,0.457,0.576c0.156,0.159,0.373,0.253,0.528,0.409l1.158,0.918l4.309,4.309
			c1.454,1.454,2.854,2.855,4.368,4.249l2.129,2.13c0.096,0.213,0.311,0.311,0.526,0.406l0.519,0.518
			c0.424,0.305,0.728,0.729,1.091,1.091c0.614,0.734,1.468,1.232,2.137,2.018c0.675,0.673,1.343,1.462,2.067,2.185l4.189,4.429
			c1.404,1.405,2.798,2.916,4.312,4.312c0.674,0.671,1.401,1.402,2.069,2.188c0.613,0.733,1.172,1.528,1.725,2.319
			c0.104,0.104,0.155,0.155,0.143,0.38l-0.017,0.222c-0.123,0.233-0.143,0.452-0.32,0.631c-0.191,0.402-0.489,0.702-0.845,1.059
			l-6.428,6.425c-0.118,0.118-0.364,0.47-0.646,0.541c-0.344,0.136-0.757-0.279-1.075-0.48l-3.166-3.166
			c-1.455-1.457-2.848-2.968-4.251-4.369l-8.618-8.618c-0.312-0.311-0.614-0.734-0.977-1.1c-0.157-0.155-0.253-0.371-0.355-0.475
			c-0.208-0.208-0.423-0.303-0.632-0.513c-0.735-0.613-1.341-1.459-2.015-2.136c-0.364-0.364-0.735-0.614-1.098-0.978l-1.09-1.089
			c-0.615-0.737-1.341-1.462-2.067-2.188c-2.796-2.916-5.712-5.71-8.503-8.739C4.698,12.65,4.127,12.08,4.134,11.133z"/>
	</g>
</g>
<g>
	<g>
		<path fill="#4B2258" d="M10.763,46.395c-0.823-0.723-1.753-1.341-2.474-2.166c-0.417-0.417-0.721-0.826-1.089-1.297l-3.627-3.627
			c-0.296-0.298-0.593-0.596-0.625-1.042l0.236-0.593l0.29-0.646l0.918-1.156c0.313-0.313,0.615-0.735,0.989-0.987
			c0.153-0.155,0.372-0.25,0.579-0.457c0.155-0.156,0.25-0.373,0.406-0.527l0.918-1.158l4.309-4.31
			c1.453-1.453,2.855-2.854,4.248-4.371l2.129-2.128c0.216-0.094,0.311-0.311,0.407-0.525l0.518-0.518
			c0.302-0.426,0.728-0.728,1.091-1.091c0.734-0.616,1.232-1.468,2.015-2.139c0.675-0.673,1.465-1.341,2.188-2.064l4.426-4.194
			c1.405-1.404,2.919-2.795,4.313-4.312c0.67-0.674,1.401-1.402,2.19-2.064c0.733-0.615,1.528-1.171,2.319-1.727
			c0.104-0.104,0.156-0.155,0.38-0.143l0.222,0.015c0.23,0.125,0.452,0.143,0.631,0.321c0.403,0.191,0.699,0.489,1.057,0.845
			l6.424,6.426c0.121,0.121,0.47,0.365,0.544,0.647c0.133,0.343-0.278,0.757-0.48,1.077l-3.169,3.166
			c-1.453,1.455-2.965,2.847-4.369,4.251l-8.618,8.618c-0.311,0.312-0.734,0.612-1.1,0.976c-0.155,0.156-0.374,0.251-0.475,0.354
			c-0.207,0.207-0.303,0.423-0.513,0.633c-0.61,0.736-1.462,1.339-2.136,2.014c-0.363,0.364-0.612,0.735-0.975,1.099l-1.091,1.091
			c-0.737,0.614-1.462,1.341-2.189,2.066c-2.915,2.797-5.712,5.711-8.736,8.504C12.279,45.83,11.709,46.4,10.763,46.395z"/>
	</g>
</g>
</svg>
