<?xml version="1.0" encoding="utf-8"?>
<!-- Generator: Adobe Illustrator 16.0.0, SVG Export Plug-In . SVG Version: 6.00 Build 0)  -->
<!DOCTYPE svg PUBLIC "-//W3C//DTD SVG 1.1//EN" "http://www.w3.org/Graphics/SVG/1.1/DTD/svg11.dtd">
<svg version="1.1" id="Calque_1" xmlns="http://www.w3.org/2000/svg" xmlns:xlink="http://www.w3.org/1999/xlink" x="0px" y="0px"
	 width="712.5px" height="427px" viewBox="-12.5 83.5 712.5 427" enable-background="new -12.5 83.5 712.5 427"
	 xml:space="preserve">
<path fill="#FFFFFF" d="M696.413,493.84c0.254-0.676,0.477-1.367,0.66-2.066c0-0.578,0-1.16,0.496-1.82
	c0.133-1.348,0.133-2.707,0-4.055v-376.31c0-5.414-2.121-10.613-5.91-14.484c-3.793-3.867-8.945-6.094-14.362-6.203H18.676
	c-7.391,0-14.223,3.945-17.918,10.344c-3.691,6.402-3.691,14.285,0,20.688c3.695,6.398,10.527,10.34,17.918,10.34h167.47v52.707
	H65.756c-7.391,0-14.219,3.945-17.914,10.344c-3.695,6.402-3.695,14.285,0,20.688c3.695,6.398,10.523,10.34,17.914,10.34h120.39
	v52.707h-73.395c-7.387,0-14.219,3.945-17.914,10.344c-3.695,6.402-3.695,14.285,0,20.688c3.695,6.398,10.527,10.34,17.914,10.34
	h73.391l0.004,167.64c-0.133,1.348-0.133,2.707,0,4.055c0,0.66,0,1.16,0.496,1.82c0.184,0.699,0.406,1.391,0.66,2.07
	c0.324,0.707,0.684,1.398,1.078,2.066c0,0.496,0.496,1.074,0.828,1.488v0.004c1.512,2.258,3.449,4.195,5.707,5.707l1.57,0.828
	l1.984,1.074l2.07,0.66l1.82,0.496l0.004,0.004c1.348,0.133,2.703,0.133,4.055,0H677.3c1.352,0.133,2.707,0.133,4.055,0l1.82-0.496
	l2.07-0.66l1.984-1.074l1.57-0.828l0.004-0.004c2.258-1.512,4.195-3.449,5.707-5.707c0-0.496,0.578-0.992,0.828-1.488v-0.004
	c0.402-0.723,0.762-1.469,1.078-2.234L696.413,493.84z M227.513,159.56l138.26,138.18l-138.26,138.68V159.56z M656.613,436.42
	l-138.26-138.68l138.26-138.18V436.42z M442.063,315.53l-185.26-185.26h370.61L442.063,315.53z M395.149,327.03l32.434,32.434v0.004
	c3.883,3.891,9.152,6.074,14.646,6.074c5.496,0,10.766-2.184,14.647-6.074l32.435-32.434l138.1,138.26H256.8L395.149,327.03z"/>
</svg>
