<?xml version="1.0" encoding="utf-8"?>
<!-- Generator: Adobe Illustrator 16.0.0, SVG Export Plug-In . SVG Version: 6.00 Build 0)  -->
<!DOCTYPE svg PUBLIC "-//W3C//DTD SVG 1.1//EN" "http://www.w3.org/Graphics/SVG/1.1/DTD/svg11.dtd">
<svg version="1.1" id="Calque_1" xmlns="http://www.w3.org/2000/svg" xmlns:xlink="http://www.w3.org/1999/xlink" x="0px" y="0px"
	 width="700px" height="700px" viewBox="0 0 700 700" enable-background="new 0 0 700 700" xml:space="preserve">
<path fill="#FFFFFF" d="M25.202,336.42l133.313,96.855c15.235,11.063,21.616,30.671,15.807,48.577l-50.951,156.748
	c-12.999,40.042,32.829,73.346,66.911,48.606l133.313-96.869c15.234-11.077,35.841-11.077,51.076,0l133.313,96.869
	c34.068,24.739,79.91-8.563,66.911-48.606l-50.931-156.748c-5.839-17.907,0.543-37.515,15.792-48.577l133.3-96.855
	c34.054-24.759,16.575-78.642-25.538-78.642l-164.783,0.005c-18.819,0-35.544-12.13-41.343-30.036l-50.912-156.7
	c-13.014-40.075-69.66-40.075-82.688,0l-50.946,156.712c-5.801,17.907-22.463,30.036-41.315,30.036l-164.795-0.005
	c-42.108,0-59.592,53.882-25.538,78.632L25.202,336.42z"/>
</svg>
