<?xml version="1.0" encoding="utf-8"?>
<!-- Generator: Adobe Illustrator 16.0.0, SVG Export Plug-In . SVG Version: 6.00 Build 0)  -->
<!DOCTYPE svg PUBLIC "-//W3C//DTD SVG 1.1//EN" "http://www.w3.org/Graphics/SVG/1.1/DTD/svg11.dtd">
<svg version="1.1" id="Calque_1" xmlns="http://www.w3.org/2000/svg" xmlns:xlink="http://www.w3.org/1999/xlink" x="0px" y="0px"
	 width="90.5px" height="79.875px" viewBox="0 0 90.5 79.875" enable-background="new 0 0 90.5 79.875" xml:space="preserve">
<g>
	<path fill="#FFFFFF" d="M88.718,37.74c-1.063-3.012-3.371-5.417-6.34-6.596c-2.973-1.184-6.308-1.018-9.142,0.446L46.478,45.383
		c-3.047,1.57-4.484,5.192-3.346,8.425c0.986,2.792,3.653,4.604,6.523,4.604c0.453,0,0.91-0.047,1.365-0.139l29.494-6.033
		c3.13-0.643,5.827-2.604,7.401-5.387C89.489,44.077,89.78,40.752,88.718,37.74"/>
	<path fill="#FFFFFF" d="M21.565,29.017c-1.926-2.549-4.863-4.135-8.051-4.353c-3.186-0.223-6.315,0.946-8.569,3.21H4.94
		c-2.258,2.26-3.425,5.383-3.207,8.57c0.221,3.188,1.805,6.122,4.351,8.054l23.998,18.178c1.227,0.932,2.693,1.388,4.155,1.388
		c1.78,0,3.557-0.678,4.887-2.012c2.421-2.421,2.688-6.311,0.619-9.046L21.565,29.017z"/>
	<path fill="#FFFFFF" d="M49.182,38.511c8.055,0,14.606-6.551,14.606-14.608c0-8.056-6.552-14.605-14.606-14.605
		c-8.056,0-14.608,6.55-14.608,14.605C34.572,31.958,41.123,38.511,49.182,38.511"/>
</g>
</svg>
