<?xml version="1.0" encoding="utf-8"?>
<!-- Generator: Adobe Illustrator 16.0.0, SVG Export Plug-In . SVG Version: 6.00 Build 0)  -->
<!DOCTYPE svg PUBLIC "-//W3C//DTD SVG 1.1//EN" "http://www.w3.org/Graphics/SVG/1.1/DTD/svg11.dtd">
<svg version="1.1" id="Calque_1" xmlns="http://www.w3.org/2000/svg" xmlns:xlink="http://www.w3.org/1999/xlink" x="0px" y="0px"
	 width="58.167px" height="57.333px" viewBox="0 0 58.167 57.333" enable-background="new 0 0 58.167 57.333" xml:space="preserve">
<circle fill-rule="evenodd" clip-rule="evenodd" fill="#FFFFFF" cx="29.161" cy="28.205" r="27.917"/>
<path fill-rule="evenodd" clip-rule="evenodd" fill="#4A2157" d="M29.878,50.109c-3.925-0.03-7.109-0.317-10.213-1.214
	c-1.62-0.468-3.18-1.077-4.512-2.152c-0.846-0.684-1.532-1.506-1.646-2.62c-0.079-0.782-0.038-1.589,0.054-2.373
	c0.386-3.3,1.699-6.198,3.917-8.672c1.822-2.033,4.035-3.486,6.62-4.375c1.97-0.677,3.997-0.941,6.067-0.809
	c7.52,0.478,13.456,6.153,14.53,13.256c0.117,0.771,0.152,1.558,0.188,2.339c0.05,1.132-0.437,2.051-1.22,2.827
	c-1.05,1.04-2.349,1.663-3.714,2.164c-2.085,0.764-4.251,1.177-6.453,1.388C32.06,50.006,30.615,50.062,29.878,50.109z"/>
<path fill-rule="evenodd" clip-rule="evenodd" fill="#4A2157" d="M29.209,6.034c4.98,0.009,9.017,4.069,9.005,9.058
	c-0.012,4.984-4.066,9.011-9.06,9.001c-4.964-0.01-8.996-4.064-8.99-9.041C20.17,10.066,24.224,6.025,29.209,6.034z"/>
</svg>
