<?xml version="1.0" encoding="utf-8"?>
<!-- Generator: Adobe Illustrator 16.0.0, SVG Export Plug-In . SVG Version: 6.00 Build 0)  -->
<!DOCTYPE svg PUBLIC "-//W3C//DTD SVG 1.1//EN" "http://www.w3.org/Graphics/SVG/1.1/DTD/svg11.dtd">
<svg version="1.1" id="Calque_1" xmlns="http://www.w3.org/2000/svg" xmlns:xlink="http://www.w3.org/1999/xlink" x="0px" y="0px"
	 width="32.826px" height="33.172px" viewBox="0 0 32.826 33.172" enable-background="new 0 0 32.826 33.172" xml:space="preserve">
<g>
	<path fill="#FFFFFF" d="M1.715,17.599c0.06-1.08,0.06-2.22,0.06-3.3c0-0.06-0.06-0.36,0-0.42c0.06-0.06,0.24-0.12,0.3-0.12
		c0.24-0.12,0.48-0.18,0.78-0.18h5.16c1.5,0,3.06,0,4.56-0.06v-0.24c0-0.6,0-1.14-0.06-1.68c-0.06-2.58,0-5.28,0-7.859l0.18-0.66
		v-0.18c0.06,0,0.18-0.06,0.18-0.06l0.42-0.12h1.74c1.08,0.06,2.22,0.06,3.3,0.06c0.06,0,0.36-0.06,0.42,0s0.12,0.24,0.12,0.3
		c0.12,0.24,0.18,0.48,0.18,0.78v5.16c0,1.5,0,3,0.06,4.5h7.8c0.6,0,1.14-0.06,1.68-0.06c0.42,0.06,0.78,0.18,1.08,0.479
		c0.18,1.14,0.06,2.28,0.06,3.42v1.68c0,0.9-0.3,0.96-1.08,0.96h-2.64c-1.14,0.06-2.28,0-3.42,0s-2.34,0-3.48-0.06v9.66
		c-0.06,0.42-0.18,0.78-0.48,1.08c-1.14,0.18-2.28,0.06-3.42,0.06h-1.68c-0.9,0-0.96-0.3-0.96-1.08v-2.64c-0.06-1.14,0-2.28,0-3.42
		c0-1.2,0-2.4,0.06-3.6h-0.36c-0.6,0-1.14,0-1.68,0.06h-0.84c-0.24,0-0.54-0.06-0.84-0.06c-0.24,0.06-0.479,0.12-0.72,0.12
		c-0.3,0.06-0.54,0-0.78,0c-0.54-0.06-1.08,0-1.62,0.06h-0.78c-0.24,0-0.54-0.06-0.78-0.12c-0.24,0-0.48,0.06-0.72,0.12
		c-0.24,0-0.48-0.06-0.78-0.06l-0.66-0.18h-0.18c0-0.06-0.06-0.18-0.06-0.18l-0.12-0.42V17.599z"/>
</g>
</svg>
