<?xml version="1.0" encoding="utf-8"?>
<!-- Generator: Adobe Illustrator 16.0.0, SVG Export Plug-In . SVG Version: 6.00 Build 0)  -->
<!DOCTYPE svg PUBLIC "-//W3C//DTD SVG 1.1//EN" "http://www.w3.org/Graphics/SVG/1.1/DTD/svg11.dtd">
<svg version="1.1" id="Calque_1" xmlns="http://www.w3.org/2000/svg" xmlns:xlink="http://www.w3.org/1999/xlink" x="0px" y="0px"
	 width="90.5px" height="79.875px" viewBox="0 0 90.5 79.875" enable-background="new 0 0 90.5 79.875" xml:space="preserve">
<path fill="#FFFFFF" d="M70.575,10.15c-2.622-0.041-5.778,1.573-8.411,4.206c-4.309,3.878-8.539,8.225-12.617,12.619l-33.649-6.73
	l-2.524,5.048L38.612,37.91L24.311,54.735c-3.278-1.079-8.412-2.304-8.412,1.684c0,0.786,0.197,1.6,0.842,2.523l10.096,10.096
	c0.922,0.642,1.735,0.841,2.522,0.841c3.987,0,2.76-5.132,1.681-8.413l16.824-14.301L60.48,72.402l5.048-2.524l-6.729-33.649
	c4.396-4.079,8.742-8.312,12.619-12.62c2.631-2.632,4.246-5.789,4.205-8.413c-0.021-1.413-0.466-2.758-1.371-3.673
	C73.336,10.618,71.989,10.172,70.575,10.15L70.575,10.15L70.575,10.15z"/>
</svg>
