<?xml version="1.0" encoding="utf-8"?>
<!-- Generator: Adobe Illustrator 16.0.0, SVG Export Plug-In . SVG Version: 6.00 Build 0)  -->
<!DOCTYPE svg PUBLIC "-//W3C//DTD SVG 1.1//EN" "http://www.w3.org/Graphics/SVG/1.1/DTD/svg11.dtd">
<svg version="1.1" id="Calque_1" xmlns="http://www.w3.org/2000/svg" xmlns:xlink="http://www.w3.org/1999/xlink" x="0px" y="0px"
	 width="72px" height="72px" viewBox="0 0 72 72" enable-background="new 0 0 72 72" xml:space="preserve">
<path fill="#4A2157" d="M72,57c0,8.285-6.716,15-15,15H15C6.715,72,0,65.285,0,57V15C0,6.716,6.715,0,15,0h42
	c8.284,0,15,6.716,15,15V57z"/>
<g>
	<g>
		<path fill="#FFF48F" d="M18.633,24.163c-0.049-0.742-0.198-1.484-0.148-2.227c0-0.399,0.05-0.741,0.1-1.141v-3.482
			c0-0.286,0-0.571,0.199-0.799l0.398-0.171l0.449-0.172l0.995-0.114c0.3,0,0.648-0.058,0.948,0c0.148,0,0.298,0.058,0.497,0.058
			c0.149,0,0.299-0.058,0.448-0.058l0.996-0.114h4.135c1.395,0,2.739,0,4.135-0.057h2.043c0.149,0.057,0.299,0,0.448-0.058h0.497
			c0.349-0.057,0.698,0,1.047,0c0.647,0.058,1.295-0.113,1.993-0.057c0.647,0,1.345,0.057,2.041,0.057l4.135,0.114
			c1.346,0,2.741,0.057,4.136,0c0.646,0,1.344,0,2.042,0.057c0.647,0.058,1.295,0.172,1.942,0.286c0.1,0,0.15,0,0.25,0.114
			l0.099,0.114c0.051,0.171,0.15,0.286,0.15,0.457c0.1,0.285,0.1,0.571,0.1,0.913v6.167c0,0.113,0.05,0.399-0.051,0.57
			c-0.099,0.229-0.497,0.229-0.747,0.285h-3.039c-1.394,0-2.789-0.057-4.134-0.057h-8.27c-0.299,0-0.647-0.058-0.996-0.058
			c-0.15,0-0.3-0.058-0.399-0.058c-0.199,0-0.348,0.058-0.548,0.058c-0.647,0.058-1.345-0.058-1.992-0.058
			c-0.349,0-0.647,0.058-0.996,0.058H30.49c-0.648-0.058-1.345-0.058-2.042-0.058c-2.74-0.057-5.48,0-8.271-0.113
			C19.631,24.62,19.083,24.62,18.633,24.163z"/>
	</g>
</g>
<g>
	<g>
		<path fill="#FFF48F" d="M18.633,39.502c-0.049-0.742-0.198-1.484-0.148-2.227c0-0.4,0.05-0.742,0.1-1.141v-3.483
			c0-0.286,0-0.57,0.199-0.799l0.398-0.171l0.449-0.172l0.995-0.114c0.3,0,0.648-0.058,0.948,0c0.148,0,0.298,0.058,0.497,0.058
			c0.149,0,0.299-0.058,0.448-0.058l0.996-0.114h4.135c1.395,0,2.739,0,4.135-0.057h2.043c0.149,0.057,0.299,0,0.448-0.058h0.497
			c0.349-0.057,0.698,0,1.047,0c0.647,0.058,1.295-0.113,1.993-0.057c0.647,0,1.345,0.057,2.041,0.057l4.135,0.114
			c1.346,0,2.741,0.057,4.136,0c0.646,0,1.344,0,2.042,0.057c0.647,0.058,1.295,0.172,1.942,0.286c0.1,0,0.15,0,0.25,0.114
			l0.099,0.115c0.051,0.171,0.15,0.285,0.15,0.456c0.1,0.285,0.1,0.571,0.1,0.914v6.167c0,0.113,0.05,0.398-0.051,0.57
			c-0.099,0.229-0.497,0.229-0.747,0.285h-3.039c-1.394,0-2.789-0.057-4.134-0.057h-8.27c-0.299,0-0.647-0.059-0.996-0.059
			c-0.15,0-0.3-0.057-0.399-0.057c-0.199,0-0.348,0.057-0.548,0.057c-0.647,0.059-1.345-0.057-1.992-0.057
			c-0.349,0-0.647,0.057-0.996,0.057H30.49c-0.648-0.057-1.345-0.057-2.042-0.057c-2.74-0.057-5.48,0-8.271-0.113
			C19.631,39.959,19.083,39.959,18.633,39.502z"/>
	</g>
</g>
<g>
	<g>
		<path fill="#FFF48F" d="M18.633,54.496c-0.049-0.742-0.198-1.484-0.148-2.227c0-0.4,0.05-0.742,0.1-1.143v-3.482
			c0-0.285,0-0.57,0.199-0.799l0.398-0.17l0.449-0.172l0.995-0.115c0.3,0,0.648-0.057,0.948,0c0.148,0,0.298,0.059,0.497,0.059
			c0.149,0,0.299-0.059,0.448-0.059l0.996-0.115h4.135c1.395,0,2.739,0,4.135-0.057h2.043c0.149,0.057,0.299,0,0.448-0.057h0.497
			c0.349-0.057,0.698,0,1.047,0c0.647,0.057,1.295-0.113,1.993-0.057c0.647,0,1.345,0.057,2.041,0.057l4.135,0.113
			c1.346,0,2.741,0.059,4.136,0c0.646,0,1.344,0,2.042,0.059c0.647,0.057,1.295,0.172,1.942,0.285c0.1,0,0.15,0,0.25,0.115
			l0.099,0.113c0.051,0.172,0.15,0.285,0.15,0.457c0.1,0.285,0.1,0.57,0.1,0.912v6.166c0,0.115,0.05,0.4-0.051,0.572
			c-0.099,0.229-0.497,0.229-0.747,0.285h-3.039c-1.394,0-2.789-0.057-4.134-0.057h-8.27c-0.299,0-0.647-0.059-0.996-0.059
			c-0.15,0-0.3-0.057-0.399-0.057c-0.199,0-0.348,0.057-0.548,0.057c-0.647,0.059-1.345-0.057-1.992-0.057
			c-0.349,0-0.647,0.057-0.996,0.057H30.49c-0.648-0.057-1.345-0.057-2.042-0.057c-2.74-0.057-5.48,0-8.271-0.113
			C19.631,54.953,19.083,54.953,18.633,54.496z"/>
	</g>
</g>
</svg>
