<?xml version="1.0" encoding="utf-8"?>
<!-- Generator: Adobe Illustrator 16.0.0, SVG Export Plug-In . SVG Version: 6.00 Build 0)  -->
<!DOCTYPE svg PUBLIC "-//W3C//DTD SVG 1.1//EN" "http://www.w3.org/Graphics/SVG/1.1/DTD/svg11.dtd">
<svg version="1.1" id="Calque_1" xmlns="http://www.w3.org/2000/svg" xmlns:xlink="http://www.w3.org/1999/xlink" x="0px" y="0px"
	 width="90.5px" height="79.875px" viewBox="0 0 90.5 79.875" enable-background="new 0 0 90.5 79.875" xml:space="preserve">
<g>
	<path fill="#FFFFFF" d="M29.079,26.271l-3.711-3.617l5.754-0.836l2.574-5.215l1.687,3.42L50.19,5.342V5.035
		c-0.02-1.868-1.699-3.532-3.563-3.532h-6.316c-0.186,3.702-3.224,6.654-6.971,6.66c-3.753-0.001-6.79-2.957-6.973-6.659
		l-6.315-0.001c-0.926,0.001-1.791,0.365-2.44,1.021c-0.652,0.653-1.014,1.528-1.004,2.449l0.27,33.395L29.079,26.271z"/>
	<path fill="#FFFFFF" d="M79.884,33.198l-5.441-5.441c-3.351,3.03-8.511,2.961-11.746-0.264c-3.229-3.231-3.301-8.396-0.27-11.742
		l-5.438-5.438c-0.799-0.795-1.856-1.229-2.984-1.224c-1.127,0.002-2.189,0.446-2.975,1.248L12.61,49.371
		c-0.795,0.807-1.23,1.88-1.23,3.042c0,1.164,0.443,2.255,1.255,3.066l5.44,5.44c3.353-3.037,8.512-2.963,11.744,0.263
		c3.229,3.233,3.299,8.396,0.268,11.74l5.438,5.438c0.797,0.799,1.855,1.23,2.983,1.227c1.126-0.005,2.185-0.45,2.976-1.255
		L79.907,39.31C81.501,37.683,81.489,34.802,79.884,33.198z M50.608,47.362l-4.09,5.785l-2.105-6.766l-6.764-2.104l5.783-4.09
		l-0.089-7.082l5.679,4.235l6.711-2.272l-2.275,6.707l4.236,5.677L50.608,47.362z"/>
</g>
</svg>
