<?xml version="1.0" encoding="utf-8"?>
<!-- Generator: Adobe Illustrator 16.0.0, SVG Export Plug-In . SVG Version: 6.00 Build 0)  -->
<!DOCTYPE svg PUBLIC "-//W3C//DTD SVG 1.1//EN" "http://www.w3.org/Graphics/SVG/1.1/DTD/svg11.dtd">
<svg version="1.1" id="Calque_1" xmlns="http://www.w3.org/2000/svg" xmlns:xlink="http://www.w3.org/1999/xlink" x="0px" y="0px"
	 width="792.5px" height="91.375px" viewBox="0 0 792.5 91.375" enable-background="new 0 0 792.5 91.375" xml:space="preserve">
<path fill="#FFFFFF" d="M78.49,12.457H39.175c-2.793,0.003-5.469,1.114-7.444,3.087c-1.974,1.976-3.085,4.651-3.087,7.444v39.315
	c0.003,2.792,1.114,5.469,3.087,7.443c1.976,1.974,4.65,3.085,7.444,3.088H78.49c2.792-0.003,5.468-1.114,7.442-3.088
	c1.975-1.975,3.085-4.651,3.089-7.443V22.988c-0.004-2.793-1.114-5.469-3.089-7.444C83.958,13.571,81.282,12.46,78.49,12.457z
	 M84.809,40.538H74.98v-8.424h9.829V40.538z M42.684,40.538h-9.828v-8.424h9.828V40.538z M32.855,44.751h9.829v8.425h-9.828
	L32.855,44.751z M74.979,44.751h9.829v8.425h-9.829V44.751z M84.809,22.988v4.914H74.98V16.669h3.51
	c1.675,0.002,3.282,0.669,4.466,1.854C84.14,19.707,84.807,21.313,84.809,22.988z M39.175,16.669h3.509v11.232h-9.828v-4.914
	c0.002-1.675,0.669-3.281,1.853-4.465C35.894,17.339,37.5,16.671,39.175,16.669z M32.856,62.303v-4.915h9.829v11.233h-3.51
	c-1.675-0.003-3.281-0.67-4.467-1.855C33.525,65.582,32.858,63.978,32.856,62.303z M78.49,68.622h-3.51V57.389h9.829v4.915
	c-0.002,1.675-0.669,3.279-1.853,4.464C81.771,67.952,80.165,68.619,78.49,68.622L78.49,68.622z"/>
<g>
	<path fill="#FFFFFF" d="M228.227,53.553V15.024c0-0.77-0.344-1.498-0.941-1.984c-0.596-0.488-1.375-0.684-2.131-0.535
		l-22.613,4.523l0,0v43.77l23.621-4.725C227.361,55.832,228.227,54.778,228.227,53.553z"/>
	<path fill="#FFFFFF" d="M173.782,56.075l23.621,4.724l0,0V17.028l-22.613-4.524c-0.755-0.148-1.536,0.047-2.132,0.534
		c-0.596,0.489-0.94,1.215-0.94,1.986v38.528C171.718,54.78,172.581,55.832,173.782,56.075z"/>
	<path fill="#FFFFFF" d="M235.934,20.162h-2.57v33.392c0,3.672-2.59,6.835-6.192,7.556l-25.636,5.127l-1.562,0.159l-1.504-0.148
		l-25.692-5.136c-3.604-0.722-6.195-3.883-6.195-7.556V20.164h-2.567c-1.418,0-2.57,1.149-2.57,2.567V61.26
		c0,1.146,0.76,2.156,1.861,2.472l16.741,4.782l3.382,0.966l-0.009,0.01l5.347,1.542l0.018-0.023l2.609,0.746l7.873,2.249
		c0.463,0.132,0.952,0.132,1.413,0l10.482-2.995l0.004,0.005l5.357-1.531l-0.004-0.004l20.121-5.748
		c1.101-0.316,1.86-1.326,1.86-2.472V22.731C238.502,21.313,237.352,20.162,235.934,20.162z"/>
</g>
<path fill="#FFFFFF" d="M364.923,12.65c-2.622-0.041-5.778,1.573-8.411,4.206c-4.309,3.878-8.539,8.225-12.617,12.619l-33.649-6.73
	l-2.524,5.048L332.96,40.41l-14.302,16.825c-3.278-1.079-8.412-2.304-8.412,1.684c0,0.786,0.197,1.6,0.842,2.523l10.096,10.096
	c0.922,0.642,1.735,0.841,2.522,0.841c3.987,0,2.76-5.132,1.681-8.413l16.824-14.301l12.617,25.237l5.048-2.524l-6.729-33.649
	c4.396-4.079,8.742-8.312,12.619-12.62c2.631-2.632,4.246-5.789,4.205-8.413c-0.021-1.413-0.466-2.758-1.371-3.673
	C367.684,13.118,366.337,12.672,364.923,12.65L364.923,12.65L364.923,12.65z"/>
<g>
	<path fill="#FFFFFF" d="M491.185,26.318c0-8.531-6.279-17.992-12.02-17.992s-12.099,9.461-12.099,17.992
		c0,6.824,3.411,10.934,8.221,12.406L474.669,77.5c0,2.48,1.938,4.496,4.42,4.496c2.48,0,4.496-2.016,4.42-4.496l-0.621-38.773
		C487.773,37.331,491.185,33.145,491.185,26.318L491.185,26.318z"/>
	<path fill="#FFFFFF" d="M459.313,10.266c-1.086,0-1.938,0.854-1.938,1.939v16.127c0,0.466-0.388,0.855-0.853,0.855h-2.095
		c-0.465,0-0.853-0.391-0.853-0.855l0.001-16.205c-0.078-1.008-0.932-1.861-1.938-1.861c-1.086,0-1.938,0.854-1.938,1.939v16.127
		c0,0.466-0.388,0.855-0.853,0.855h-2.096c-0.465,0-0.852-0.391-0.852-0.855V12.127c0-1.087-0.854-1.939-1.939-1.939
		c-1.084,0-1.938,0.854-1.938,1.939v19.619c0,3.334,2.559,6.049,5.738,6.359l-0.621,39.314c0,2.482,1.938,4.497,4.421,4.497
		c2.481,0,4.497-2.015,4.42-4.497l-0.542-39.238c3.257-0.311,5.738-3.103,5.738-6.357V12.127
		C461.177,11.119,460.321,10.266,459.313,10.266L459.313,10.266z"/>
</g>
<g>
	<path fill="#FFFFFF" d="M589.579,31.934l-3.711-3.617l5.754-0.836l2.574-5.215l1.687,3.42l14.808-14.681v-0.307
		c-0.02-1.868-1.699-3.532-3.563-3.532h-6.316c-0.186,3.702-3.224,6.654-6.971,6.66c-3.753-0.001-6.79-2.957-6.973-6.659
		l-6.315-0.001c-0.926,0.001-1.791,0.365-2.44,1.021c-0.652,0.653-1.014,1.528-1.004,2.449l0.27,33.395L589.579,31.934z"/>
	<path fill="#FFFFFF" d="M640.384,38.861l-5.441-5.441c-3.351,3.03-8.511,2.961-11.746-0.264c-3.229-3.231-3.301-8.396-0.27-11.742
		l-5.438-5.438c-0.799-0.795-1.856-1.229-2.984-1.224c-1.127,0.002-2.189,0.446-2.975,1.248l-38.42,39.033
		c-0.795,0.807-1.23,1.88-1.23,3.042c0,1.164,0.443,2.255,1.255,3.066l5.44,5.44c3.353-3.037,8.512-2.963,11.744,0.263
		c3.229,3.233,3.299,8.396,0.268,11.74l5.438,5.438c0.797,0.799,1.855,1.23,2.983,1.227c1.126-0.005,2.185-0.45,2.976-1.255
		l38.424-39.022C642.001,43.346,641.989,40.465,640.384,38.861z M611.108,53.025l-4.09,5.785l-2.105-6.766l-6.764-2.104l5.783-4.09
		l-0.089-7.082l5.679,4.235l6.711-2.272l-2.275,6.707l4.236,5.677L611.108,53.025z"/>
</g>
<path fill="#FFFFFF" d="M736.251,29.936h-17.624c-16.949,0-25.498,20.597-13.502,32.594c3.457,3.459,8.227,5.588,13.502,5.588
	c14.906,0,12.873-10.744,23.143-10.744c10.791,0,8.697,10.744,23.136,10.744c16.95,0,25.499-20.59,13.502-32.585
	c-3.456-3.458-8.224-5.597-13.502-5.597h-24.64c0-3.056-0.725-7.928,3.711-7.928l7.726,0.104c2.603,0.642,4.371-4.125-0.894-4.125
	C739.508,17.986,736.251,18.079,736.251,29.936L736.251,29.936z M763.943,52.425c5.119,0,5.119,7.804,0,7.804
	C758.826,60.229,758.826,52.425,763.943,52.425z M709.525,50.119c-2.649,0-2.649-4.018,0-4.018l5.642-0.002v-5.642
	c0-2.649,4.024-2.649,4.024,0V46.1h5.645c2.646,0,2.646,4.02,0,4.02h-5.645v5.652c0,2.637-4.021,2.637-4.021,0v-5.652H709.525z
	 M755.756,44.436c5.125,0,5.125,7.791,0,7.791C750.639,52.229,750.639,44.436,755.756,44.436z M772.123,44.436
	c5.113,0,5.113,7.791,0,7.791C767.007,52.229,767.007,44.436,772.123,44.436z M763.943,36.443c5.119,0,5.119,7.793,0,7.793
	C758.826,44.236,758.826,36.443,763.943,36.443z"/>
</svg>
