<?xml version="1.0" encoding="utf-8"?>
<!-- Generator: Adobe Illustrator 16.0.0, SVG Export Plug-In . SVG Version: 6.00 Build 0)  -->
<!DOCTYPE svg PUBLIC "-//W3C//DTD SVG 1.1//EN" "http://www.w3.org/Graphics/SVG/1.1/DTD/svg11.dtd">
<svg version="1.1" id="Calque_1" xmlns="http://www.w3.org/2000/svg" xmlns:xlink="http://www.w3.org/1999/xlink" x="0px" y="0px"
	 width="90.5px" height="79.875px" viewBox="0 0 90.5 79.875" enable-background="new 0 0 90.5 79.875" xml:space="preserve">
<path fill="#FFFFFF" d="M39.751,23.936H22.127c-16.949,0-25.498,20.597-13.502,32.594c3.457,3.459,8.227,5.588,13.502,5.588
	c14.906,0,12.873-10.744,23.143-10.744c10.791,0,8.697,10.744,23.136,10.744c16.95,0,25.499-20.59,13.502-32.585
	c-3.456-3.458-8.224-5.597-13.502-5.597h-24.64c0-3.056-0.725-7.928,3.711-7.928l7.726,0.104c2.603,0.642,4.371-4.125-0.894-4.125
	C43.008,11.986,39.751,12.079,39.751,23.936L39.751,23.936z M67.443,46.425c5.119,0,5.119,7.804,0,7.804
	C62.326,54.229,62.326,46.425,67.443,46.425z M13.025,44.119c-2.649,0-2.649-4.018,0-4.018l5.642-0.002v-5.642
	c0-2.649,4.024-2.649,4.024,0V40.1h5.645c2.646,0,2.646,4.02,0,4.02h-5.645v5.652c0,2.637-4.021,2.637-4.021,0v-5.652H13.025z
	 M59.256,38.436c5.125,0,5.125,7.791,0,7.791C54.139,46.229,54.139,38.436,59.256,38.436z M75.623,38.436
	c5.113,0,5.113,7.791,0,7.791C70.507,46.229,70.507,38.436,75.623,38.436z M67.443,30.443c5.119,0,5.119,7.793,0,7.793
	C62.326,38.236,62.326,30.443,67.443,30.443z"/>
</svg>
