<?xml version="1.0" encoding="utf-8"?>
<!-- Generator: Adobe Illustrator 16.0.0, SVG Export Plug-In . SVG Version: 6.00 Build 0)  -->
<!DOCTYPE svg PUBLIC "-//W3C//DTD SVG 1.1//EN" "http://www.w3.org/Graphics/SVG/1.1/DTD/svg11.dtd">
<svg version="1.1" id="Calque_1" xmlns="http://www.w3.org/2000/svg" xmlns:xlink="http://www.w3.org/1999/xlink" x="0px" y="0px"
	 width="90.5px" height="79.875px" viewBox="0 0 90.5 79.875" enable-background="new 0 0 90.5 79.875" xml:space="preserve">
<path fill="#FFFFFF" d="M64.99,10.457H25.675c-2.793,0.003-5.469,1.114-7.444,3.087c-1.974,1.976-3.085,4.651-3.087,7.444v39.315
	c0.003,2.792,1.114,5.469,3.087,7.443c1.976,1.974,4.65,3.085,7.444,3.088H64.99c2.792-0.003,5.468-1.114,7.442-3.088
	c1.975-1.975,3.085-4.651,3.089-7.443V20.988c-0.004-2.793-1.114-5.469-3.089-7.444C70.458,11.571,67.782,10.46,64.99,10.457z
	 M71.309,38.538H61.48v-8.424h9.829V38.538z M29.184,38.538h-9.828v-8.424h9.828V38.538z M19.355,42.751h9.829v8.425h-9.828
	L19.355,42.751z M61.479,42.751h9.829v8.425h-9.829V42.751z M71.309,20.988v4.914H61.48V14.669h3.51
	c1.675,0.002,3.282,0.669,4.466,1.854C70.64,17.707,71.307,19.313,71.309,20.988z M25.675,14.669h3.509v11.232h-9.828v-4.914
	c0.002-1.675,0.669-3.281,1.853-4.465C22.394,15.339,24,14.671,25.675,14.669z M19.356,60.303v-4.915h9.829v11.233h-3.51
	c-1.675-0.003-3.281-0.67-4.467-1.855C20.025,63.582,19.358,61.978,19.356,60.303z M64.99,66.622h-3.51V55.389h9.829v4.915
	c-0.002,1.675-0.669,3.279-1.853,4.464C68.271,65.952,66.665,66.619,64.99,66.622L64.99,66.622z"/>
</svg>
