<?xml version="1.0" encoding="utf-8"?>
<!-- Generator: Adobe Illustrator 16.0.0, SVG Export Plug-In . SVG Version: 6.00 Build 0)  -->
<!DOCTYPE svg PUBLIC "-//W3C//DTD SVG 1.1//EN" "http://www.w3.org/Graphics/SVG/1.1/DTD/svg11.dtd">
<svg version="1.1" id="Calque_1" xmlns="http://www.w3.org/2000/svg" xmlns:xlink="http://www.w3.org/1999/xlink" x="0px" y="0px"
	 width="90.5px" height="79.875px" viewBox="0 0 90.5 79.875" enable-background="new 0 0 90.5 79.875" xml:space="preserve">
<g>
	<path fill="#FFFFFF" d="M70.685,21.318c0-8.531-6.279-17.992-12.02-17.992s-12.099,9.461-12.099,17.992
		c0,6.824,3.411,10.934,8.221,12.406L54.169,72.5c0,2.48,1.938,4.496,4.42,4.496c2.48,0,4.496-2.016,4.42-4.496l-0.621-38.773
		C67.273,32.331,70.685,28.145,70.685,21.318L70.685,21.318z"/>
	<path fill="#FFFFFF" d="M38.813,5.266c-1.086,0-1.938,0.854-1.938,1.939v16.127c0,0.466-0.388,0.855-0.853,0.855h-2.095
		c-0.465,0-0.853-0.391-0.853-0.855l0.001-16.205c-0.078-1.008-0.932-1.861-1.938-1.861c-1.086,0-1.938,0.854-1.938,1.939v16.127
		c0,0.466-0.388,0.855-0.853,0.855h-2.096c-0.465,0-0.852-0.391-0.852-0.855V7.127c0-1.087-0.854-1.939-1.939-1.939
		c-1.084,0-1.938,0.854-1.938,1.939v19.619c0,3.334,2.559,6.049,5.738,6.359L26.642,72.42c0,2.482,1.938,4.497,4.421,4.497
		c2.481,0,4.497-2.015,4.42-4.497L34.94,33.182c3.257-0.311,5.738-3.103,5.738-6.357V7.127C40.677,6.119,39.821,5.266,38.813,5.266
		L38.813,5.266z"/>
</g>
</svg>
