<?xml version="1.0" encoding="utf-8"?>
<!-- Generator: Adobe Illustrator 16.0.0, SVG Export Plug-In . SVG Version: 6.00 Build 0)  -->
<!DOCTYPE svg PUBLIC "-//W3C//DTD SVG 1.1//EN" "http://www.w3.org/Graphics/SVG/1.1/DTD/svg11.dtd">
<svg version="1.1" id="Calque_1" xmlns="http://www.w3.org/2000/svg" xmlns:xlink="http://www.w3.org/1999/xlink" x="0px" y="0px"
	 width="400px" height="212.75px" viewBox="0 0 400 212.75" enable-background="new 0 0 400 212.75" xml:space="preserve">
<path fill="#FFF48F" d="M78.49,9H39.175c-2.793,0.003-5.469,1.114-7.444,3.087c-1.974,1.976-3.085,4.651-3.087,7.444v39.315
	c0.003,2.792,1.114,5.469,3.087,7.443c1.976,1.974,4.65,3.085,7.444,3.088H78.49c2.792-0.003,5.468-1.114,7.442-3.088
	c1.975-1.975,3.085-4.651,3.089-7.443V19.531c-0.004-2.793-1.114-5.469-3.089-7.444C83.958,10.114,81.282,9.003,78.49,9z
	 M84.809,37.081h-9.829v-8.424h9.829V37.081z M42.684,37.081h-9.828v-8.424h9.828V37.081z M32.855,41.294h9.829v8.425h-9.828
	L32.855,41.294z M74.979,41.294h9.829v8.425h-9.829V41.294z M84.809,19.531v4.914h-9.829V13.212h3.51
	c1.675,0.002,3.282,0.669,4.466,1.854C84.14,16.25,84.807,17.856,84.809,19.531z M39.175,13.212h3.509v11.232h-9.828v-4.914
	c0.002-1.675,0.669-3.281,1.853-4.465C35.894,13.882,37.5,13.214,39.175,13.212z M32.856,58.846v-4.915h9.829v11.233h-3.51
	c-1.675-0.003-3.281-0.67-4.467-1.855C33.525,62.125,32.858,60.521,32.856,58.846z M78.49,65.165h-3.51V53.932h9.829v4.915
	c-0.002,1.675-0.669,3.279-1.853,4.464C81.771,64.495,80.165,65.162,78.49,65.165L78.49,65.165z"/>
<g>
	<path fill="#FFF48F" d="M228.227,50.096V11.567c0-0.77-0.344-1.498-0.942-1.984c-0.595-0.488-1.375-0.684-2.131-0.535
		l-22.613,4.523l0,0v43.77l23.621-4.725C227.362,52.375,228.227,51.321,228.227,50.096z"/>
	<path fill="#FFF48F" d="M173.782,52.618l23.621,4.724l0,0V13.571L174.79,9.047c-0.755-0.148-1.536,0.047-2.132,0.534
		c-0.596,0.489-0.94,1.215-0.94,1.986v38.528C171.718,51.323,172.581,52.375,173.782,52.618z"/>
	<path fill="#FFF48F" d="M235.933,16.705h-2.569v33.392c0,3.672-2.59,6.835-6.193,7.556l-25.636,5.127l-1.562,0.159l-1.504-0.148
		l-25.692-5.136c-3.604-0.722-6.195-3.883-6.195-7.556V16.707h-2.567c-1.418,0-2.57,1.149-2.57,2.567v38.529
		c0,1.146,0.76,2.156,1.861,2.472l16.741,4.782l3.382,0.966l-0.009,0.01l5.347,1.542l0.018-0.023l2.609,0.746l7.873,2.249
		c0.463,0.132,0.952,0.132,1.413,0l10.482-2.995l0.004,0.005l5.357-1.531l-0.004-0.004l20.121-5.748
		c1.101-0.316,1.861-1.326,1.861-2.472V19.274C238.502,17.856,237.352,16.705,235.933,16.705z"/>
</g>
<path fill="#FFF48F" d="M364.923,9.193c-2.622-0.041-5.778,1.573-8.411,4.206c-4.309,3.878-8.54,8.225-12.618,12.619l-33.649-6.73
	l-2.524,5.048l25.239,12.617l-14.302,16.825c-3.278-1.079-8.412-2.304-8.412,1.684c0,0.786,0.198,1.6,0.842,2.523l10.095,10.096
	c0.922,0.642,1.736,0.841,2.523,0.841c3.988,0,2.76-5.132,1.681-8.413l16.824-14.301l12.617,25.237l5.048-2.524l-6.73-33.649
	c4.396-4.079,8.743-8.312,12.62-12.62c2.631-2.632,4.245-5.789,4.205-8.413c-0.021-1.413-0.466-2.758-1.372-3.673
	C367.683,9.661,366.337,9.215,364.923,9.193L364.923,9.193L364.923,9.193z"/>
<g>
	<path fill="#FFF48F" d="M85.821,139.818c0-8.531-6.28-17.992-12.02-17.992s-12.099,9.461-12.099,17.992
		c0,6.825,3.412,10.934,8.221,12.407L69.304,191c0,2.48,1.938,4.496,4.42,4.496c2.481,0,4.497-2.016,4.42-4.496l-0.621-38.774
		C82.409,150.831,85.821,146.644,85.821,139.818L85.821,139.818z"/>
	<path fill="#FFF48F" d="M53.949,123.765c-1.086,0-1.938,0.854-1.938,1.94v16.127c0,0.466-0.387,0.855-0.852,0.855h-2.094
		c-0.465,0-0.853-0.39-0.853-0.855l0.001-16.205c-0.078-1.008-0.932-1.862-1.938-1.862c-1.086,0-1.938,0.854-1.938,1.94v16.127
		c0,0.466-0.388,0.855-0.853,0.855h-2.095c-0.465,0-0.852-0.39-0.852-0.855v-16.205c0-1.087-0.854-1.94-1.939-1.94
		s-1.938,0.854-1.938,1.94v19.619c0,3.334,2.559,6.049,5.738,6.36l-0.62,39.314c0,2.482,1.938,4.497,4.42,4.497
		c2.482,0,4.498-2.015,4.42-4.497l-0.542-39.239c3.257-0.31,5.738-3.102,5.738-6.357v-19.697
		C55.812,124.619,54.957,123.765,53.949,123.765L53.949,123.765z"/>
</g>
<g>
	<path fill="#FEF28F" d="M185.944,142.434l-3.711-3.617l5.754-0.837l2.573-5.214l1.687,3.42l14.808-14.681v-0.307
		c-0.02-1.868-1.7-3.532-3.563-3.532h-6.316c-0.186,3.702-3.224,6.655-6.971,6.66c-3.753-0.001-6.79-2.957-6.973-6.659l-6.315-0.001
		c-0.926,0.001-1.791,0.365-2.441,1.021c-0.652,0.654-1.013,1.529-1.003,2.45l0.269,33.394L185.944,142.434z"/>
	<path fill="#FEF28F" d="M236.748,149.362l-5.442-5.442c-3.35,3.03-8.51,2.961-11.746-0.264c-3.229-3.231-3.3-8.396-0.269-11.742
		l-5.438-5.438c-0.798-0.794-1.856-1.228-2.984-1.223c-1.127,0.002-2.189,0.446-2.974,1.248l-38.421,39.033
		c-0.795,0.807-1.23,1.88-1.23,3.042c0,1.164,0.443,2.255,1.255,3.066l5.44,5.441c3.353-3.037,8.512-2.963,11.745,0.263
		c3.229,3.233,3.298,8.395,0.267,11.74l5.438,5.438c0.797,0.798,1.855,1.23,2.983,1.226c1.126-0.005,2.185-0.45,2.975-1.255
		l38.425-39.022C238.365,153.846,238.353,150.965,236.748,149.362z M207.473,163.526l-4.09,5.784l-2.106-6.765l-6.764-2.103
		l5.784-4.091l-0.089-7.081l5.679,4.235l6.71-2.273l-2.275,6.708l4.237,5.676L207.473,163.526z"/>
</g>
<path fill="#FFF48F" d="M331.751,143.435h-17.624c-16.949,0-25.498,20.597-13.502,32.594c3.457,3.46,8.226,5.588,13.502,5.588
	c14.906,0,12.873-10.744,23.143-10.744c10.79,0,8.697,10.744,23.135,10.744c16.95,0,25.499-20.59,13.502-32.585
	c-3.456-3.458-8.223-5.596-13.502-5.596h-24.639c0-3.056-0.725-7.928,3.711-7.928l7.725,0.104c2.602,0.641,4.371-4.125-0.894-4.125
	C335.008,131.486,331.751,131.579,331.751,143.435L331.751,143.435z M359.443,165.925c5.119,0,5.119,7.804,0,7.804
	C354.326,173.729,354.326,165.925,359.443,165.925z M305.025,163.619c-2.649,0-2.649-4.017,0-4.017l5.642-0.003v-5.641
	c0-2.649,4.025-2.649,4.025,0v5.641h5.644c2.647,0,2.647,4.02,0,4.02h-5.644v5.652c0,2.637-4.021,2.637-4.021,0v-5.652H305.025z
	 M351.256,157.936c5.125,0,5.125,7.791,0,7.791C346.139,165.729,346.139,157.936,351.256,157.936z M367.623,157.936
	c5.113,0,5.113,7.791,0,7.791C362.507,165.729,362.507,157.936,367.623,157.936z M359.443,149.944c5.119,0,5.119,7.792,0,7.792
	C354.326,157.736,354.326,149.944,359.443,149.944z"/>
</svg>
