<?xml version="1.0" encoding="utf-8"?>
<!-- Generator: Adobe Illustrator 16.0.0, SVG Export Plug-In . SVG Version: 6.00 Build 0)  -->
<!DOCTYPE svg PUBLIC "-//W3C//DTD SVG 1.1//EN" "http://www.w3.org/Graphics/SVG/1.1/DTD/svg11.dtd">
<svg version="1.1" id="Calque_1" xmlns="http://www.w3.org/2000/svg" xmlns:xlink="http://www.w3.org/1999/xlink" x="0px" y="0px"
	 width="90.5px" height="79.875px" viewBox="0 0 90.5 79.875" enable-background="new 0 0 90.5 79.875" xml:space="preserve">
<g>
	<path fill="#FFFFFF" d="M73.727,50.553V12.024c0-0.77-0.344-1.498-0.941-1.984c-0.596-0.488-1.375-0.684-2.131-0.535l-22.613,4.523
		l0,0v43.77l23.621-4.725C72.861,52.832,73.727,51.778,73.727,50.553z"/>
	<path fill="#FFFFFF" d="M19.282,53.075l23.62,4.724l0,0V14.028L20.29,9.504c-0.755-0.148-1.536,0.047-2.132,0.534
		c-0.596,0.489-0.94,1.215-0.94,1.986v38.528C17.218,51.78,18.081,52.832,19.282,53.075z"/>
	<path fill="#FFFFFF" d="M81.434,17.162h-2.57v33.392c0,3.672-2.59,6.835-6.192,7.556l-25.636,5.127l-1.563,0.159l-1.504-0.148
		l-25.692-5.136c-3.604-0.722-6.195-3.883-6.195-7.556V17.164H9.515c-1.418,0-2.57,1.149-2.57,2.567V58.26
		c0,1.146,0.76,2.156,1.861,2.472l16.741,4.782l3.382,0.966l-0.009,0.01l5.347,1.542l0.018-0.023l2.609,0.746l7.874,2.249
		c0.463,0.132,0.951,0.132,1.412,0l10.482-2.995l0.004,0.005l5.357-1.531l-0.004-0.004l20.121-5.748
		c1.101-0.316,1.86-1.326,1.86-2.472V19.731C84.002,18.313,82.852,17.162,81.434,17.162z"/>
</g>
</svg>
