<?xml version="1.0" encoding="utf-8"?>
<!-- Generator: Adobe Illustrator 16.0.0, SVG Export Plug-In . SVG Version: 6.00 Build 0)  -->
<!DOCTYPE svg PUBLIC "-//W3C//DTD SVG 1.1//EN" "http://www.w3.org/Graphics/SVG/1.1/DTD/svg11.dtd">
<svg version="1.1" id="Calque_1" xmlns="http://www.w3.org/2000/svg" xmlns:xlink="http://www.w3.org/1999/xlink" x="0px" y="0px"
	 width="400px" height="150px" viewBox="0 0 400 150" enable-background="new 0 0 400 150" xml:space="preserve">
<path fill="#FFFFFF" d="M49.211,38.123c-3.063,0.205-6.024,0.103-8.984,0.103h-4.595c-0.918,0-2.246,0.102-2.348-1.124
	c-0.101-1.429,0.409-2.858,0.511-4.287c0-1.328-0.103-2.757-0.817-3.88c-0.613-1.122-1.735-1.837-2.859-2.45
	c-1.122-0.612-2.348-0.817-3.572-0.714c-1.328,0.102-2.349,0.612-3.267,1.531c-0.817,0.817-1.531,1.736-2.042,2.757
	c-0.511,1.124-0.715,2.45-0.919,3.676c-0.204,1.531-0.305,2.96-0.408,4.492c-0.102,2.96,0,6.024,0,8.984
	c0,3.063,0,6.024,0.306,9.086c0,0.714,0.102,1.429,0.205,2.144c0.102,0.714,0.408,1.43,0.51,2.144
	c0.205,1.327,0.103,2.654,0.715,3.88c0.612,1.021,1.429,1.94,2.45,2.348c1.225,0.612,2.756,0.817,4.084,0.715
	c1.225-0.103,2.45-0.408,3.369-1.225c0.816-0.716,1.225-1.838,1.531-2.962c0.306-1.327,0.306-2.756,0.306-4.083v-0.204
	c0-0.204,0-0.102-0.102-0.102c-0.101-0.102-0.408-0.102-0.51-0.102c-0.306-0.103-0.715-0.103-1.123-0.103h-2.144
	c-0.612-0.102-1.327-0.204-1.735-0.612c-0.408-0.511-0.408-1.123-0.408-1.735c-0.102-1.429,0.102-2.961,0.102-4.391
	c0-0.408,0-0.714-0.102-1.123c0-0.408-0.102-0.715-0.204-1.123c-0.103-0.714-0.103-1.429,0-2.145
	c0.102-1.02,0.204-2.552,1.531-2.654c0.715-0.102,1.429,0,2.144,0c0.817-0.102,1.531-0.102,2.349-0.102
	c1.531,0,2.96-0.103,4.492-0.204c1.429-0.103,2.858-0.103,4.39,0c1.429,0.204,2.961,0.306,4.39,0.408
	c1.123,0.103,2.246-0.102,3.369,0.306c0.613,0.205,1.124,0.613,1.429,1.226c0.409,0.918,0.307,2.042,0.205,3.063
	c0,1.429-0.103,2.96-0.306,4.491c0,0.716,0.102,1.43,0.204,2.145c0,0.714-0.102,1.531-0.102,2.246l-0.306,4.493
	c-0.205,2.756-0.409,5.615-1.328,8.167c-0.817,2.654-2.246,4.798-4.084,6.738c-0.918,0.919-1.939,1.838-3.062,2.553
	c-1.123,0.714-2.451,1.123-3.675,1.633c-1.328,0.409-2.655,0.817-3.981,1.123c-1.43,0.307-2.859,0.408-4.39,0.511l-4.493,0.307
	c-0.714,0-1.531,0.103-2.246,0.103l-2.042-0.307l-1.021-0.205c-0.307,0-0.715,0-1.021-0.203l-1.94-0.613
	c-1.225-0.408-2.45-0.919-3.675-1.531c-2.246-1.123-4.289-2.654-5.922-4.594c-0.817-1.021-1.429-2.042-1.939-3.165
	c-0.614-1.225-1.328-2.45-1.838-3.676c-0.51-1.327-0.918-2.655-1.021-3.981c-0.205-1.531-0.102-2.96-0.205-4.492
	c-0.102-6.024,0.103-12.048,0.307-18.172c0-1.429,0.102-2.961,0.204-4.391c0.102-1.531,0-3.063-0.102-4.492
	c0-2.655,0.307-5.412,1.021-7.964c0.714-2.552,1.735-5.104,3.267-7.249c0.817-1.122,1.734-2.144,2.654-3.063
	c1.021-0.919,1.94-1.736,3.063-2.552c1.123-0.817,2.246-1.531,3.471-2.042c1.226-0.511,2.552-0.714,3.88-1.124
	c0.715-0.102,1.327-0.408,2.042-0.612c0.612-0.307,1.327-0.307,1.94-0.307h1.021c0.409,0,0.715,0.103,1.123,0
	c0.715-0.102,1.429-0.102,2.144-0.102c1.43,0.102,2.859,0.409,4.39,0.613c1.226,0.306,2.553,0.714,3.777,1.225
	c1.226,0.612,2.247,1.328,3.369,2.144c1.124,0.818,2.247,1.634,3.165,2.552c1.021,1.021,1.94,2.042,2.655,3.166
	c0.816,1.021,1.633,2.246,2.042,3.471c0,0.409,0.103,0.715,0.204,1.021c0.102,0.306,0.307,0.612,0.511,0.918
	c0.205,0.612,0.307,1.327,0.408,1.939c0.306,1.532,0.511,2.961,0.613,4.391c0.101,1.429,0.101,2.859,0,4.288
	c0,0.612,0.101,1.225-0.103,1.736C50.028,37.307,49.62,37.715,49.211,38.123z"/>
<path fill="#FFFFFF" d="M111.286,80.287c-0.714,0.613-1.429,0.818-2.348,0.818c-1.021,0.101-2.042,0.101-3.063,0.101
	c-2.042,0.103-4.186,0.103-6.228,0c-0.919,0-1.939,0-2.858-0.203c-0.51-0.103-0.919-0.204-1.328-0.409
	c-0.204,0-0.306-0.102-0.51-0.307c-0.205-0.102-0.205-0.408-0.205-0.611c-0.101-1.021,0-2.042,0-3.063c0.102-1.021,0-1.94,0-2.96
	c-0.101-1.021,0-2.042,0-2.961c0-0.51,0-1.123-0.101-1.633c0-0.103,0-0.612-0.103-0.715c-0.101-0.102-0.51-0.102-0.613-0.102
	c-0.51-0.102-1.021-0.102-1.531-0.102h-1.634c-1.02,0-2.042-0.102-3.063-0.102h-1.429c-0.512,0-0.918-0.103-1.429-0.204
	c-0.918-0.103-1.94,0.102-2.858,0.204c-0.408,0-0.919,0-1.327,0.204c-0.102,0-0.205,0.102-0.205,0.102
	c-0.102,0.103-0.102,0.204-0.102,0.307c0.102,0.204,0.102,0.51,0.102,0.714c0,0.51,0.103,1.021,0.103,1.532
	c0,0.51,0,0.918-0.103,1.429c-0.205,2.042-0.102,4.083-0.205,6.125c0,0.817,0,1.735-0.612,2.246
	c-0.612,0.612-1.531,0.409-2.348,0.409c-2.042,0-11.741,0-12.149-0.103c-0.103,0-0.409,0-0.613-0.103
	c-0.102-0.102-0.102-0.408-0.204-0.613c-0.102-0.51,0-1.02,0.102-1.531v-1.531c0-2.042,0-4.083-0.102-6.125
	c0-2.042,0-4.084,0.204-6.126c0.205-2.042,0.102-4.083,0.102-6.125V43.331c0-0.511,0-1.021-0.102-1.531
	c-0.102-0.511-0.204-0.919-0.204-1.43c0.102-2.042,0.102-4.083,0.102-6.228c0-1.94,0-3.981,0.408-6.023
	c0.204-1.837,0.817-3.573,1.633-5.308l1.532-2.451c0.511-0.816,0.919-1.633,1.531-2.348c0.613-0.817,1.226-1.43,1.94-2.145
	l1.94-1.837c1.327-1.123,2.858-1.837,4.492-2.45c0.919-0.307,1.838-0.817,2.757-1.021c0.919-0.307,1.939-0.511,2.959-0.715
	c0.919-0.204,1.941-0.306,2.961-0.409c1.02-0.102,2.042-0.102,3.063-0.102c1.939,0.205,3.88,0.817,5.718,1.43
	c1.836,0.51,3.572,1.327,5.308,2.246c1.633,0.919,3.267,1.838,4.595,3.063c2.654,2.348,4.491,5.717,5.41,9.086
	c0.51,1.94,0.714,3.981,0.919,5.921c0.103,0.51,0.103,1.021,0.103,1.532c0.102,0.51,0.203,1.021,0.102,1.429l-0.306,3.062
	c-0.103,2.145,0,4.187,0,6.229v31.24C111.49,75.898,111.591,79.063,111.286,80.287z M94.542,54.151l0.306-8.371l0.205-4.084
	c0-0.613,0-1.328,0.103-1.94c0-0.714,0.102-1.429,0.102-2.042c0-0.714-0.102-1.43-0.205-2.042l-0.205-1.939
	c-0.102-1.123-0.407-2.145-0.815-3.166c-0.715-2.042-2.349-3.981-4.595-4.594c-1.124-0.307-2.45-0.307-3.676,0.102
	c-1.02,0.306-2.144,0.816-2.959,1.531c-0.715,0.612-1.327,1.327-1.634,2.246c-0.408,1.021-0.408,2.042-0.51,3.165
	c0,2.859-0.102,5.717,0,8.576v4.186c-0.102,1.429-0.102,2.858-0.102,4.186c0,0.714,0.102,1.429,0.102,2.143v1.021
	c0,0.306-0.102,0.51,0,0.817c0,0.203,0.203,0.408,0.408,0.51c0.409,0,0.715-0.103,1.124-0.103h2.042
	C87.702,54.356,91.071,54.151,94.542,54.151z"/>
<path fill="#FFFFFF" d="M157.639,10.252c1.326-0.102,2.652-0.306,3.981-0.306c1.326-0.103,2.553,0.204,3.878,0.101h5.82
	c0.203-0.101,0.306-0.101,0.512-0.101c0.203,0,0.203-0.103,0.306,0.101c0.203,0.205,0.306,0.409,0.409,0.716v2.042
	c0.1,0.714,0.1,1.429,0.1,2.144v12.864c0.103,5.717,0.103,11.332,0,17.049c0,2.858,0.103,5.615,0.103,8.474
	c0,1.429,0.103,2.858,0,4.186c0,1.43-0.103,2.757-0.202,4.186l-0.615,4.083c-0.203,1.328-0.409,2.655-0.814,3.981
	c-0.409,1.226-0.818,2.45-1.33,3.676c-0.508,1.123-1.021,2.246-1.838,3.062c-0.409,0.511-0.917,0.92-1.326,1.328l-1.124,1.326
	c-0.714,0.715-1.631,1.328-2.655,1.839c-0.917,0.511-2.04,0.816-3.061,1.122c-1.227,0.409-2.449,0.919-3.676,1.226
	c-0.714,0.204-1.326,0.408-1.941,0.511c-0.714,0.102-1.326,0.102-2.041,0.102c-1.326,0.103-2.656,0.103-3.981,0
	c-1.326-0.102-2.655-0.408-3.982-0.51c-1.225-0.205-2.45-0.307-3.676-0.715c-2.245-0.613-4.186-1.939-5.92-3.369l-2.553-2.449
	l-1.02-1.431c-0.308-0.51-0.613-1.021-1.022-1.429c-0.715-1.021-1.429-1.94-1.939-3.063l-0.613-1.736l-0.612-1.838
	c0-0.205-0.103-0.51-0.103-0.817v-0.918c0-0.306-0.102-0.51-0.306-0.715l-0.306-0.919l-0.205-1.735v-3.982
	c0-0.306-0.103-0.612-0.103-1.021c-0.102-0.306-0.102-0.613-0.102-0.918c0.102-0.715,0.204-1.328,0.102-2.042v-2.144
	c-0.102-2.757,0-5.615-0.102-8.474c0-2.756-0.102-5.615-0.102-8.473c0-1.328,0-2.757,0.102-4.083c0-0.715,0.204-1.328,0.204-2.042
	c0-0.612-0.103-1.327-0.103-1.939c0-1.43-0.203-2.859-0.102-4.289c0-0.612,0.102-1.328,0.204-2.042v-6.33
	c0-0.715,0-1.429,0.102-2.144v-0.918c0.103-0.205,0.205-0.205,0.308-0.307c0.202-0.103,0.305-0.204,0.51-0.204
	c1.02-0.511,2.144-0.817,3.369-0.613c0.307,0,0.613,0.102,0.918,0.102h3.063c1.328,0.103,2.655,0.205,3.981,0.205
	c0.715,0.103,1.328,0,1.941,0.103c0.714,0,1.326,0.204,1.939,0.305c0.102,0,0.306,0,0.409,0.103c0.205,0.102,0.102,0,0.205,0.102
	v0.307c0.102,0.305,0.203,0.612,0.203,1.02v14.906c0,2.756-0.102,5.615-0.203,8.372c0,1.429-0.103,2.858-0.103,4.186l-0.409,4.186
	c-0.102,2.858,0,5.615,0,8.473c0,2.451,0.103,4.901,0.919,7.249c0.613,1.94,1.838,3.472,3.677,4.391
	c2.246,1.124,4.696,1.327,6.942,0c0.814-0.51,1.529-1.225,2.041-2.042c0.512-1.021,0.715-2.144,0.818-3.267
	c0.306-1.429,0.409-2.756,0.508-4.083c0.206-1.43,0.103-2.859,0.31-4.186c0.305-2.859,0.202-5.615,0.202-8.474
	c0-2.757,0.103-5.615,0-8.372v-4.288c0-1.429-0.202-2.756-0.306-4.185c-0.103-2.859,0-5.616-0.206-8.474l-0.306-3.981
	c0-0.51,0-0.919,0.104-1.429C156.924,11.068,157.23,10.559,157.639,10.252z"/>
<path fill="#FFFFFF" d="M187.553,80.9c-0.103-0.816-0.206-1.633-0.103-2.348v-8.27c0-3.676,0.103-7.351,0.103-11.129
	c0-1.837,0-3.675,0.104-5.513c0.1-1.735,0-3.573,0-5.309c0-3.675,0-7.351-0.104-11.026c-0.305-7.351-0.206-14.599-0.206-21.95
	c0.103-0.919,0.103-1.838,0.103-2.757c0-0.408,0-0.817,0.103-1.123v-0.409h0.306l0.715-0.203c0.817-0.205,1.734-0.102,2.655-0.102
	c0.814,0,1.735,0.102,2.652,0.102c1.837,0,3.675,0.102,5.513,0.102c1.838,0,3.573-0.306,5.411-0.408h5.41
	c1.735,0,3.573,0.102,5.311,0.408c1.633,0.306,3.367,0.714,4.899,1.532c1.43,0.816,2.759,1.837,4.085,2.858
	c1.325,1.123,2.552,2.144,3.775,3.369c1.023,1.123,1.94,2.45,2.759,3.777c0.715,1.43,1.429,2.961,2.04,4.493l0.817,2.45l0.513,2.348
	c0.099,0.408,0.099,0.919,0.099,1.327l0.207,1.328l0.305,2.553c0.104,0.918,0,1.837,0,2.756c0,0.817,0.104,1.735,0.104,2.552
	c0.202,1.838,0.202,3.675,0.202,5.513c0,1.735,0.104,3.573-0.103,5.412c-0.203,1.735-0.409,3.47-0.715,5.104
	c-0.202,1.736-0.508,3.574-1.123,5.207c-1.123,2.961-2.346,5.819-4.081,8.372c-1.635,2.552-3.778,5.003-6.435,6.534
	c-1.326,0.714-2.651,1.226-4.081,1.735l-1.123,0.307c-0.512,0-0.921,0-1.43,0.102c-0.817,0.103-1.738,0.205-2.552,0.409
	c-0.409,0.103-0.818,0.203-1.33,0.203c-0.408,0.103-0.917,0-1.325,0c-0.918-0.101-1.734,0-2.655,0
	c-0.918,0.103-1.735,0.103-2.652,0.103c-0.409,0-0.921-0.103-1.33-0.103c-0.203-0.101-0.306-0.101-0.509,0
	c-0.305,0-0.512,0.103-0.816,0.103c-0.818,0-1.735,0-2.553-0.103c-0.917,0-1.838,0.103-2.755,0.103
	c-1.838,0.102-3.676,0-5.514-0.103L189.9,80.9H187.553z M203.785,69.058c0.715,0,1.43,0.204,2.247,0.204
	c0.714,0,1.531,0,2.347-0.204c1.531-0.306,2.961-1.021,4.39-1.736l0.921-0.612c0.306-0.306,0.509-0.715,0.715-1.124
	c0.508-0.714,0.917-1.429,1.325-2.246c0.715-1.633,1.124-3.267,1.533-5.002c0.305-1.735,0.408-3.47,0.508-5.206
	c0.103-1.837,0.103-3.676,0.103-5.615c0-1.838-0.103-3.675-0.202-5.513c0-0.919-0.104-1.837-0.207-2.756
	c-0.099-0.919-0.305-1.838-0.508-2.655c-0.103-0.919-0.103-1.736-0.306-2.552c-0.206-0.817-0.409-1.634-0.718-2.451
	c-0.611-1.531-1.326-2.96-2.347-4.288c-0.92-1.225-2.04-2.246-3.47-2.858c-0.718-0.204-1.433-0.408-2.144-0.51
	c-0.817-0.205-1.636-0.205-2.452-0.103l-1.224,0.204h-0.206l-0.099,0.102c-0.104,0-0.207,0-0.207,0.102v0.714
	c-0.202,0.919-0.202,1.634-0.104,2.553c0.206,1.838,0.104,3.676,0.104,5.513c0,3.778,0.103,7.555,0.103,11.231v5.615
	c0,1.939,0,3.777-0.206,5.615c0,0.51-0.099,0.919-0.099,1.429c-0.104,0.408,0,0.816,0,1.225c0.099,0.918,0.099,1.837,0.099,2.756
	l-0.202,5.615v1.328C203.479,68.241,203.682,68.649,203.785,69.058z"/>
<path fill="#FFF48F" d="M249.626,11.068c1.326-0.102,2.656-0.408,3.981-0.305c0.715,0,1.326,0.102,2.041,0.204h6.228
	c0.512,0,1.021,0,1.429,0.409l0.307,0.817l0.306,0.918l0.206,2.042c0,0.613,0.103,1.328,0,1.94c0,0.307-0.104,0.612-0.104,1.021
	c0,0.306,0.104,0.612,0.104,0.918l0.202,2.042v8.474c0,2.858,0,5.615,0.104,8.474v4.186c-0.104,0.307,0,0.612,0.103,0.919v1.021
	c0.104,0.715,0,1.429,0,2.144c-0.103,1.327,0.203,2.654,0.104,4.083c0,1.328-0.104,2.757-0.104,4.186l-0.206,8.474
	c0,2.756-0.1,5.615,0,8.473c0,1.328,0,2.757-0.1,4.186c-0.103,1.327-0.309,2.654-0.512,3.982c0,0.203,0,0.306-0.202,0.51
	l-0.207,0.204c-0.305,0.103-0.508,0.307-0.816,0.307c-0.509,0.204-1.021,0.204-1.633,0.204h-11.027c-0.202,0-0.715,0.103-1.02-0.102
	c-0.408-0.205-0.408-1.021-0.509-1.531v-6.229c0-2.858,0.101-5.717,0.101-8.474V47.618c0-0.612,0.103-1.327,0.103-2.042
	c0-0.306,0.103-0.612,0.103-0.817c0-0.409-0.103-0.714-0.103-1.123c-0.103-1.327,0.103-2.756,0.103-4.084
	c0-0.714-0.103-1.327-0.103-2.042v-2.143c0.103-1.328,0.103-2.757,0.103-4.186c0.1-5.615,0-11.231,0.203-16.948
	C248.809,13.111,248.809,11.988,249.626,11.068z"/>
<path fill="#FFFFFF" d="M325.79,80.287c-0.715,0.613-1.433,0.818-2.351,0.818c-1.02,0.101-2.04,0.101-3.063,0.101
	c-2.041,0.103-4.185,0.103-6.225,0c-0.921,0-1.941,0-2.861-0.203c-0.509-0.103-0.918-0.204-1.327-0.409
	c-0.202,0-0.306-0.102-0.508-0.307c-0.207-0.102-0.207-0.408-0.207-0.611c-0.103-1.021,0-2.042,0-3.063c0.104-1.021,0-1.94,0-2.96
	c-0.103-1.021,0-2.042,0-2.961c0-0.51,0-1.123-0.103-1.633c0-0.103,0-0.612-0.099-0.715c-0.104-0.102-0.512-0.102-0.615-0.102
	c-0.509-0.102-1.021-0.102-1.529-0.102h-1.635c-1.021,0-2.04-0.102-3.062-0.102h-1.433c-0.508,0-0.916-0.103-1.429-0.204
	c-0.917-0.103-1.938,0.102-2.857,0.204c-0.409,0-0.918,0-1.327,0.204c-0.103,0-0.206,0.102-0.206,0.102
	c-0.099,0.103-0.099,0.204-0.099,0.307c0.099,0.204,0.099,0.51,0.099,0.714c0,0.51,0.104,1.021,0.104,1.532
	c0,0.51,0,0.918-0.104,1.429c-0.202,2.042-0.099,4.083-0.202,6.125c0,0.817,0,1.735-0.611,2.246
	c-0.615,0.612-1.532,0.409-2.35,0.409c-2.041,0-11.738,0-12.147-0.103c-0.104,0-0.409,0-0.615-0.103
	c-0.1-0.102-0.1-0.408-0.202-0.613c-0.104-0.51,0-1.02,0.103-1.531v-1.531c0-2.042,0-4.083-0.103-6.125c0-2.042,0-4.084,0.202-6.126
	c0.206-2.042,0.104-4.083,0.104-6.125V43.331c0-0.511,0-1.021-0.104-1.531c-0.1-0.511-0.202-0.919-0.202-1.43
	c0.103-2.042,0.103-4.083,0.103-6.228c0-1.94,0-3.981,0.409-6.023c0.202-1.837,0.814-3.573,1.631-5.308l1.533-2.451
	c0.509-0.816,0.917-1.633,1.532-2.348c0.611-0.817,1.223-1.43,1.938-2.145l1.94-1.837c1.326-1.123,2.858-1.837,4.494-2.45
	c0.917-0.307,1.834-0.817,2.754-1.021c0.918-0.307,1.941-0.511,2.962-0.715c0.917-0.204,1.938-0.306,2.961-0.409
	c1.021-0.102,2.041-0.102,3.061-0.102c1.941,0.205,3.879,0.817,5.717,1.43c1.838,0.51,3.576,1.327,5.311,2.246
	c1.633,0.919,3.268,1.838,4.594,3.063c2.655,2.348,4.493,5.717,5.41,9.086c0.513,1.94,0.714,3.981,0.921,5.921
	c0.1,0.51,0.1,1.021,0.1,1.532c0.103,0.51,0.207,1.021,0.103,1.429l-0.305,3.062c-0.104,2.145,0,4.187,0,6.229v31.24
	C325.993,75.898,326.096,79.063,325.79,80.287z M309.047,54.151l0.305-8.371l0.203-4.084c0-0.613,0-1.328,0.103-1.94
	c0-0.714,0.104-1.429,0.104-2.042c0-0.714-0.104-1.43-0.206-2.042l-0.203-1.939c-0.104-1.123-0.408-2.145-0.816-3.166
	c-0.715-2.042-2.347-3.981-4.594-4.594c-1.123-0.307-2.453-0.307-3.676,0.102c-1.021,0.306-2.144,0.816-2.961,1.531
	c-0.715,0.612-1.326,1.327-1.633,2.246c-0.407,1.021-0.407,2.042-0.512,3.165c0,2.859-0.103,5.717,0,8.576v4.186
	c-0.103,1.429-0.103,2.858-0.103,4.186c0,0.714,0.103,1.429,0.103,2.143v1.021c0,0.306-0.103,0.51,0,0.817
	c0,0.203,0.203,0.408,0.409,0.51c0.409,0,0.715-0.103,1.123-0.103h2.041C302.206,54.356,305.573,54.151,309.047,54.151z"/>
<g>
	<g>
		<path fill="#FFF48F" d="M341.021,26.999c-0.084-1.262-0.339-2.525-0.253-3.789c0-0.679,0.083-1.261,0.169-1.941v-5.926
			c0-0.487,0-0.971,0.339-1.36l0.68-0.291l0.764-0.292l1.692-0.195c0.512,0,1.103-0.098,1.615,0c0.252,0,0.506,0.098,0.845,0.098
			c0.255,0,0.508-0.098,0.764-0.098l1.695-0.194h7.035c2.374,0,4.66,0,7.036-0.096h3.477c0.252,0.096,0.509,0,0.761-0.098h0.848
			c0.592-0.097,1.187,0,1.781,0c1.1,0.098,2.203-0.193,3.39-0.097c1.104,0,2.29,0.097,3.474,0.097l7.036,0.194
			c2.289,0,4.666,0.096,7.038,0c1.101,0,2.287,0,3.473,0.096c1.104,0.098,2.204,0.293,3.308,0.487c0.17,0,0.256,0,0.425,0.194
			l0.166,0.194c0.087,0.291,0.257,0.486,0.257,0.777c0.169,0.485,0.169,0.972,0.169,1.553v10.493c0,0.193,0.087,0.68-0.087,0.97
			c-0.166,0.389-0.844,0.389-1.269,0.485h-5.171c-2.374,0-4.746-0.096-7.036-0.096h-14.072c-0.508,0-1.1-0.098-1.694-0.098
			c-0.256,0-0.508-0.098-0.678-0.098c-0.339,0-0.592,0.098-0.935,0.098c-1.1,0.098-2.286-0.098-3.39-0.098
			c-0.592,0-1.101,0.098-1.694,0.098h-1.778c-1.104-0.098-2.29-0.098-3.478-0.098c-4.662-0.096-9.325,0-14.072-0.193
			C342.72,27.776,341.786,27.776,341.021,26.999z"/>
	</g>
</g>
<g>
	<g>
		<path fill="#FFF48F" d="M341.021,53.099c-0.084-1.262-0.339-2.524-0.253-3.787c0-0.681,0.083-1.263,0.169-1.943v-5.926
			c0-0.487,0-0.971,0.339-1.359l0.68-0.292l0.764-0.292l1.692-0.195c0.512,0,1.103-0.098,1.615,0c0.252,0,0.506,0.098,0.845,0.098
			c0.255,0,0.508-0.098,0.764-0.098l1.695-0.194h7.035c2.374,0,4.66,0,7.036-0.097h3.477c0.252,0.097,0.509,0,0.761-0.098h0.848
			c0.592-0.096,1.187,0,1.781,0c1.1,0.098,2.203-0.192,3.39-0.096c1.104,0,2.29,0.096,3.474,0.096l7.036,0.194
			c2.289,0,4.666,0.096,7.038,0c1.101,0,2.287,0,3.473,0.096c1.104,0.098,2.204,0.293,3.308,0.487c0.17,0,0.256,0,0.425,0.194
			l0.166,0.196c0.087,0.291,0.257,0.485,0.257,0.776c0.169,0.485,0.169,0.972,0.169,1.554v10.492c0,0.193,0.087,0.68-0.087,0.972
			c-0.166,0.389-0.844,0.389-1.269,0.486h-5.171c-2.374,0-4.746-0.097-7.036-0.097h-14.072c-0.508,0-1.1-0.1-1.694-0.1
			c-0.256,0-0.508-0.097-0.678-0.097c-0.339,0-0.592,0.097-0.935,0.097c-1.1,0.1-2.286-0.097-3.39-0.097
			c-0.592,0-1.101,0.097-1.694,0.097h-1.778c-1.104-0.097-2.29-0.097-3.478-0.097c-4.662-0.096-9.325,0-14.072-0.193
			C342.72,53.878,341.786,53.878,341.021,53.099z"/>
	</g>
</g>
<g>
	<g>
		<path fill="#FFF48F" d="M341.021,78.613c-0.084-1.262-0.339-2.525-0.253-3.789c0-0.68,0.083-1.261,0.169-1.942v-5.926
			c0-0.487,0-0.971,0.339-1.359l0.68-0.291l0.764-0.293l1.692-0.194c0.512,0,1.103-0.098,1.615,0c0.252,0,0.506,0.098,0.845,0.098
			c0.255,0,0.508-0.098,0.764-0.098l1.695-0.196h7.035c2.374,0,4.66,0,7.036-0.096h3.477c0.252,0.096,0.509,0,0.761-0.097h0.848
			c0.592-0.096,1.187,0,1.781,0c1.1,0.097,2.203-0.193,3.39-0.096c1.104,0,2.29,0.096,3.474,0.096l7.036,0.193
			c2.289,0,4.666,0.098,7.038,0c1.101,0,2.287,0,3.473,0.098c1.104,0.098,2.204,0.292,3.308,0.487c0.17,0,0.256,0,0.425,0.194
			l0.166,0.195c0.087,0.291,0.257,0.485,0.257,0.776c0.169,0.485,0.169,0.972,0.169,1.553v10.493c0,0.194,0.087,0.681-0.087,0.972
			c-0.166,0.389-0.844,0.389-1.269,0.485h-5.171c-2.374,0-4.746-0.097-7.036-0.097h-14.072c-0.508,0-1.1-0.098-1.694-0.098
			c-0.256,0-0.508-0.098-0.678-0.098c-0.339,0-0.592,0.098-0.935,0.098c-1.1,0.098-2.286-0.098-3.39-0.098
			c-0.592,0-1.101,0.098-1.694,0.098h-1.778c-1.104-0.098-2.29-0.098-3.478-0.098c-4.662-0.097-9.325,0-14.072-0.193
			C342.72,79.391,341.786,79.391,341.021,78.613z"/>
	</g>
</g>
<g>
	<path fill="#FFFFFF" d="M10.244,129.733l-5.546-17.311h4.289l2.105,7.32c0.591,2.054,1.13,4.031,1.542,6.188h0.076
		c0.438-2.079,0.977-4.135,1.567-6.112l2.208-7.396h4.16l-5.83,17.311H10.244z"/>
	<path fill="#FFFFFF" d="M38.775,120.897c0,5.678-3.44,9.116-8.499,9.116c-5.136,0-8.141-3.877-8.141-8.807
		c0-5.188,3.312-9.065,8.422-9.065C35.874,112.142,38.775,116.122,38.775,120.897z M26.27,121.129c0,3.389,1.592,5.779,4.211,5.779
		c2.646,0,4.16-2.52,4.16-5.882c0-3.106-1.489-5.778-4.185-5.778C27.811,115.248,26.27,117.767,26.27,121.129z"/>
	<path fill="#FFFFFF" d="M44.609,115.709H39.96v-3.286h13.301v3.286h-4.724v14.024h-3.929V115.709z"/>
	<path fill="#FFFFFF" d="M55.986,112.654c1.258-0.204,3.133-0.359,5.214-0.359c2.567,0,4.365,0.386,5.598,1.363
		c1.027,0.82,1.592,2.028,1.592,3.62c0,2.208-1.566,3.722-3.056,4.262v0.077c1.207,0.488,1.875,1.645,2.31,3.233
		c0.54,1.954,1.079,4.214,1.413,4.883h-4.006c-0.282-0.49-0.693-1.901-1.206-4.033c-0.463-2.156-1.207-2.748-2.799-2.772h-1.182
		v6.806h-3.878V112.654z M59.864,120.102h1.541c1.951,0,3.107-0.976,3.107-2.489c0-1.594-1.079-2.391-2.876-2.415
		c-0.95,0-1.489,0.078-1.772,0.13V120.102z"/>
	<path fill="#FFFFFF" d="M82.154,122.413h-6.368v4.108h7.113v3.212H71.857v-17.311H82.54v3.213h-6.753v3.592h6.368V122.413z"/>
	<path fill="#FFFFFF" d="M96.538,112.654c1.208-0.204,2.902-0.359,5.29-0.359c2.415,0,4.135,0.461,5.29,1.389
		c1.105,0.872,1.85,2.311,1.85,4.003c0,1.697-0.566,3.136-1.593,4.11c-1.334,1.258-3.313,1.823-5.623,1.823
		c-0.513,0-0.976-0.024-1.336-0.076v6.189h-3.878V112.654z M100.416,120.513c0.334,0.076,0.746,0.103,1.309,0.103
		c2.081,0,3.365-1.051,3.365-2.824c0-1.593-1.104-2.543-3.057-2.543c-0.795,0-1.335,0.079-1.618,0.155V120.513z"/>
	<path fill="#FFFFFF" d="M112.102,112.423h3.929v14.022h6.882v3.288h-10.811V112.423z"/>
	<path fill="#FFFFFF" d="M130.052,125.289l-1.232,4.444h-4.056l5.288-17.311h5.136l5.366,17.311h-4.211l-1.334-4.444H130.052z
		 M134.444,122.362l-1.079-3.672c-0.309-1.028-0.616-2.312-0.873-3.34h-0.051c-0.258,1.028-0.514,2.336-0.797,3.34l-1.026,3.672
		H134.444z"/>
	<path fill="#FFFFFF" d="M144.716,115.709h-4.648v-3.286h13.303v3.286h-4.726v14.024h-3.928V115.709z"/>
	<path fill="#FFFFFF" d="M166.391,122.413h-6.369v4.108h7.113v3.212h-11.042v-17.311h10.683v3.213h-6.754v3.592h6.369V122.413z"/>
	<path fill="#FFFFFF" d="M170.45,112.423h10.58v3.213h-6.651v3.952h6.214v3.186h-6.214v6.96h-3.929V112.423z"/>
	<path fill="#FFFFFF" d="M200.471,120.897c0,5.678-3.441,9.116-8.5,9.116c-5.137,0-8.14-3.877-8.14-8.807
		c0-5.188,3.312-9.065,8.422-9.065C197.57,112.142,200.471,116.122,200.471,120.897z M187.965,121.129
		c0,3.389,1.592,5.779,4.213,5.779c2.644,0,4.16-2.52,4.16-5.882c0-3.106-1.491-5.778-4.187-5.778
		C189.506,115.248,187.965,117.767,187.965,121.129z"/>
	<path fill="#FFFFFF" d="M203.685,112.654c1.257-0.204,3.133-0.359,5.211-0.359c2.57,0,4.366,0.386,5.599,1.363
		c1.027,0.82,1.594,2.028,1.594,3.62c0,2.208-1.569,3.722-3.057,4.262v0.077c1.205,0.488,1.874,1.645,2.311,3.233
		c0.54,1.954,1.079,4.214,1.412,4.883h-4.005c-0.283-0.49-0.695-1.901-1.208-4.033c-0.463-2.156-1.207-2.748-2.799-2.772h-1.18
		v6.806h-3.878V112.654z M207.563,120.102h1.539c1.952,0,3.109-0.976,3.109-2.489c0-1.594-1.08-2.391-2.879-2.415
		c-0.95,0-1.488,0.078-1.77,0.13V120.102z"/>
	<path fill="#FFFFFF" d="M234.194,123.105c-0.077-2.079-0.155-4.597-0.155-7.111h-0.076c-0.539,2.207-1.258,4.672-1.926,6.703
		l-2.106,6.75h-3.056l-1.848-6.701c-0.564-2.028-1.155-4.493-1.565-6.752h-0.052c-0.104,2.338-0.18,5.006-0.309,7.165l-0.31,6.574
		h-3.619l1.104-17.311h5.211l1.695,5.778c0.539,2.003,1.079,4.161,1.465,6.188h0.076c0.487-2.003,1.079-4.287,1.644-6.214
		l1.85-5.752h5.109l0.949,17.311h-3.826L234.194,123.105z"/>
	<path fill="#FFFFFF" d="M252.225,122.413h-6.369v4.108h7.114v3.212h-11.044v-17.311h10.685v3.213h-6.755v3.592h6.369V122.413z"/>
	<path fill="#FFFFFF" d="M266.608,112.654c1.439-0.231,3.313-0.359,5.291-0.359c3.285,0,5.419,0.591,7.085,1.85
		c1.8,1.335,2.929,3.468,2.929,6.521c0,3.313-1.206,5.598-2.877,7.012c-1.823,1.513-4.596,2.232-7.986,2.232
		c-2.027,0-3.465-0.129-4.441-0.256V112.654z M270.537,126.778c0.335,0.077,0.873,0.077,1.362,0.077
		c3.543,0.026,5.854-1.924,5.854-6.06c0.027-3.596-2.08-5.494-5.444-5.494c-0.872,0-1.437,0.076-1.771,0.152V126.778z"/>
	<path fill="#FFFFFF" d="M295.424,122.413h-6.369v4.108h7.113v3.212h-11.043v-17.311h10.683v3.213h-6.753v3.592h6.369V122.413z"/>
	<path fill="#FFFFFF" d="M309.807,112.423h3.93v14.022h6.881v3.288h-10.811V112.423z"/>
	<path fill="#FFFFFF" d="M338.44,120.897c0,5.678-3.441,9.116-8.5,9.116c-5.135,0-8.139-3.877-8.139-8.807
		c0-5.188,3.312-9.065,8.422-9.065C335.539,112.142,338.44,116.122,338.44,120.897z M325.935,121.129
		c0,3.389,1.592,5.779,4.211,5.779c2.645,0,4.161-2.52,4.161-5.882c0-3.106-1.49-5.778-4.186-5.778
		C327.475,115.248,325.935,117.767,325.935,121.129z"/>
	<path fill="#FFFFFF" d="M345.583,112.423v17.311h-3.93v-17.311H345.583z"/>
	<path fill="#FFFFFF" d="M349.744,125.7c1.054,0.538,2.669,1.078,4.34,1.078c1.795,0,2.745-0.745,2.745-1.874
		c0-1.079-0.821-1.695-2.9-2.438c-2.874-1.003-4.749-2.595-4.749-5.111c0-2.954,2.466-5.213,6.548-5.213
		c1.949,0,3.389,0.41,4.414,0.872l-0.87,3.159c-0.696-0.334-1.928-0.822-3.623-0.822c-1.693,0-2.517,0.771-2.517,1.67
		c0,1.105,0.979,1.593,3.209,2.439c3.056,1.129,4.494,2.723,4.494,5.161c0,2.902-2.233,5.367-6.983,5.367
		c-1.976,0-3.929-0.514-4.906-1.054L349.744,125.7z"/>
	<path fill="#FFFFFF" d="M368.053,112.423v17.311h-3.927v-17.311H368.053z"/>
	<path fill="#FFFFFF" d="M372.089,112.654c1.257-0.204,3.132-0.359,5.211-0.359c2.571,0,4.366,0.386,5.601,1.363
		c1.026,0.82,1.591,2.028,1.591,3.62c0,2.208-1.568,3.722-3.056,4.262v0.077c1.207,0.488,1.873,1.645,2.31,3.233
		c0.542,1.954,1.08,4.214,1.412,4.883h-4.002c-0.286-0.49-0.696-1.901-1.208-4.033c-0.463-2.156-1.209-2.748-2.801-2.772h-1.18
		v6.806h-3.878V112.654z M375.967,120.102h1.54c1.952,0,3.107-0.976,3.107-2.489c0-1.594-1.081-2.391-2.875-2.415
		c-0.952,0-1.491,0.078-1.772,0.13V120.102z"/>
	<path fill="#FFFFFF" d="M388.087,125.7c1.053,0.538,2.671,1.078,4.341,1.078c1.797,0,2.749-0.745,2.749-1.874
		c0-1.079-0.822-1.695-2.901-2.438c-2.877-1.003-4.752-2.595-4.752-5.111c0-2.954,2.465-5.213,6.547-5.213
		c1.954,0,3.39,0.41,4.42,0.872l-0.875,3.159c-0.692-0.334-1.928-0.822-3.62-0.822c-1.696,0-2.519,0.771-2.519,1.67
		c0,1.105,0.978,1.593,3.211,2.439c3.056,1.129,4.495,2.723,4.495,5.161c0,2.902-2.233,5.367-6.985,5.367
		c-1.978,0-3.927-0.514-4.903-1.054L388.087,125.7z"/>
</g>
</svg>
