<?xml version="1.0" encoding="utf-8"?>
<!-- Generator: Adobe Illustrator 16.0.0, SVG Export Plug-In . SVG Version: 6.00 Build 0)  -->
<!DOCTYPE svg PUBLIC "-//W3C//DTD SVG 1.1//EN" "http://www.w3.org/Graphics/SVG/1.1/DTD/svg11.dtd">
<svg version="1.1" id="Calque_1" xmlns="http://www.w3.org/2000/svg" xmlns:xlink="http://www.w3.org/1999/xlink" x="0px" y="0px"
	 width="300px" height="57.333px" viewBox="0 0 300 57.333" enable-background="new 0 0 300 57.333" xml:space="preserve">
<path fill="#FFFFFF" d="M36.063,21.699c-2.308,0.154-4.54,0.077-6.771,0.077h-3.463c-0.692,0-1.693,0.077-1.77-0.847
	c-0.076-1.077,0.309-2.154,0.386-3.231c0-1.001-0.077-2.078-0.616-2.925c-0.462-0.846-1.308-1.384-2.155-1.846
	c-0.846-0.462-1.769-0.616-2.692-0.539c-1,0.077-1.771,0.462-2.462,1.154c-0.616,0.616-1.155,1.308-1.54,2.078
	c-0.385,0.847-0.539,1.847-0.692,2.771c-0.154,1.154-0.231,2.231-0.308,3.385c-0.077,2.231,0,4.54,0,6.771
	c0,2.308,0,4.54,0.23,6.848c0,0.538,0.078,1.077,0.154,1.615c0.077,0.539,0.308,1.077,0.385,1.616c0.154,1,0.077,2.001,0.539,2.924
	c0.462,0.77,1.077,1.461,1.847,1.77c0.923,0.461,2.077,0.616,3.078,0.539c0.923-0.078,1.847-0.308,2.54-0.923
	c0.615-0.54,0.923-1.385,1.154-2.232c0.23-1,0.23-2.078,0.23-3.077v-0.155c0-0.153,0-0.075-0.077-0.075
	c-0.076-0.078-0.307-0.078-0.384-0.078c-0.231-0.078-0.538-0.078-0.847-0.078h-1.615c-0.462-0.076-1-0.153-1.308-0.461
	c-0.308-0.386-0.308-0.847-0.308-1.308c-0.077-1.077,0.077-2.232,0.077-3.309c0-0.308,0-0.538-0.077-0.847
	c0-0.308-0.077-0.538-0.154-0.846c-0.077-0.539-0.077-1.077,0-1.617c0.077-0.769,0.154-1.923,1.154-2c0.539-0.077,1.077,0,1.616,0
	c0.615-0.077,1.154-0.077,1.77-0.077c1.154,0,2.231-0.077,3.385-0.154c1.077-0.077,2.154-0.077,3.309,0
	c1.077,0.154,2.231,0.231,3.309,0.308c0.847,0.077,1.693-0.077,2.54,0.23c0.461,0.154,0.846,0.461,1.077,0.923
	c0.308,0.693,0.231,1.539,0.154,2.308c0,1.077-0.077,2.231-0.23,3.387c0,0.538,0.076,1.077,0.153,1.615
	c0,0.538-0.077,1.155-0.077,1.693l-0.231,3.385c-0.154,2.078-0.308,4.232-1,6.156c-0.615,2-1.692,3.617-3.078,5.077
	c-0.692,0.694-1.462,1.385-2.308,1.924s-1.847,0.847-2.77,1.232c-1.001,0.308-2.001,0.615-3.001,0.846
	c-1.078,0.231-2.155,0.308-3.309,0.384l-3.386,0.231c-0.538,0-1.154,0.077-1.692,0.077l-1.539-0.23l-0.769-0.154
	c-0.231,0-0.539,0-0.77-0.154l-1.462-0.461c-0.923-0.308-1.846-0.694-2.77-1.155c-1.692-0.847-3.232-2.001-4.463-3.462
	c-0.615-0.77-1.077-1.54-1.461-2.386c-0.462-0.923-1.001-1.847-1.385-2.771c-0.385-1-0.693-2-0.77-3
	c-0.154-1.154-0.077-2.23-0.154-3.386c-0.077-4.54,0.077-9.08,0.231-13.696c0-1.077,0.077-2.231,0.154-3.309
	c0.077-1.154,0-2.308-0.077-3.385c0-2.001,0.231-4.079,0.77-6.002c0.538-1.923,1.307-3.847,2.462-5.463
	c0.616-0.846,1.308-1.616,2-2.309C7.593,4.386,8.286,3.77,9.132,3.155c0.846-0.616,1.692-1.154,2.616-1.539
	c0.923-0.385,1.924-0.539,2.924-0.847c0.539-0.077,1-0.308,1.539-0.461c0.462-0.231,1-0.231,1.462-0.231h0.769
	c0.309,0,0.54,0.077,0.847,0C19.828,0,20.366,0,20.904,0c1.078,0.077,2.155,0.308,3.309,0.462c0.924,0.231,1.924,0.539,2.847,0.923
	c0.924,0.461,1.693,1,2.539,1.616c0.847,0.616,1.694,1.231,2.386,1.923c0.77,0.77,1.462,1.54,2,2.386
	c0.616,0.769,1.231,1.692,1.54,2.616c0,0.308,0.077,0.538,0.153,0.77c0.077,0.231,0.231,0.461,0.385,0.692
	c0.154,0.462,0.231,1,0.308,1.462c0.231,1.155,0.385,2.232,0.462,3.309c0.076,1.077,0.076,2.155,0,3.232
	c0,0.461,0.076,0.922-0.077,1.308C36.679,21.083,36.371,21.391,36.063,21.699z"/>
<path fill="#FFFFFF" d="M82.848,53.478c-0.539,0.461-1.077,0.616-1.77,0.616c-0.771,0.075-1.539,0.075-2.308,0.075
	c-1.54,0.078-3.155,0.078-4.694,0c-0.692,0-1.462,0-2.154-0.153c-0.385-0.078-0.693-0.154-1.001-0.308
	c-0.154,0-0.23-0.078-0.385-0.23c-0.154-0.078-0.154-0.308-0.154-0.462c-0.077-0.771,0-1.539,0-2.309c0.076-0.769,0-1.462,0-2.231
	c-0.077-0.769,0-1.539,0-2.232c0-0.384,0-0.846-0.077-1.23c0-0.078,0-0.462-0.078-0.539c-0.076-0.078-0.384-0.078-0.462-0.078
	c-0.385-0.078-0.769-0.078-1.153-0.078h-1.231c-0.77,0-1.54-0.075-2.309-0.075h-1.077c-0.386,0-0.692-0.078-1.077-0.155
	c-0.692-0.076-1.462,0.078-2.154,0.155c-0.308,0-0.693,0-1,0.153c-0.077,0-0.154,0.078-0.154,0.078
	c-0.077,0.076-0.077,0.153-0.077,0.23c0.077,0.153,0.077,0.385,0.077,0.539c0,0.384,0.078,0.769,0.078,1.155
	c0,0.383,0,0.691-0.078,1.077c-0.154,1.538-0.077,3.077-0.154,4.616c0,0.617,0,1.308-0.461,1.693
	c-0.461,0.461-1.154,0.308-1.77,0.308c-1.539,0-8.849,0-9.156-0.078c-0.077,0-0.308,0-0.462-0.078
	c-0.076-0.076-0.076-0.308-0.154-0.461c-0.077-0.386,0-0.769,0.078-1.155v-1.155c0-1.538,0-3.077-0.078-4.616
	c0-1.538,0-3.078,0.154-4.617c0.154-1.538,0.077-3.079,0.077-4.616V25.624c0-0.385,0-0.77-0.077-1.154
	c-0.076-0.385-0.154-0.693-0.154-1.078c0.078-1.539,0.078-3.078,0.078-4.693c0-1.462,0-3.001,0.307-4.54
	c0.154-1.384,0.615-2.693,1.231-4.001l1.154-1.847c0.385-0.616,0.693-1.231,1.154-1.77c0.462-0.616,0.924-1.078,1.462-1.617
	l1.462-1.384c1-0.847,2.154-1.385,3.385-1.847c0.692-0.231,1.385-0.616,2.078-0.77c0.692-0.231,1.461-0.386,2.231-0.539
	c0.692-0.154,1.462-0.231,2.231-0.308C64.996,0,65.766,0,66.535,0c1.461,0.154,2.924,0.616,4.31,1.078c1.384,0.384,2.692,1,4,1.693
	c1.231,0.692,2.462,1.385,3.463,2.308c2,1.77,3.385,4.309,4.078,6.848c0.385,1.462,0.539,3.001,0.693,4.463
	c0.078,0.384,0.078,0.77,0.078,1.154c0.077,0.384,0.153,0.77,0.077,1.077l-0.23,2.308c-0.078,1.616,0,3.155,0,4.694v23.546
	C83.002,50.169,83.078,52.554,82.848,53.478z M70.228,33.78l0.23-6.31l0.154-3.078c0-0.462,0-1,0.078-1.462
	c0-0.539,0.077-1.077,0.077-1.539c0-0.538-0.077-1.078-0.155-1.539l-0.154-1.461c-0.076-0.847-0.307-1.616-0.615-2.386
	c-0.539-1.538-1.77-3-3.463-3.462c-0.847-0.231-1.846-0.231-2.771,0.077c-0.769,0.231-1.615,0.616-2.23,1.154
	c-0.539,0.462-1,1-1.231,1.693c-0.308,0.77-0.308,1.539-0.385,2.385c0,2.155-0.077,4.309,0,6.464v3.155
	c-0.077,1.077-0.077,2.154-0.077,3.155c0,0.539,0.077,1.077,0.077,1.616v0.77c0,0.23-0.077,0.383,0,0.615
	c0,0.155,0.153,0.307,0.308,0.385c0.308,0,0.538-0.078,0.847-0.078h1.539C65.073,33.933,67.612,33.78,70.228,33.78z"/>
<path fill="#FFFFFF" d="M117.783,0.693c1.001-0.077,2-0.231,3.001-0.231c1.001-0.077,1.924,0.154,2.924,0.076h4.386
	c0.153-0.076,0.231-0.076,0.385-0.076c0.154,0,0.154-0.077,0.23,0.076c0.154,0.155,0.23,0.309,0.308,0.54v1.539
	c0.076,0.539,0.076,1.077,0.076,1.616v9.696c0.078,4.309,0.078,8.541,0,12.85c0,2.154,0.078,4.232,0.078,6.386
	c0,1.077,0.077,2.154,0,3.155c0,1.078-0.078,2.078-0.154,3.155l-0.462,3.078c-0.154,1-0.308,2-0.615,3.001
	c-0.308,0.923-0.616,1.846-1,2.771c-0.385,0.846-0.769,1.692-1.385,2.307c-0.308,0.385-0.693,0.693-1.001,1.002l-0.845,1
	c-0.539,0.538-1.231,0.999-2.001,1.385c-0.693,0.384-1.54,0.616-2.308,0.847c-0.923,0.308-1.846,0.691-2.771,0.923
	c-0.538,0.154-0.999,0.307-1.461,0.385c-0.539,0.078-1,0.078-1.539,0.078c-1,0.076-2,0.076-3,0c-1-0.078-2-0.308-3.001-0.386
	c-0.923-0.153-1.847-0.23-2.771-0.539c-1.691-0.461-3.154-1.461-4.462-2.539l-1.923-1.848L97.7,49.861
	c-0.231-0.384-0.462-0.769-0.771-1.077c-0.538-0.769-1.077-1.462-1.461-2.308l-0.462-1.309l-0.46-1.385
	c0-0.153-0.078-0.383-0.078-0.615v-0.693c0-0.23-0.077-0.384-0.23-0.539l-0.23-0.692l-0.154-1.309v-3.001
	c0-0.23-0.078-0.46-0.078-0.769c-0.076-0.231-0.076-0.461-0.076-0.691c0.076-0.539,0.154-1.002,0.076-1.541v-1.616
	c-0.076-2.077,0-4.231-0.076-6.386c0-2.077-0.077-4.231-0.077-6.386c0-1,0-2.078,0.077-3.078c0-0.539,0.154-1,0.154-1.539
	c0-0.461-0.078-1-0.078-1.462c0-1.078-0.153-2.155-0.076-3.232c0-0.461,0.076-1,0.154-1.539v-4.77c0-0.539,0-1.077,0.076-1.616
	V1.616c0.078-0.154,0.155-0.154,0.232-0.231c0.153-0.077,0.23-0.154,0.384-0.154c0.769-0.384,1.616-0.615,2.539-0.461
	c0.232,0,0.462,0.077,0.693,0.077h2.308c1,0.077,2.001,0.154,3.001,0.154c0.538,0.077,1,0,1.462,0.077c0.539,0,1,0.153,1.461,0.23
	c0.077,0,0.231,0,0.309,0.077c0.154,0.077,0.076,0,0.154,0.077v0.231c0.077,0.23,0.153,0.461,0.153,0.769v11.234
	c0,2.078-0.076,4.232-0.153,6.31c0,1.077-0.078,2.154-0.078,3.155l-0.308,3.155c-0.077,2.154,0,4.233,0,6.387
	c0,1.846,0.078,3.692,0.692,5.463c0.463,1.461,1.385,2.615,2.771,3.309c1.693,0.847,3.539,1,5.232,0
	c0.615-0.386,1.154-0.924,1.54-1.541c0.384-0.769,0.539-1.615,0.615-2.462c0.231-1.077,0.309-2.077,0.385-3.076
	c0.154-1.078,0.078-2.155,0.232-3.156c0.23-2.154,0.152-4.231,0.152-6.386c0-2.077,0.078-4.231,0-6.309v-3.232
	c0-1.077-0.152-2.078-0.23-3.155c-0.077-2.155,0-4.232-0.154-6.387l-0.23-3c0-0.385,0-0.693,0.077-1.077
	C117.245,1.308,117.475,0.924,117.783,0.693z"/>
<path fill="#FFFFFF" d="M140.33,53.939c-0.078-0.615-0.155-1.229-0.078-1.769v-6.233c0-2.771,0.078-5.54,0.078-8.388
	c0-1.385,0-2.771,0.078-4.156c0.076-1.308,0-2.692,0-4c0-2.771,0-5.54-0.078-8.311c-0.23-5.54-0.155-11.003-0.155-16.543
	c0.078-0.693,0.078-1.385,0.078-2.078c0-0.308,0-0.616,0.078-0.846V1.308h0.231l0.538-0.153c0.616-0.154,1.308-0.077,2.001-0.077
	c0.614,0,1.308,0.077,1.999,0.077c1.385,0,2.77,0.076,4.156,0.076c1.385,0,2.692-0.23,4.078-0.307h4.077
	c1.308,0,2.693,0.077,4.003,0.307c1.229,0.231,2.537,0.539,3.691,1.155c1.078,0.615,2.08,1.384,3.079,2.154
	c1,0.847,1.924,1.616,2.846,2.539c0.771,0.846,1.463,1.847,2.079,2.847c0.539,1.078,1.077,2.231,1.538,3.386l0.616,1.847l0.386,1.77
	c0.074,0.308,0.074,0.693,0.074,1l0.155,1.001l0.231,1.924c0.077,0.691,0,1.384,0,2.077c0,0.615,0.077,1.308,0.077,1.923
	c0.152,1.386,0.152,2.77,0.152,4.155c0,1.308,0.078,2.693-0.077,4.079c-0.152,1.309-0.308,2.616-0.539,3.846
	c-0.152,1.31-0.382,2.694-0.847,3.925c-0.847,2.232-1.768,4.386-3.075,6.31c-1.232,1.923-2.849,3.77-4.85,4.924
	c-1,0.539-1.999,0.923-3.075,1.308l-0.848,0.23c-0.386,0-0.693,0-1.077,0.078c-0.616,0.078-1.31,0.154-1.924,0.308
	c-0.308,0.078-0.615,0.153-1.002,0.153c-0.308,0.078-0.691,0-0.999,0c-0.691-0.075-1.308,0-2.002,0
	c-0.691,0.078-1.307,0.078-1.998,0.078c-0.309,0-0.693-0.078-1.003-0.078c-0.152-0.075-0.229-0.075-0.382,0
	c-0.231,0-0.387,0.078-0.617,0.078c-0.616,0-1.307,0-1.923-0.078c-0.691,0-1.385,0.078-2.077,0.078c-1.385,0.078-2.77,0-4.155-0.078
	l-1.771-0.23H140.33z M152.563,45.014c0.538,0,1.077,0.153,1.693,0.153c0.539,0,1.154,0,1.768-0.153
	c1.155-0.23,2.232-0.769,3.31-1.309l0.693-0.462c0.231-0.23,0.384-0.538,0.539-0.847c0.384-0.539,0.691-1.077,1-1.692
	c0.538-1.231,0.847-2.462,1.154-3.771c0.229-1.307,0.308-2.615,0.384-3.922c0.077-1.385,0.077-2.771,0.077-4.232
	c0-1.385-0.077-2.77-0.153-4.156c0-0.692-0.078-1.384-0.155-2.077c-0.075-0.692-0.23-1.385-0.383-2
	c-0.077-0.693-0.077-1.309-0.23-1.924c-0.155-0.616-0.309-1.231-0.541-1.847c-0.461-1.154-0.999-2.231-1.768-3.232
	c-0.694-0.923-1.539-1.692-2.616-2.154c-0.54-0.154-1.079-0.308-1.615-0.384c-0.616-0.154-1.232-0.154-1.849-0.077l-0.922,0.153
	h-0.155l-0.075,0.077c-0.077,0-0.155,0-0.155,0.077v0.539c-0.153,0.692-0.153,1.231-0.077,1.923
	c0.155,1.386,0.077,2.771,0.077,4.155c0,2.848,0.078,5.694,0.078,8.464v4.233c0,1.46,0,2.845-0.155,4.23
	c0,0.386-0.076,0.694-0.076,1.077c-0.077,0.309,0,0.617,0,0.925c0.076,0.691,0.076,1.385,0.076,2.076l-0.153,4.233v1
	C152.333,44.398,152.486,44.706,152.563,45.014z"/>
<path fill="#FFF48F" d="M187.112,1.308c1-0.077,2.002-0.307,3.001-0.23c0.539,0,1,0.077,1.538,0.153h4.695
	c0.385,0,0.769,0,1.076,0.308l0.23,0.616l0.23,0.693l0.155,1.539c0,0.462,0.078,1,0,1.462c0,0.231-0.077,0.462-0.077,0.77
	c0,0.23,0.077,0.461,0.077,0.693l0.152,1.539v6.387c0,2.154,0,4.232,0.078,6.386v3.154c-0.078,0.231,0,0.462,0.077,0.693v0.77
	c0.078,0.538,0,1.077,0,1.615c-0.077,1,0.154,2.001,0.078,3.077c0,1.002-0.078,2.079-0.078,3.156l-0.155,6.386
	c0,2.078-0.074,4.232,0,6.386c0,1.001,0,2.078-0.074,3.155c-0.078,1-0.233,2-0.387,3.001c0,0.154,0,0.231-0.152,0.384l-0.155,0.154
	c-0.23,0.077-0.384,0.232-0.616,0.232c-0.383,0.153-0.77,0.153-1.229,0.153h-8.312c-0.153,0-0.538,0.078-0.769-0.076
	c-0.309-0.154-0.309-0.771-0.384-1.153v-4.695c0-2.154,0.075-4.309,0.075-6.387V28.854c0-0.461,0.077-1,0.077-1.538
	c0-0.231,0.078-0.462,0.078-0.616c0-0.308-0.078-0.539-0.078-0.847c-0.077-1,0.078-2.077,0.078-3.077c0-0.539-0.078-1-0.078-1.539
	v-1.615c0.078-1.001,0.078-2.078,0.078-3.155c0.076-4.232,0-8.464,0.153-12.773C186.497,2.848,186.497,2.001,187.112,1.308z"/>
<path fill="#FFFFFF" d="M244.517,53.478c-0.538,0.461-1.079,0.616-1.771,0.616c-0.769,0.075-1.538,0.075-2.31,0.075
	c-1.538,0.078-3.154,0.078-4.692,0c-0.692,0-1.463,0-2.156-0.153c-0.383-0.078-0.69-0.154-1-0.308c-0.152,0-0.229-0.078-0.382-0.23
	c-0.155-0.078-0.155-0.308-0.155-0.462c-0.078-0.771,0-1.539,0-2.309c0.077-0.769,0-1.462,0-2.231c-0.078-0.769,0-1.539,0-2.232
	c0-0.384,0-0.846-0.078-1.23c0-0.078,0-0.462-0.075-0.539c-0.078-0.078-0.386-0.078-0.464-0.078
	c-0.383-0.078-0.769-0.078-1.152-0.078h-1.231c-0.77,0-1.539-0.075-2.308-0.075h-1.08c-0.382,0-0.691-0.078-1.076-0.155
	c-0.691-0.076-1.46,0.078-2.154,0.155c-0.308,0-0.691,0-1,0.153c-0.078,0-0.154,0.078-0.154,0.078
	c-0.076,0.076-0.076,0.153-0.076,0.23c0.076,0.153,0.076,0.385,0.076,0.539c0,0.384,0.076,0.769,0.076,1.155
	c0,0.383,0,0.691-0.076,1.077c-0.153,1.538-0.076,3.077-0.153,4.616c0,0.617,0,1.308-0.461,1.693
	c-0.464,0.461-1.154,0.308-1.771,0.308c-1.537,0-8.847,0-9.154-0.078c-0.078,0-0.309,0-0.464-0.078
	c-0.075-0.076-0.075-0.308-0.153-0.461c-0.077-0.386,0-0.769,0.078-1.155v-1.155c0-1.538,0-3.077-0.078-4.616
	c0-1.538,0-3.078,0.153-4.617c0.155-1.538,0.078-3.079,0.078-4.616V25.624c0-0.385,0-0.77-0.078-1.154
	c-0.075-0.385-0.153-0.693-0.153-1.078c0.078-1.539,0.078-3.078,0.078-4.693c0-1.462,0-3.001,0.309-4.54
	c0.152-1.384,0.613-2.693,1.229-4.001l1.155-1.847c0.383-0.616,0.69-1.231,1.154-1.77c0.461-0.616,0.922-1.078,1.46-1.617
	l1.463-1.384c1-0.847,2.154-1.385,3.387-1.847c0.691-0.231,1.383-0.616,2.076-0.77c0.692-0.231,1.463-0.386,2.231-0.539
	c0.691-0.154,1.462-0.231,2.232-0.308C226.664,0,227.434,0,228.203,0c1.462,0.154,2.923,0.616,4.308,1.078
	c1.386,0.384,2.696,1,4.003,1.693c1.229,0.692,2.463,1.385,3.462,2.308c2.002,1.77,3.386,4.309,4.078,6.848
	c0.386,1.462,0.538,3.001,0.693,4.463c0.075,0.384,0.075,0.77,0.075,1.154c0.078,0.384,0.156,0.77,0.078,1.077l-0.231,2.308
	c-0.077,1.616,0,3.155,0,4.694v23.546C244.669,50.169,244.747,52.554,244.517,53.478z M231.897,33.78l0.23-6.31l0.152-3.078
	c0-0.462,0-1,0.078-1.462c0-0.539,0.077-1.077,0.077-1.539c0-0.538-0.077-1.078-0.155-1.539l-0.152-1.461
	c-0.077-0.847-0.309-1.616-0.616-2.386c-0.539-1.538-1.769-3-3.462-3.462c-0.847-0.231-1.849-0.231-2.77,0.077
	c-0.771,0.231-1.617,0.616-2.232,1.154c-0.539,0.462-1,1-1.229,1.693c-0.31,0.77-0.31,1.539-0.387,2.385
	c0,2.155-0.078,4.309,0,6.464v3.155c-0.078,1.077-0.078,2.154-0.078,3.155c0,0.539,0.078,1.077,0.078,1.616v0.77
	c0,0.23-0.078,0.383,0,0.615c0,0.155,0.153,0.307,0.309,0.385c0.308,0,0.539-0.078,0.847-0.078h1.538
	C226.742,33.933,229.279,33.78,231.897,33.78z"/>
<g>
	<g>
		<path fill="#FFF48F" d="M255.997,13.314c-0.063-0.951-0.257-1.903-0.191-2.855c0-0.513,0.063-0.951,0.128-1.464V4.529
			c0-0.367,0-0.732,0.256-1.025l0.512-0.219l0.575-0.22l1.274-0.146c0.387,0,0.832-0.074,1.218,0c0.19,0,0.381,0.074,0.637,0.074
			c0.192,0,0.383-0.074,0.576-0.074l1.277-0.147h5.303c1.788,0,3.512,0,5.303-0.073h2.62c0.19,0.073,0.384,0,0.574-0.074h0.639
			c0.445-0.073,0.894,0,1.343,0c0.829,0.074,1.66-0.145,2.554-0.073c0.832,0,1.727,0.073,2.617,0.073l5.304,0.146
			c1.726,0,3.517,0.073,5.305,0c0.829,0,1.724,0,2.618,0.073c0.831,0.074,1.66,0.221,2.492,0.367c0.128,0,0.192,0,0.32,0.146
			l0.126,0.147c0.064,0.219,0.192,0.366,0.192,0.585c0.128,0.366,0.128,0.733,0.128,1.171v7.909c0,0.145,0.064,0.512-0.065,0.731
			c-0.125,0.292-0.636,0.292-0.956,0.365h-3.898c-1.788,0-3.577-0.073-5.303-0.073h-10.604c-0.384,0-0.829-0.074-1.278-0.074
			c-0.193,0-0.383-0.074-0.512-0.074c-0.255,0-0.445,0.074-0.703,0.074c-0.829,0.074-1.724-0.074-2.555-0.074
			c-0.446,0-0.829,0.074-1.277,0.074h-1.341c-0.831-0.074-1.726-0.074-2.619-0.074c-3.515-0.073-7.029,0-10.606-0.145
			C257.276,13.901,256.572,13.901,255.997,13.314z"/>
	</g>
</g>
<g>
	<g>
		<path fill="#FFF48F" d="M255.997,32.986c-0.063-0.95-0.257-1.902-0.191-2.854c0-0.514,0.063-0.952,0.128-1.464v-4.467
			c0-0.367,0-0.731,0.256-1.024l0.512-0.22l0.575-0.22l1.274-0.146c0.387,0,0.832-0.074,1.218,0c0.19,0,0.381,0.074,0.637,0.074
			c0.192,0,0.383-0.074,0.576-0.074l1.277-0.146h5.303c1.788,0,3.512,0,5.303-0.073h2.62c0.19,0.073,0.384,0,0.574-0.074h0.639
			c0.445-0.073,0.894,0,1.343,0c0.829,0.074,1.66-0.146,2.554-0.073c0.832,0,1.727,0.073,2.617,0.073l5.304,0.146
			c1.726,0,3.517,0.073,5.305,0c0.829,0,1.724,0,2.618,0.073c0.831,0.074,1.66,0.22,2.492,0.367c0.128,0,0.192,0,0.32,0.147
			l0.126,0.147c0.064,0.219,0.192,0.365,0.192,0.585c0.128,0.365,0.128,0.732,0.128,1.172v7.908c0,0.145,0.064,0.512-0.065,0.732
			c-0.125,0.293-0.636,0.293-0.956,0.366h-3.898c-1.788,0-3.577-0.073-5.303-0.073h-10.604c-0.384,0-0.829-0.075-1.278-0.075
			c-0.193,0-0.383-0.073-0.512-0.073c-0.255,0-0.445,0.073-0.703,0.073c-0.829,0.075-1.724-0.073-2.555-0.073
			c-0.446,0-0.829,0.073-1.277,0.073h-1.341c-0.831-0.073-1.726-0.073-2.619-0.073c-3.515-0.072-7.029,0-10.606-0.145
			C257.276,33.573,256.572,33.573,255.997,32.986z"/>
	</g>
</g>
<g>
	<g>
		<path fill="#FFF48F" d="M255.997,52.216c-0.063-0.951-0.257-1.904-0.191-2.856c0-0.512,0.063-0.95,0.128-1.464V43.43
			c0-0.367,0-0.731,0.256-1.024l0.512-0.219l0.575-0.22l1.274-0.147c0.387,0,0.832-0.074,1.218,0c0.19,0,0.381,0.074,0.637,0.074
			c0.192,0,0.383-0.074,0.576-0.074l1.277-0.147h5.303c1.788,0,3.512,0,5.303-0.073h2.62c0.19,0.073,0.384,0,0.574-0.072h0.639
			c0.445-0.073,0.894,0,1.343,0c0.829,0.072,1.66-0.146,2.554-0.073c0.832,0,1.727,0.073,2.617,0.073l5.304,0.145
			c1.726,0,3.517,0.074,5.305,0c0.829,0,1.724,0,2.618,0.074c0.831,0.074,1.66,0.221,2.492,0.367c0.128,0,0.192,0,0.32,0.146
			l0.126,0.146c0.064,0.219,0.192,0.366,0.192,0.585c0.128,0.366,0.128,0.732,0.128,1.171v7.908c0,0.147,0.064,0.514-0.065,0.733
			c-0.125,0.293-0.636,0.293-0.956,0.366h-3.898c-1.788,0-3.577-0.073-5.303-0.073h-10.604c-0.384,0-0.829-0.074-1.278-0.074
			c-0.193,0-0.383-0.074-0.512-0.074c-0.255,0-0.445,0.074-0.703,0.074c-0.829,0.074-1.724-0.074-2.555-0.074
			c-0.446,0-0.829,0.074-1.277,0.074h-1.341c-0.831-0.074-1.726-0.074-2.619-0.074c-3.515-0.073-7.029,0-10.606-0.146
			C257.276,52.802,256.572,52.802,255.997,52.216z"/>
	</g>
</g>
</svg>
