<?xml version="1.0" encoding="utf-8"?>
<!-- Generator: Adobe Illustrator 16.0.0, SVG Export Plug-In . SVG Version: 6.00 Build 0)  -->
<!DOCTYPE svg PUBLIC "-//W3C//DTD SVG 1.1//EN" "http://www.w3.org/Graphics/SVG/1.1/DTD/svg11.dtd">
<svg version="1.1" id="Calque_1" xmlns="http://www.w3.org/2000/svg" xmlns:xlink="http://www.w3.org/1999/xlink" x="0px" y="0px"
	 width="487px" height="439.5px" viewBox="-65.5 71 487 439.5" enable-background="new -65.5 71 487 439.5" xml:space="preserve">
<path fill="#FFFFFF" d="M411.127,337.833v-74.979l-58.72-3.596c-3.539-13.072-8.662-25.46-15.255-36.943l38.951-44.045
	l-53.043-53.03l-44.063,38.951c-11.456-6.593-23.858-11.717-36.929-15.271l-3.597-58.735h-74.978l-3.597,58.735
	c-13.072,3.551-25.444,8.676-36.93,15.271L78.94,125.252l-53.043,53.03l38.951,44.045c-6.592,11.486-11.716,23.872-15.255,36.93
	l-58.72,3.609v74.994l58.72,3.597c3.539,13.072,8.663,25.445,15.255,36.93l-38.951,44.029l53.043,53.03l44.033-38.951
	c11.486,6.608,23.888,11.732,36.959,15.284l3.597,58.72h74.979l3.597-58.72c13.071-3.552,25.474-8.691,36.929-15.284l44.063,38.951
	l53.012-53.03l-38.925-44.046c6.577-11.485,11.701-23.842,15.223-36.929L411.127,337.833z M201.184,398.662
	c-54.538,0-98.75-44.212-98.75-98.75s44.212-98.75,98.75-98.75c54.538,0,98.75,44.212,98.75,98.75S255.721,398.662,201.184,398.662z
	"/>
</svg>
