<?xml version="1.0" encoding="utf-8"?>
<!-- Generator: Adobe Illustrator 16.0.0, SVG Export Plug-In . SVG Version: 6.00 Build 0)  -->
<!DOCTYPE svg PUBLIC "-//W3C//DTD SVG 1.1//EN" "http://www.w3.org/Graphics/SVG/1.1/DTD/svg11.dtd">
<svg version="1.1" id="Calque_1" xmlns="http://www.w3.org/2000/svg" xmlns:xlink="http://www.w3.org/1999/xlink" x="0px" y="0px"
	 width="700px" height="700px" viewBox="0 0 700 700" enable-background="new 0 0 700 700" xml:space="preserve">
<path fill="#FFFFFF" d="M350.5,10.2C162.558,10.2,10.2,162.56,10.2,350.5c0,187.939,152.359,340.3,340.3,340.3
	c187.939,0,340.3-152.36,340.3-340.3C690.8,162.56,538.439,10.2,350.5,10.2z M204.659,168.198c33.564,0,60.768,27.205,60.768,60.768
	s-27.204,60.768-60.768,60.768c-33.563,0-60.768-27.205-60.768-60.768S171.096,168.198,204.659,168.198z M496.346,168.198
	c33.563,0,60.768,27.205,60.768,60.768s-27.205,60.768-60.768,60.768c-33.563,0-60.769-27.205-60.769-60.768
	S462.782,168.198,496.346,168.198z M350.504,399.116c78.207,0,147.851,37.294,189.9,94.951c7.867,10.902,5.4,26.117-5.511,33.984
	c-10.902,7.867-26.12,5.4-33.987-5.502c-32.919-45.144-87.676-74.823-150.402-74.823c-62.716,0-117.475,29.68-150.403,74.823
	c-7.867,10.902-23.085,13.369-33.986,5.502c-10.911-7.867-13.378-23.085-5.511-33.984
	C202.654,436.41,272.298,399.116,350.504,399.116L350.504,399.116z"/>
</svg>
