<?xml version="1.0" encoding="utf-8"?>
<!-- Generator: Adobe Illustrator 16.0.0, SVG Export Plug-In . SVG Version: 6.00 Build 0)  -->
<!DOCTYPE svg PUBLIC "-//W3C//DTD SVG 1.1//EN" "http://www.w3.org/Graphics/SVG/1.1/DTD/svg11.dtd">
<svg version="1.1" id="Calque_1" xmlns="http://www.w3.org/2000/svg" xmlns:xlink="http://www.w3.org/1999/xlink" x="0px" y="0px"
	 width="444.75px" height="62.5px" viewBox="0 0 444.75 62.5" enable-background="new 0 0 444.75 62.5" xml:space="preserve">
<g>
	<path fill="#FFFFFF" d="M34.561,31.367c-1.8,0.12-3.54,0.06-5.28,0.06h-2.7c-0.54,0-1.32,0.06-1.38-0.66
		c-0.06-0.84,0.24-1.68,0.3-2.52c0-0.78-0.06-1.62-0.48-2.28c-0.36-0.66-1.02-1.08-1.68-1.44c-0.66-0.36-1.38-0.48-2.1-0.42
		c-0.78,0.06-1.38,0.36-1.92,0.9c-0.48,0.48-0.9,1.02-1.2,1.62c-0.3,0.66-0.42,1.44-0.54,2.16c-0.12,0.9-0.18,1.74-0.24,2.64
		c-0.06,1.74,0,3.54,0,5.28c0,1.8,0,3.54,0.18,5.34c0,0.42,0.06,0.84,0.12,1.26s0.24,0.84,0.3,1.26c0.12,0.78,0.06,1.56,0.42,2.28
		c0.36,0.6,0.84,1.14,1.44,1.38c0.72,0.36,1.62,0.48,2.4,0.42c0.72-0.06,1.44-0.24,1.979-0.72c0.48-0.42,0.72-1.08,0.9-1.74
		c0.18-0.78,0.18-1.62,0.18-2.4v-0.12c0-0.12,0-0.06-0.06-0.06c-0.06-0.06-0.24-0.06-0.3-0.06c-0.18-0.06-0.42-0.06-0.66-0.06h-1.26
		c-0.36-0.06-0.78-0.12-1.02-0.36c-0.24-0.3-0.24-0.66-0.24-1.02c-0.06-0.84,0.06-1.74,0.06-2.58c0-0.24,0-0.42-0.06-0.66
		c0-0.24-0.06-0.42-0.12-0.66c-0.06-0.42-0.06-0.84,0-1.26c0.06-0.6,0.12-1.5,0.9-1.56c0.42-0.06,0.84,0,1.26,0
		c0.48-0.06,0.9-0.06,1.38-0.06c0.9,0,1.74-0.06,2.64-0.12c0.84-0.06,1.68-0.06,2.58,0c0.84,0.12,1.74,0.18,2.58,0.24
		c0.66,0.06,1.32-0.06,1.98,0.18c0.36,0.12,0.66,0.36,0.84,0.72c0.24,0.54,0.18,1.2,0.12,1.8c0,0.84-0.06,1.74-0.18,2.64
		c0,0.42,0.06,0.84,0.12,1.26c0,0.42-0.06,0.9-0.06,1.32l-0.18,2.64c-0.12,1.62-0.24,3.3-0.78,4.8c-0.48,1.56-1.32,2.82-2.4,3.959
		c-0.54,0.54-1.14,1.08-1.8,1.5s-1.44,0.66-2.16,0.96c-0.78,0.24-1.56,0.48-2.34,0.66c-0.84,0.18-1.68,0.24-2.58,0.3l-2.64,0.18
		c-0.42,0-0.9,0.06-1.32,0.06l-1.2-0.18l-0.6-0.12c-0.18,0-0.42,0-0.6-0.12l-1.14-0.36c-0.72-0.24-1.44-0.54-2.16-0.9
		c-1.32-0.66-2.52-1.56-3.48-2.7c-0.48-0.6-0.84-1.2-1.14-1.86c-0.36-0.72-0.78-1.44-1.08-2.16c-0.3-0.78-0.54-1.56-0.6-2.34
		c-0.12-0.9-0.06-1.74-0.12-2.64c-0.06-3.54,0.06-7.08,0.18-10.68c0-0.84,0.06-1.74,0.12-2.58c0.06-0.9,0-1.8-0.06-2.64
		c0-1.56,0.18-3.18,0.6-4.68c0.42-1.5,1.02-3,1.92-4.26c0.48-0.66,1.02-1.26,1.56-1.8c0.6-0.54,1.14-1.02,1.8-1.5
		c0.66-0.48,1.32-0.9,2.04-1.2c0.72-0.3,1.5-0.42,2.28-0.66c0.42-0.06,0.78-0.24,1.2-0.36c0.36-0.18,0.78-0.18,1.14-0.18h0.6
		c0.24,0,0.42,0.06,0.66,0c0.42-0.06,0.84-0.06,1.26-0.06c0.84,0.06,1.68,0.24,2.58,0.36c0.72,0.18,1.5,0.42,2.22,0.72
		c0.72,0.36,1.32,0.78,1.979,1.26c0.66,0.48,1.32,0.96,1.86,1.5c0.6,0.6,1.14,1.2,1.56,1.86c0.48,0.6,0.96,1.32,1.2,2.04
		c0,0.24,0.06,0.42,0.12,0.6c0.06,0.18,0.18,0.36,0.3,0.54c0.12,0.36,0.18,0.78,0.24,1.14c0.18,0.9,0.3,1.74,0.36,2.58
		s0.06,1.68,0,2.52c0,0.36,0.06,0.72-0.06,1.02C35.041,30.887,34.8,31.127,34.561,31.367z"/>
	<path fill="#FFFFFF" d="M71.04,56.146c-0.42,0.36-0.84,0.48-1.38,0.48c-0.6,0.06-1.2,0.06-1.8,0.06c-1.2,0.06-2.46,0.06-3.66,0
		c-0.54,0-1.14,0-1.68-0.12c-0.3-0.06-0.54-0.12-0.78-0.24c-0.12,0-0.18-0.06-0.3-0.18c-0.12-0.06-0.12-0.24-0.12-0.36
		c-0.06-0.6,0-1.2,0-1.8c0.06-0.6,0-1.14,0-1.74c-0.06-0.6,0-1.2,0-1.74c0-0.3,0-0.66-0.06-0.96c0-0.06,0-0.36-0.06-0.42
		s-0.3-0.06-0.36-0.06c-0.3-0.06-0.6-0.06-0.9-0.06h-0.96c-0.6,0-1.2-0.06-1.8-0.06h-0.84c-0.3,0-0.54-0.06-0.84-0.12
		c-0.54-0.06-1.14,0.06-1.68,0.12c-0.24,0-0.54,0-0.78,0.12c-0.06,0-0.12,0.06-0.12,0.06c-0.06,0.06-0.06,0.12-0.06,0.18
		c0.06,0.12,0.06,0.3,0.06,0.42c0,0.3,0.06,0.6,0.06,0.9s0,0.54-0.06,0.84c-0.12,1.2-0.06,2.4-0.12,3.6c0,0.48,0,1.02-0.36,1.32
		c-0.36,0.36-0.9,0.24-1.38,0.24c-1.2,0-6.9,0-7.14-0.06c-0.06,0-0.24,0-0.36-0.06c-0.06-0.06-0.06-0.24-0.12-0.36
		c-0.06-0.3,0-0.6,0.06-0.9v-0.9c0-1.2,0-2.4-0.06-3.6c0-1.2,0-2.4,0.12-3.6c0.12-1.2,0.06-2.4,0.06-3.6v-9.12c0-0.3,0-0.6-0.06-0.9
		c-0.06-0.3-0.12-0.54-0.12-0.84c0.06-1.2,0.06-2.4,0.06-3.66c0-1.14,0-2.34,0.24-3.54c0.12-1.08,0.48-2.1,0.96-3.12l0.9-1.44
		c0.3-0.48,0.54-0.96,0.9-1.38c0.36-0.48,0.72-0.84,1.14-1.26l1.14-1.08c0.78-0.66,1.68-1.08,2.64-1.44
		c0.54-0.18,1.08-0.48,1.62-0.6c0.54-0.18,1.14-0.3,1.74-0.42c0.54-0.12,1.14-0.18,1.74-0.24c0.6-0.06,1.2-0.06,1.8-0.06
		c1.14,0.12,2.28,0.48,3.36,0.84c1.08,0.3,2.1,0.78,3.12,1.32c0.96,0.54,1.92,1.08,2.7,1.8c1.56,1.38,2.64,3.36,3.18,5.34
		c0.3,1.14,0.42,2.34,0.54,3.48c0.06,0.3,0.06,0.6,0.06,0.9c0.06,0.3,0.12,0.6,0.06,0.84l-0.18,1.8c-0.06,1.26,0,2.46,0,3.66v18.359
		C71.16,53.566,71.22,55.426,71.04,56.146z M61.201,40.787l0.18-4.919l0.12-2.4c0-0.36,0-0.78,0.06-1.14c0-0.42,0.06-0.84,0.06-1.2
		c0-0.42-0.06-0.84-0.12-1.2l-0.12-1.14c-0.06-0.66-0.24-1.26-0.48-1.86c-0.42-1.2-1.38-2.34-2.7-2.7
		c-0.66-0.18-1.44-0.18-2.16,0.06c-0.6,0.18-1.26,0.48-1.74,0.9c-0.42,0.36-0.78,0.78-0.96,1.32c-0.24,0.6-0.24,1.2-0.3,1.86
		c0,1.68-0.06,3.36,0,5.04v2.46c-0.06,0.84-0.06,1.68-0.06,2.46c0,0.42,0.06,0.84,0.06,1.26v0.6c0,0.18-0.06,0.3,0,0.48
		c0,0.12,0.12,0.24,0.24,0.3c0.24,0,0.42-0.06,0.66-0.06h1.2C57.181,40.907,59.161,40.787,61.201,40.787z"/>
	<path fill="#FFFFFF" d="M106.56,30.047c-0.84,0.12-1.68,0.18-2.58,0.12c-0.9,0-1.86,0-2.76-0.06h-1.44c-0.42,0-0.9,0-1.32-0.06
		c-0.36-0.06-0.72-0.18-0.96-0.48c-0.18-0.3-0.24-0.72-0.24-1.08c-0.12-0.48-0.18-0.96-0.24-1.38s-0.06-0.9-0.18-1.32
		c-0.12-0.78-0.6-1.44-1.08-1.98c-0.48-0.66-1.38-0.9-2.16-1.08c-0.72-0.18-1.44-0.18-2.16,0.12c-0.36,0.12-0.66,0.3-0.96,0.48
		c-0.3,0.24-0.66,0.42-0.84,0.72c-0.24,0.3-0.36,0.66-0.48,0.96c-0.12,0.36-0.18,0.72-0.24,1.02c-0.18,1.5,0.42,2.82,1.5,3.84
		c1.26,1.08,2.82,1.86,4.32,2.52c1.68,0.72,3.36,1.26,5.04,1.98c0.78,0.3,1.56,0.72,2.28,1.14c0.78,0.36,1.5,0.78,2.16,1.26
		c1.2,0.9,2.16,2.04,2.88,3.36l0.54,1.2c0.24,0.36,0.42,0.72,0.6,1.14c0.18,0.36,0.3,0.72,0.36,1.14c0,0.42-0.12,0.78-0.06,1.2
		c0,0.24,0.06,0.42,0.06,0.66v0.66c0,0.42-0.06,0.9-0.06,1.32c-0.12,0.9-0.3,1.8-0.54,2.64c-0.24,0.9-0.6,1.62-1.08,2.34
		c-0.54,0.72-1.08,1.32-1.74,1.86c-0.48,0.42-0.96,0.78-1.5,1.14c-0.42,0.3-0.9,0.48-1.38,0.72c-1.56,0.6-3.18,1.14-4.8,1.5
		c-1.74,0.42-3.6,0.72-5.4,0.72c-0.96-0.06-1.86-0.18-2.76-0.36c-0.84-0.18-1.74-0.36-2.58-0.6c-0.78-0.24-1.5-0.54-2.22-0.9
		c-0.72-0.36-1.44-0.78-2.04-1.32l-0.84-0.9c-0.3-0.3-0.6-0.6-0.78-0.96l-0.36-0.54l-0.18-0.18c-0.06-0.12-0.06-0.24-0.06-0.3
		l-0.36-1.02c-0.3-0.72-0.66-1.38-0.72-2.1c-0.06-0.24,0-0.42,0-0.6l-0.18-0.72c-0.06-0.42-0.12-0.9-0.12-1.32
		c-0.06-0.479-0.06-0.96-0.06-1.38c0.06-0.48,0.12-0.96,0.12-1.38c0.06-0.66-0.18-1.56,0.54-1.86c0.36-0.18,0.78-0.18,1.2-0.24
		c0.42-0.06,0.9-0.06,1.32-0.06c0.96-0.06,1.92-0.12,2.82-0.12c0.48-0.06,0.9-0.06,1.38-0.06c0.48,0,0.96,0.06,1.44,0.12
		c0.18,0.06,0.36,0.06,0.479,0.18c0.18,0.06,0.24,0.24,0.3,0.36c0.06,0.24,0,0.48,0,0.66v2.1c-0.06,0.48,0,0.9,0.12,1.32
		c0.24,0.78,0.66,1.5,1.2,2.1c0.24,0.3,0.48,0.6,0.78,0.84c0.36,0.24,0.78,0.42,1.14,0.54c0.84,0.24,1.68,0.36,2.52,0.18
		c1.44-0.18,3.12-0.84,3.36-2.4c0.24-1.56-0.3-3.24-1.5-4.26c-0.6-0.54-1.38-0.96-2.16-1.32c-0.78-0.42-1.56-0.84-2.399-1.2
		c-1.62-0.84-3.3-1.56-4.86-2.46c-0.78-0.42-1.5-0.96-2.22-1.44c-0.72-0.42-1.44-0.78-2.1-1.32c-0.6-0.42-1.08-0.96-1.5-1.56
		c-0.48-0.66-0.78-1.32-1.08-2.04c-0.18-0.36-0.36-0.72-0.48-1.08c-0.12-0.48-0.12-0.96-0.24-1.38c-0.12-0.9-0.24-1.8-0.24-2.7
		c0.06-1.74,0.54-3.48,1.32-5.04c0.36-0.72,0.84-1.44,1.32-2.1c0.48-0.6,1.02-1.26,1.56-1.8c1.02-1.08,2.28-1.86,3.66-2.399
		c0.78-0.24,1.62-0.42,2.4-0.54c0.9-0.18,1.8-0.3,2.76-0.36c0.9,0,1.8,0,2.7,0.06c0.96,0.06,1.86,0.12,2.76,0.24
		c0.9,0.18,1.8,0.36,2.64,0.6c0.78,0.24,1.56,0.6,2.22,1.14l1.02,0.78l0.9,0.66c0.54,0.54,0.96,1.2,1.26,1.86
		c0.42,0.84,0.9,1.62,1.2,2.52c0.24,0.9,0.42,1.8,0.54,2.7c0.12,0.84,0.18,1.74,0.12,2.58l-0.18,1.32c0,0.24-0.06,0.42-0.12,0.6
		L106.56,30.047z"/>
	<path fill="#FFFFFF" d="M122.221,24.047c-2.28,0-4.56,0-6.78,0.06c-0.48,0-1.08,0.06-1.5-0.12c-0.18-0.06-0.36-0.12-0.42-0.3
		c0-0.12-0.06-0.24-0.06-0.3c-0.06-0.6-0.12-1.14-0.12-1.74c-0.06-1.86,0.06-3.72,0.24-5.58v-0.42c0-0.06,0-0.06,0.12-0.12
		c0.06,0,0.12-0.06,0.18-0.06c0.24-0.12,0.54-0.12,0.78-0.12h1.8c1.14,0,2.34-0.06,3.48-0.06c2.34-0.06,4.68-0.06,7.08-0.06h7.08
		c1.14,0,2.34,0,3.479-0.06h2.64c0.12,0,0.301,0,0.36,0.06c0.12,0.06,0.18,0.18,0.18,0.3c0.24,0.42,0.181,0.96,0.181,1.44
		c0.06,0.54,0.06,1.14,0.06,1.74c0.061,1.14-0.12,2.28-0.06,3.48c0.06,0.48,0.18,1.02-0.061,1.5c0,0.12-0.06,0.24-0.18,0.3
		c-0.12,0.06-0.24,0.06-0.36,0.06c-0.3,0.06-0.54,0.06-0.84,0.06h-7.439c-0.061,0-0.3,0.06-0.3,0.12c-0.061,0.06,0,0.3,0,0.42v0.42
		c0,0.6,0.06,1.14,0.06,1.74v1.74c0,0.6-0.06,1.14,0,1.74c0,0.54,0.061,1.14,0.061,1.68c0,0.6-0.061,1.14-0.061,1.74
		s0.061,1.14,0.061,1.74c0,0.3-0.061,0.6-0.061,0.9c0,0.24-0.12,0.54-0.06,0.84c0.12,1.14,0.06,2.28,0.06,3.42
		c0,2.34,0.061,4.74,0.12,7.08c0,2.34,0,4.68-0.06,7.02c0,0.479,0.06,1.02-0.181,1.439c-0.3,0.42-0.779,0.42-1.26,0.48
		c-1.14,0.06-2.34,0.06-3.48,0.06l-3.54-0.12c-0.36,0-0.96,0.06-1.26-0.24c-0.3-0.36-0.12-0.84,0-1.2c0.24-1.14,0.12-2.28,0.18-3.36
		c0-0.6,0.06-1.2,0.06-1.74c0-0.6,0-1.2-0.06-1.8c0-0.6,0.06-1.14,0.06-1.74v-1.74c0-1.2,0.06-2.34,0.06-3.54v-7.08
		c0-1.14,0.06-2.34,0-3.479c-0.06-1.2-0.12-2.34-0.12-3.54C122.281,26.087,122.341,25.067,122.221,24.047z"/>
	<path fill="#FFFFFF" d="M177.419,55.786c-0.12,0.12-0.18,0.3-0.239,0.42c-0.24,0.42-0.66,0.72-1.141,0.78
		c-0.3,0.06-0.6,0.06-0.96,0.06c-0.359,0-0.72,0-1.08-0.06c-0.72,0-1.439,0-2.159-0.06c-1.38-0.06-2.82-0.18-4.26-0.3
		c-0.54-0.06-1.08-0.12-1.5-0.48c-0.48-0.42-0.721-1.02-0.96-1.5l-1.62-3.96c-1.14-2.58-2.4-5.16-3.48-7.74l-0.42-1.02l-0.359-0.9
		c-0.061-0.06-0.061-0.18-0.12-0.18l-0.18-0.12c-0.181,0-0.36,0-0.54-0.06h-0.96c-0.12,0.06-0.181,0.06-0.3,0.06
		c0,0-0.061-0.06-0.12,0h-0.061v0.06c-0.06,0.12-0.06,0.3-0.06,0.42c-0.061,0.36-0.061,13.079,0,13.739c0,0.42,0.12,1.02-0.181,1.38
		c-0.18,0.12-0.359,0.18-0.479,0.18l-0.96,0.12c-0.72,0.06-1.44,0.12-2.22,0.12c-0.66,0-1.38-0.12-2.04-0.18h-3.18
		c-0.061-0.06-0.181-0.06-0.3-0.12l-0.12-0.12c-0.061-0.12-0.061-0.18-0.061-0.3c0-0.72-0.359-39.239-0.359-40.559l0.479-0.18
		c0.12,0,0.3-0.06,0.42-0.06h1.14c0.66-0.06,1.38-0.06,2.101-0.06c0.72-0.06,1.439-0.06,2.22-0.06c0.72,0,1.439,0.06,2.16,0.06
		l4.319,0.12c0.72,0,1.44,0.06,2.16,0.06l2.1,0.12c0.721,0.06,1.44,0.18,2.101,0.3c0.72,0.12,1.439,0.24,2.1,0.48
		c1.08,0.3,2.16,0.84,3.12,1.5c0.899,0.66,1.739,1.44,2.399,2.34c0.78,1.08,1.38,2.22,1.86,3.419c0.239,0.6,0.42,1.2,0.479,1.92
		c0.061,0.66,0.12,1.38,0.12,2.1c0,1.26-0.18,2.52-0.6,3.78c-0.36,1.2-1.021,2.34-1.8,3.36c-0.78,1.08-1.561,2.16-2.521,3
		c-0.479,0.42-1.02,0.78-1.5,1.14l-0.84,0.54l-0.359,0.24l-0.24,0.12c-0.061,0.06,0,0,0,0.12c0,0.06,0.06,0.12,0.06,0.12l2.16,3.78
		l1.979,3.78c0.601,1.2,1.44,2.28,2.101,3.48c0.659,1.2,1.319,2.4,2.1,3.48l0.54,0.9c0,0.06,0.06,0.12,0.12,0.24
		C177.479,55.667,177.479,55.667,177.419,55.786z M166.56,28.607c0-0.78-0.359-2.04-0.96-2.52c-0.66-0.6-1.56-0.84-2.46-0.9
		c-1.08-0.18-2.159-0.12-3.239-0.12h-2.94c-0.06,0-0.06,0-0.12,0.12c-0.06,0-0.06,0.06-0.12,0.12v0.84c0,0.3,0,0.6-0.06,0.84v1.8
		c0,1.14,0.06,2.28,0.06,3.419v0.42c0,0.12,0.061,0.24,0.12,0.3h3.72C162.36,32.927,166.74,33.107,166.56,28.607z"/>
	<path fill="#FFFFFF" d="M197.58,58.306c-0.96,0-1.92,0.06-2.88-0.06c-0.9-0.12-1.86-0.3-2.76-0.66c-1.74-0.6-3.48-1.44-4.86-2.76
		c-1.38-1.26-2.22-2.94-2.76-4.74c-1.08-3.84-0.72-20.279-0.12-25.439c0.061-1.02,0.3-2.04,0.54-3c0.24-0.9,0.72-1.68,1.32-2.34
		c0.54-0.72,1.14-1.38,1.92-1.92c0.72-0.6,1.56-1.02,2.46-1.38c0.899-0.36,1.859-0.66,2.819-0.84c1.021-0.24,2.1-0.48,3.12-0.6
		c1.02-0.12,2.04-0.12,3.06-0.12c0.96,0.06,1.92,0.24,2.82,0.54c0.899,0.24,1.8,0.6,2.699,1.02c0.78,0.36,1.5,0.78,2.101,1.32
		c0.66,0.54,1.26,1.14,1.739,1.86c0.54,0.78,0.9,1.68,1.261,2.58c0.18,0.42,0.359,0.9,0.479,1.38c0.12,0.42,0.18,0.96,0.24,1.44
		c0.72,6.06,0.66,16.08,0.3,22.079c-0.12,1.02-0.24,2.1-0.42,3.12c-0.12,0.48-0.24,0.96-0.42,1.44c-0.18,0.42-0.42,0.84-0.66,1.26
		c-0.42,0.78-0.899,1.56-1.5,2.22c-0.66,0.66-1.38,1.26-2.159,1.68c-0.421,0.24-0.841,0.42-1.32,0.6l-1.38,0.6
		c-0.9,0.36-1.8,0.6-2.76,0.66c-0.48,0.06-0.9,0.06-1.38,0.06H197.58z M193.26,43.067c0,0.96,0.061,1.92,0.36,2.82
		c0.24,0.78,0.6,1.68,1.2,2.22c0.6,0.6,1.5,0.84,2.34,0.9c0.84,0.06,1.68-0.18,2.399-0.72c1.32-1.02,1.68-2.82,1.8-4.44
		c0.061-4.62,0.66-10.859-0.12-15.299c-0.06-0.42-0.12-0.84-0.3-1.26c-0.12-0.36-0.3-0.72-0.54-1.02
		c-0.479-0.66-1.08-1.26-1.859-1.44c-0.78-0.24-1.681-0.12-2.46,0.12c-0.42,0.18-0.84,0.3-1.2,0.54c-0.36,0.24-0.54,0.54-0.78,0.9
		c-0.18,0.42-0.359,0.84-0.479,1.26c-0.12,0.48-0.181,0.96-0.24,1.44c-0.12,1.02-0.12,2.04-0.12,3.12
		C193.26,35.807,193.2,39.467,193.26,43.067z"/>
	<path fill="#FFFFFF" d="M247.14,55.786c-0.3,0.3-0.721,0.54-1.141,0.66s-0.84,0.12-1.26,0.06h-3.18c-1.02,0-2.04-0.18-3.06-0.12
		c-0.24,0-0.42-0.06-0.66-0.06c-0.061-0.06-0.12-0.06-0.18-0.06c0,0-0.061-0.12-0.12-0.18c-0.061-0.06-0.12-0.18-0.12-0.24
		c-0.24-0.54-0.36-1.02-0.54-1.5c-0.72-1.92-1.62-3.78-2.4-5.7c-0.84-1.92-1.739-3.84-2.64-5.76l-1.38-2.76l-0.72-1.38
		c-0.18-0.36-0.3-0.72-0.72-0.9c0-0.06-0.12-0.06-0.12-0.06l-0.061,0.12c0,0.12-0.06,0.24-0.12,0.36l-0.12,0.72v1.56
		c-0.06,1.08-0.06,2.16-0.06,3.24l0.12,6.36c0.06,1.02,0.12,2.1,0.12,3.12v1.62c0,0.24-0.061,0.48-0.061,0.72
		c-0.06,0.24-0.06,0.48-0.18,0.66c-0.3,0.3-0.66,0.24-1.02,0.24h-1.62c-1.08,0-2.16,0-3.24-0.06c-1.02-0.06-2.04-0.06-3.06-0.3
		h-0.12v-0.18l-0.12-0.36v-2.34c0-2.16,0.061-4.319,0.12-6.419c0.06-2.16,0.12-4.32,0.12-6.42c0.06-4.32,0.06-8.58,0.06-12.839
		c0-2.16,0-4.32,0.061-6.479c0-1.08-0.061-2.16,0-3.18c0-0.54,0.06-1.08,0.12-1.56c0-0.48,0-0.84,0.359-1.14
		c0.061-0.06,0.181-0.12,0.24-0.12c0.12-0.06,0.24,0,0.36,0h0.84c0.479,0.06,1.02,0.06,1.56,0.06c1.08,0,2.16,0,3.18-0.12
		c0.54,0,1.021-0.06,1.5,0l0.66,0.18c0.12,0.06,0.24,0.06,0.3,0.18c0.12,0.06,0.181,0.18,0.24,0.3c0.24,0.48,0.42,0.96,0.6,1.44
		l0.721,1.5c1.739,3.899,3.359,7.799,4.979,11.699c0.24,0.48,0.42,0.96,0.6,1.44l0.3,0.66c0.12,0.24,0.24,0.36,0.36,0.54
		c0.12-0.12,0.36-0.24,0.42-0.48l0.12-0.84v-0.84c-0.06-0.24,0-0.54,0-0.84c0-0.54,0.061-1.14,0.061-1.68
		c0-0.54-0.061-1.14-0.061-1.68c0-2.34,0.061-4.62,0.061-6.96c0-1.14,0-2.28,0.06-3.479c0.06-0.42,0.12-0.9,0.479-1.2
		c0.181-0.12,0.42-0.12,0.66-0.12c0.3-0.06,0.54-0.12,0.84-0.12c1.141-0.18,2.28-0.12,3.48-0.12c1.14,0,2.279,0,3.479,0.06
		c0.3,0,0.66,0.06,0.84,0.3c0.24,0.24,0.3,0.66,0.36,1.02c0.12,1.14,0,2.28,0,3.42c-0.061,2.34,0,4.62,0,6.959
		c0,2.34,0,4.68,0.06,7.02c0,2.28-0.06,4.62-0.12,6.959v6.96c0,1.14-0.06,2.34-0.06,3.48c0,0.54,0.06,1.14,0.06,1.74
		c0,0.54-0.06,1.08-0.119,1.68C247.26,54.766,247.199,55.246,247.14,55.786z"/>
	<path fill="#FFFFFF" d="M269.52,58.306c-0.96,0-1.92,0.06-2.88-0.06c-0.9-0.12-1.86-0.3-2.76-0.66c-1.74-0.6-3.48-1.44-4.86-2.76
		c-1.38-1.26-2.22-2.94-2.76-4.74c-1.08-3.84-0.72-20.279-0.12-25.439c0.061-1.02,0.3-2.04,0.54-3c0.24-0.9,0.72-1.68,1.32-2.34
		c0.54-0.72,1.14-1.38,1.92-1.92c0.72-0.6,1.56-1.02,2.46-1.38c0.899-0.36,1.859-0.66,2.819-0.84c1.021-0.24,2.1-0.48,3.12-0.6
		c1.02-0.12,2.04-0.12,3.06-0.12c0.96,0.06,1.92,0.24,2.82,0.54c0.899,0.24,1.8,0.6,2.699,1.02c0.78,0.36,1.5,0.78,2.101,1.32
		c0.66,0.54,1.26,1.14,1.739,1.86c0.54,0.78,0.9,1.68,1.261,2.58c0.18,0.42,0.359,0.9,0.479,1.38c0.12,0.42,0.18,0.96,0.24,1.44
		c0.72,6.06,0.66,16.08,0.3,22.079c-0.12,1.02-0.24,2.1-0.42,3.12c-0.12,0.48-0.24,0.96-0.42,1.44c-0.18,0.42-0.42,0.84-0.66,1.26
		c-0.42,0.78-0.899,1.56-1.5,2.22c-0.66,0.66-1.38,1.26-2.159,1.68c-0.421,0.24-0.841,0.42-1.32,0.6l-1.38,0.6
		c-0.9,0.36-1.8,0.6-2.76,0.66c-0.48,0.06-0.9,0.06-1.38,0.06H269.52z M265.199,43.067c0,0.96,0.061,1.92,0.36,2.82
		c0.24,0.78,0.6,1.68,1.2,2.22c0.6,0.6,1.5,0.84,2.34,0.9c0.84,0.06,1.68-0.18,2.399-0.72c1.32-1.02,1.68-2.82,1.8-4.44
		c0.061-4.62,0.66-10.859-0.12-15.299c-0.06-0.42-0.12-0.84-0.3-1.26c-0.12-0.36-0.3-0.72-0.54-1.02
		c-0.479-0.66-1.08-1.26-1.859-1.44c-0.78-0.24-1.681-0.12-2.46,0.12c-0.42,0.18-0.84,0.3-1.2,0.54c-0.36,0.24-0.54,0.54-0.78,0.9
		c-0.18,0.42-0.359,0.84-0.479,1.26c-0.12,0.48-0.181,0.96-0.24,1.44c-0.12,1.02-0.12,2.04-0.12,3.12
		C265.199,35.807,265.14,39.467,265.199,43.067z"/>
	<path fill="#FFFFFF" d="M312.239,34.247c0.479-0.66,0.899-1.44,1.26-2.16c0.479-0.78,0.9-1.56,1.32-2.34
		c0.779-1.5,1.619-3,2.46-4.5l2.52-4.56c0.42-0.72,0.78-1.5,1.26-2.28l0.6-1.02l0.54-1.02c0.12-0.3,0.24-0.6,0.48-0.9
		c0.12-0.12,0.24-0.3,0.36-0.36c0.18-0.06,0.479-0.06,0.659-0.06c0.841-0.12,1.681-0.06,2.521-0.06h5.1
		c0.42,0.06,0.78,0.12,1.08,0.3c0.12,0.06,0.18,0.06,0.18,0.18c0.061,0.06,0.061,0.18,0.061,0.24c0.06,0.18,0.06,0.42,0.06,0.6
		c-0.06,0.9-0.06,1.8-0.06,2.7c0,0.84,0.119,1.74,0.119,2.64c0.061,0.84,0,1.74,0,2.58c0,1.8,0.061,3.54,0.061,5.28v5.28l0.12,5.28
		c0.06,1.74,0.06,3.48,0.06,5.22c0.061,1.74,0.061,3.54,0.061,5.28v2.58c0,0.9,0.06,1.74,0,2.64c0,0.18-0.061,0.36-0.061,0.54v0.12
		c0,0.06,0,0.06-0.12,0.06c-0.06,0.06-0.18,0.06-0.3,0.06c-0.359,0.12-0.78,0.12-1.2,0.12c-0.84,0-1.739-0.06-2.579-0.06
		c-0.42-0.06-0.841-0.06-1.32-0.06h-1.26c-0.42,0-0.84-0.06-1.26-0.12h-0.601c-0.18,0-0.359,0.06-0.54-0.06
		c-0.06,0-0.12-0.06-0.18-0.06c-0.12-0.06-0.12-0.18-0.18-0.24l-0.181-0.54c-0.12-0.36-0.12-0.78-0.12-1.14v-7.86
		c0-3.54,0-7.02,0.061-10.5c0-0.84,0-1.62-0.061-2.459c-0.06,0.12-0.239,0.12-0.3,0.24l-0.3,0.42l-0.54,0.96
		c-0.36,0.6-0.78,1.26-1.08,1.86c-0.72,1.26-1.14,2.64-1.739,3.9l-1.98,4.08c-0.3,0.66-0.6,1.32-0.84,1.98
		c-0.24,0.54-0.36,1.2-0.84,1.56c-0.42,0.36-1.021,0.3-1.561,0.36l-1.079,0.12c-0.36,0.06-0.66,0.18-1.021,0.18h-1.08
		c-0.3,0.06-0.6,0.12-0.96,0.12c-0.479-0.06-0.899-0.36-1.14-0.72c-0.42-0.54-0.54-1.14-0.78-1.74
		c-0.239-0.66-0.479-1.32-0.779-1.92c-0.36-0.66-0.66-1.32-0.96-1.98l-0.9-1.92c-0.6-1.26-1.14-2.58-1.8-3.84
		c-0.3-0.6-0.6-1.26-0.96-1.86l-0.54-0.9l-0.3-0.48l-0.48-0.36c-0.06,0.84-0.06,1.74-0.06,2.58v7.92c0,0.9,0,1.74,0.06,2.64v2.64
		c0,0.84-0.06,1.74-0.06,2.58c0.06,0.42,0.18,0.78,0.12,1.14c-0.061,0.42-0.061,0.84-0.061,1.26c0,0.36,0.061,0.72-0.06,1.14
		l-0.18,0.54c-0.061,0.12-0.061,0.12-0.181,0.18c-0.06,0.06-0.12,0.12-0.24,0.12c-0.18,0.06-0.3,0.06-0.479,0.06
		c-0.24,0-0.479,0-0.66,0.06c-0.42,0-0.84,0.06-1.26,0.06h-1.32c-0.42,0-0.84,0-1.26,0.06c-0.84,0-1.68,0.06-2.58,0.06
		c-0.42,0-0.84-0.06-1.26-0.06c-0.3-0.06-0.42-0.48-0.42-0.78c0-0.42,0-0.78,0.061-1.2v-1.32c0.06-1.8,0.06-3.54,0.06-5.28
		c0-3.54,0.06-7.08,0.06-10.56c0-1.74-0.06-3.479,0.061-5.22c0.06-0.42,0.12-0.84,0.12-1.26c-0.061-0.42-0.061-0.84-0.061-1.32
		c0-0.84,0.061-1.74,0.061-2.64v-5.22c0-1.74,0.06-3.48,0.06-5.22v-0.9c0-0.06,0-0.3,0.061-0.3c0-0.06,0.18-0.12,0.239-0.12
		c0.061-0.06,0.181-0.12,0.24-0.12c0.24-0.12,0.42-0.12,0.6-0.12c0.841-0.12,1.74-0.06,2.58-0.06h2.58c0.84,0,1.68-0.06,2.52,0
		c0.181,0.06,0.36,0.06,0.54,0.06c0.061,0.06,0.24,0,0.301,0.06c0.12,0.06,0.18,0.18,0.18,0.24c0.24,0.36,0.479,0.72,0.66,1.08
		l1.26,2.28c0.899,1.5,1.74,3.06,2.58,4.56l2.52,4.56c0.78,1.5,1.62,3,2.46,4.5l0.54,1.08l0.3,0.54
		C311.939,34.127,312.119,34.187,312.239,34.247z"/>
	<path fill="#FEF290" d="M342.479,15.468c0.78-0.06,1.561-0.24,2.34-0.18c0.42,0,0.78,0.06,1.2,0.12h3.66c0.3,0,0.6,0,0.84,0.24
		l0.18,0.48l0.181,0.54l0.119,1.2c0,0.36,0.061,0.78,0,1.14c0,0.18-0.06,0.36-0.06,0.6c0,0.18,0.06,0.36,0.06,0.54l0.12,1.2v4.98
		c0,1.68,0,3.3,0.061,4.979v2.46c-0.061,0.18,0,0.36,0.06,0.54v0.6c0.061,0.42,0,0.84,0,1.26c-0.06,0.78,0.12,1.56,0.061,2.4
		c0,0.78-0.061,1.62-0.061,2.46l-0.12,4.98c0,1.62-0.06,3.3,0,4.979c0,0.78,0,1.62-0.06,2.46c-0.061,0.78-0.18,1.56-0.3,2.34
		c0,0.12,0,0.18-0.12,0.3l-0.12,0.12c-0.18,0.06-0.3,0.18-0.48,0.18c-0.3,0.12-0.6,0.12-0.96,0.12h-6.479
		c-0.12,0-0.42,0.06-0.6-0.06c-0.24-0.12-0.24-0.6-0.3-0.9v-3.66c0-1.68,0.06-3.36,0.06-4.979v-9.96c0-0.36,0.06-0.78,0.06-1.2
		c0-0.18,0.061-0.36,0.061-0.48c0-0.24-0.061-0.42-0.061-0.66c-0.06-0.78,0.061-1.62,0.061-2.4c0-0.42-0.061-0.78-0.061-1.2v-1.26
		c0.061-0.78,0.061-1.62,0.061-2.46c0.06-3.3,0-6.6,0.12-9.96C341.999,16.668,341.999,16.008,342.479,15.468z"/>
	<path fill="#FFFFFF" d="M369.839,24.527v6.48c0,0.12,0.06,0.3,0.12,0.42c0.119,0.06,0.42,0.06,0.54,0.12h1.739
		c1.561,0,3.18,0,4.74-0.12c0.84-0.06,1.62-0.06,2.46-0.06c0.72,0,1.5-0.12,2.22,0c0.54,0.12,0.96,0.48,1.08,1.02
		c0.06,0.3,0,0.66,0,0.96c-0.061,0.42-0.061,0.84-0.061,1.2c0,0.78-0.18,1.56-0.18,2.34v2.28c0,0.12,0,0.24-0.06,0.36
		c0,0.06-0.061,0.12-0.12,0.18c-0.061,0.12-0.12,0.12-0.24,0.18c-0.36,0.06-0.78,0.06-1.14,0.06c-0.78,0-1.561-0.06-2.4-0.06
		c-1.56,0.06-3.12,0.12-4.739,0.24c-0.78,0.06-1.561,0-2.34-0.06c-0.601,0-1.2-0.06-1.74,0.36c-0.061,0.12-0.18,0.18-0.24,0.36
		c0,0.18,0.061,0.42,0.061,0.66v1.14l0.18,2.4l0.18,2.34c0,0.06,0,0.18,0.061,0.24c0,0.12,0.06,0.18,0.119,0.24
		c0.181,0.06,0.301,0.12,0.421,0.12h1.02c0.84,0,1.62-0.06,2.399-0.06c0.841,0,1.62,0.06,2.4,0.06c1.62,0,3.24,0,4.8-0.06h1.26
		c0.36-0.06,0.78,0,1.14-0.06c0.54-0.06,1.261-0.3,1.74-0.06c0.48,0.3,0.54,0.96,0.48,1.44c0,0.78,0,1.62-0.061,2.4
		c0,0.78,0,1.62-0.06,2.4c-0.061,0.36,0,0.78,0,1.14c0,0.3-0.12,0.66-0.181,0.96l-0.119,0.24c-0.061,0-0.181,0.06-0.24,0.12
		l-0.42,0.3c-0.12,0.06-0.12,0.06-0.24,0.06h-0.9c-0.779-0.06-1.499-0.12-2.279-0.12c-0.18-0.06-0.36-0.06-0.54-0.06
		s-0.36,0.06-0.6,0.12c-0.36,0-0.721,0-1.141-0.06c-0.359,0-0.72,0.06-1.14,0c-0.36-0.06-0.72-0.06-1.14,0
		c-0.78,0-1.561,0-2.34-0.12c-0.841-0.06-1.62-0.06-2.4-0.06c-1.62-0.06-3.24-0.06-4.859-0.06l-4.8-0.12h-1.2
		c-0.18-0.06-0.36-0.06-0.54-0.06c-0.061,0-0.18,0-0.24-0.06c-0.06,0-0.06,0-0.06-0.06c-0.061-0.06-0.061-0.12-0.12-0.12
		c-0.12-0.36-0.061-0.72-0.061-1.08c0-0.42,0-0.78,0.061-1.2c0-0.42,0.06-0.84,0-1.2c0-0.42,0-0.84-0.061-1.2
		c0-0.84-0.06-1.62-0.06-2.399v-4.86c0-0.78,0-1.56,0.06-2.4c0.061-0.36,0.061-0.72,0.061-1.14v-1.2c-0.061-1.56-0.061-3.18,0-4.74
		c0.12-3.24,0.12-6.419,0.06-9.659c-0.06-1.62-0.18-3.24-0.18-4.8c0-0.84,0.06-1.62,0.12-2.4c0.06-0.42,0.06-0.84,0.06-1.2
		c0.061-0.3,0-0.6,0.181-0.84c0.06-0.18,0.239-0.3,0.479-0.3c0.3-0.06,0.66-0.06,1.021-0.06h2.459c1.561,0,3.12-0.12,4.74-0.18
		c1.62,0,3.24,0,4.859-0.06c0.78,0,1.62,0,2.4,0.06c0.84,0,1.62,0.06,2.4,0.06h5.279c0.12,0,0.12,0,0.18,0.12l0.181,0.3
		c0.18,0.3,0.239,0.66,0.3,1.02c0.12,0.78,0.18,1.56,0.24,2.28l0.3,2.4c0.06,0.54,0.12,1.14,0.06,1.68c0,0.3-0.12,0.6-0.359,0.72
		c-0.301,0.24-0.721,0.24-1.08,0.3l-2.28,0.18l-2.399,0.18c-1.62,0.18-3.24,0.18-4.8,0.18
		C372.839,24.587,371.339,24.587,369.839,24.527z"/>
</g>
<path fill="#FEF291" d="M440.824,23.264c0-5.482-3.151-11.561-10.175-11.561c-7.972,0-10.24,6.078-10.24,11.561
	c0,4.384,2.888,7.024,6.959,7.97l-0.525,24.914c0,1.593,1.641,2.888,3.742,2.888c2.101,0,3.807-1.295,3.741-2.888l-0.524-24.914
	C437.938,30.339,440.824,27.648,440.824,23.264L440.824,23.264z"/>
<path fill="#FEF291" d="M413.81,11.866c-0.942,0-1.677,0.562-1.677,1.276v10.605c0,0.305-0.337,0.561-0.738,0.561h-1.815
	c-0.403,0-0.738-0.256-0.738-0.561V13.091c-0.07-0.663-0.809-1.225-1.679-1.225c-0.941,0-1.679,0.562-1.679,1.276v10.605
	c0,0.305-0.337,0.561-0.74,0.561h-1.813c-0.405,0-0.74-0.256-0.74-0.561V13.091c0-0.714-0.738-1.276-1.679-1.276
	c-0.939,0-1.679,0.563-1.679,1.276v12.902c0,2.192,2.216,3.977,4.97,4.182l-0.535,25.854c0,1.632,1.677,2.956,3.829,2.956
	c2.149,0,3.896-1.324,3.828-2.956l-0.47-25.806c2.823-0.203,4.972-2.04,4.972-4.179V13.091
	C415.425,12.428,414.684,11.866,413.81,11.866L413.81,11.866z"/>
</svg>
