<?xml version="1.0" encoding="utf-8"?>
<!-- Generator: Adobe Illustrator 16.0.0, SVG Export Plug-In . SVG Version: 6.00 Build 0)  -->
<!DOCTYPE svg PUBLIC "-//W3C//DTD SVG 1.1//EN" "http://www.w3.org/Graphics/SVG/1.1/DTD/svg11.dtd">
<svg version="1.1" id="Calque_1" xmlns="http://www.w3.org/2000/svg" xmlns:xlink="http://www.w3.org/1999/xlink" x="0px" y="0px"
	 width="269.75px" height="62.5px" viewBox="0 0 269.75 62.5" enable-background="new 0 0 269.75 62.5" xml:space="preserve">
<g>
	<path fill="#FFFFFF" d="M25.92,40.967c0.36-0.06,0.66-0.18,1.02-0.18h1.2l2.46-0.18c0.84,0,1.62,0.06,2.4,0.12
		c0.36,0,0.72,0.12,1.08,0.12c0.3-0.06,0.6-0.18,0.9-0.06c0.6,0.18,0.66,0.96,0.66,1.44c0.06,0.84-0.06,1.68-0.12,2.459
		c-0.12,1.62-0.12,3.24-0.48,4.8c-0.3,1.44-0.84,2.88-1.74,4.08c-0.479,0.6-1.08,1.14-1.62,1.68l-0.78,0.72
		c-0.3,0.18-0.6,0.36-0.9,0.48c-1.32,0.66-2.76,1.32-4.26,1.68c-0.72,0.18-1.5,0.24-2.22,0.18c-0.84,0-1.68,0-2.46,0.06
		c-0.42,0-0.78,0.06-1.2,0.06c-0.36,0-0.78-0.06-1.14-0.12c-0.72-0.12-1.38-0.24-2.04-0.42c-1.38-0.36-2.7-0.9-3.84-1.62
		c-1.2-0.78-2.28-1.68-3.06-2.88c-0.78-1.2-1.38-2.64-1.74-4.08c-0.24-0.72-0.42-1.5-0.54-2.22c-0.06-0.42-0.12-0.78-0.12-1.2
		s0.06-0.78,0.06-1.2c0.06-0.78,0-1.62,0.06-2.4c0.06-0.84,0.06-1.62,0.06-2.46c0.06-0.84,0.18-1.62,0.18-2.459
		c0.06-0.84,0-1.68,0-2.46c-0.06-0.84,0-1.68-0.06-2.52c-0.06-0.36-0.06-0.78-0.06-1.2l0.12-1.2c0.06-1.56-0.06-3.18,0.24-4.8
		c0.24-1.2,0.66-2.4,1.32-3.48c0.66-1.14,1.5-2.04,2.52-2.88c0.54-0.48,1.02-1.02,1.62-1.44s1.26-0.78,1.98-1.14
		c1.26-0.66,2.7-1.32,4.2-1.56c0.42-0.06,0.78-0.06,1.2-0.06l1.2-0.18c0.78-0.06,1.56,0.06,2.34,0.18c1.44,0.3,3,0.66,4.2,1.56
		c0.54,0.42,1.2,0.78,1.74,1.2s1.02,0.9,1.5,1.44c0.96,1.08,1.8,2.28,2.28,3.66c0.54,1.44,0.78,3,0.9,4.56s0.06,3.18,0.06,4.74
		c0,0.66,0.06,1.44-0.72,1.68c-0.36,0.12-0.78,0.06-1.14,0.06s-0.78,0-1.2,0.06c-1.62,0.06-3.3,0.06-4.919-0.12l-1.2-0.18
		c-0.24-0.06-0.54-0.12-0.72-0.36c-0.18-0.24-0.24-0.54-0.24-0.84c0-0.36,0.06-0.78,0.06-1.2c0.06-0.78,0.24-1.56,0.36-2.34
		c0.06-0.78,0-1.56-0.24-2.28c-0.12-0.3-0.3-0.6-0.48-0.78c-0.24-0.24-0.54-0.42-0.84-0.6c-0.6-0.36-1.26-0.72-1.92-0.84
		c-1.2-0.24-2.459,0.18-3.18,1.2c-0.42,0.54-0.54,1.26-0.72,1.92c-0.24,0.72-0.42,1.5-0.54,2.28c-0.24,1.62-0.24,3.24-0.24,4.86
		c0.06,1.62,0,3.3,0.06,4.92c0,0.84,0.06,1.68,0.12,2.52c0,0.36,0.06,0.78,0.12,1.2c0.06,0.42,0.12,0.78,0.24,1.2
		c0.12,0.36,0.18,0.72,0.18,1.08l0.12,1.08c0.24,0.66,0.6,1.26,1.14,1.62c0.6,0.42,1.32,0.6,1.98,0.66c0.78,0.12,1.56,0,2.28-0.3
		c0.48-0.18,0.96-0.54,1.2-1.08l0.3-1.02c0.12-0.36,0.18-0.78,0.18-1.14c0.06-0.36,0.06-0.72,0.06-1.14c0-0.36,0.06-0.78,0.06-1.14
		c0.06-0.36,0.06-0.72,0.18-1.02C25.44,41.447,25.68,41.207,25.92,40.967z"/>
	<path fill="#FFF48F" d="M44.16,15.468c0.78-0.06,1.56-0.24,2.34-0.18c0.42,0,0.78,0.06,1.2,0.12h3.66c0.3,0,0.6,0,0.84,0.24
		l0.18,0.48l0.18,0.54l0.12,1.2c0,0.36,0.06,0.78,0,1.14c0,0.18-0.06,0.36-0.06,0.6c0,0.18,0.06,0.36,0.06,0.54l0.12,1.2v4.98
		c0,1.68,0,3.3,0.06,4.979v2.46c-0.06,0.18,0,0.36,0.06,0.54v0.6c0.06,0.42,0,0.84,0,1.26c-0.06,0.78,0.12,1.56,0.06,2.4
		c0,0.78-0.06,1.62-0.06,2.46l-0.12,4.98c0,1.62-0.06,3.3,0,4.979c0,0.78,0,1.62-0.06,2.46c-0.06,0.78-0.18,1.56-0.3,2.34
		c0,0.12,0,0.18-0.12,0.3l-0.12,0.12c-0.18,0.06-0.3,0.18-0.48,0.18c-0.3,0.12-0.6,0.12-0.96,0.12h-6.48c-0.12,0-0.42,0.06-0.6-0.06
		c-0.24-0.12-0.24-0.6-0.3-0.9v-3.66c0-1.68,0.06-3.36,0.06-4.979v-9.96c0-0.36,0.06-0.78,0.06-1.2c0-0.18,0.06-0.36,0.06-0.48
		c0-0.24-0.06-0.42-0.06-0.66c-0.06-0.78,0.06-1.62,0.06-2.4c0-0.42-0.06-0.78-0.06-1.2v-1.26c0.06-0.78,0.06-1.62,0.06-2.46
		c0.06-3.3,0-6.6,0.12-9.96C43.681,16.668,43.681,16.008,44.16,15.468z"/>
	<path fill="#FFFFFF" d="M89.339,55.786c-0.3,0.3-0.72,0.54-1.14,0.66s-0.84,0.12-1.26,0.06h-3.18c-1.02,0-2.04-0.18-3.06-0.12
		c-0.24,0-0.42-0.06-0.66-0.06c-0.06-0.06-0.12-0.06-0.18-0.06c0,0-0.06-0.12-0.12-0.18c-0.06-0.06-0.12-0.18-0.12-0.24
		c-0.24-0.54-0.36-1.02-0.54-1.5c-0.72-1.92-1.62-3.78-2.4-5.7c-0.84-1.92-1.74-3.84-2.64-5.76l-1.38-2.76l-0.72-1.38
		c-0.18-0.36-0.3-0.72-0.72-0.9c0-0.06-0.12-0.06-0.12-0.06l-0.06,0.12c0,0.12-0.06,0.24-0.12,0.36l-0.12,0.72v1.56
		c-0.06,1.08-0.06,2.16-0.06,3.24l0.12,6.36c0.06,1.02,0.12,2.1,0.12,3.12v1.62c0,0.24-0.06,0.48-0.06,0.72
		c-0.06,0.24-0.06,0.48-0.18,0.66c-0.3,0.3-0.66,0.24-1.02,0.24H68.1c-1.08,0-2.16,0-3.24-0.06c-1.02-0.06-2.04-0.06-3.06-0.3h-0.12
		v-0.18l-0.12-0.36v-2.34c0-2.16,0.06-4.319,0.12-6.419c0.06-2.16,0.12-4.32,0.12-6.42c0.06-4.32,0.06-8.58,0.06-12.839
		c0-2.16,0-4.32,0.06-6.479c0-1.08-0.06-2.16,0-3.18c0-0.54,0.06-1.08,0.12-1.56c0-0.48,0-0.84,0.36-1.14
		c0.06-0.06,0.18-0.12,0.24-0.12c0.12-0.06,0.24,0,0.36,0h0.84c0.48,0.06,1.02,0.06,1.56,0.06c1.08,0,2.16,0,3.18-0.12
		c0.54,0,1.02-0.06,1.5,0l0.66,0.18c0.12,0.06,0.24,0.06,0.3,0.18c0.12,0.06,0.18,0.18,0.24,0.3c0.24,0.48,0.42,0.96,0.6,1.44
		l0.72,1.5c1.74,3.899,3.36,7.799,4.98,11.699c0.24,0.48,0.42,0.96,0.6,1.44l0.3,0.66c0.12,0.24,0.24,0.36,0.36,0.54
		c0.12-0.12,0.36-0.24,0.42-0.48l0.12-0.84v-0.84c-0.06-0.24,0-0.54,0-0.84c0-0.54,0.06-1.14,0.06-1.68c0-0.54-0.06-1.14-0.06-1.68
		c0-2.34,0.06-4.62,0.06-6.96c0-1.14,0-2.28,0.06-3.479c0.06-0.42,0.12-0.9,0.48-1.2c0.18-0.12,0.42-0.12,0.66-0.12
		c0.3-0.06,0.54-0.12,0.84-0.12c1.14-0.18,2.28-0.12,3.479-0.12c1.14,0,2.28,0,3.48,0.06c0.3,0,0.66,0.06,0.84,0.3
		c0.24,0.24,0.3,0.66,0.36,1.02c0.12,1.14,0,2.28,0,3.42c-0.06,2.34,0,4.62,0,6.959c0,2.34,0,4.68,0.06,7.02
		c0,2.28-0.06,4.62-0.12,6.959v6.96c0,1.14-0.06,2.34-0.06,3.48c0,0.54,0.06,1.14,0.06,1.74c0,0.54-0.06,1.08-0.12,1.68
		C89.459,54.766,89.399,55.246,89.339,55.786z"/>
	<path fill="#FFFFFF" d="M108.299,24.527v6.48c0,0.12,0.06,0.3,0.12,0.42c0.12,0.06,0.42,0.06,0.54,0.12h1.74
		c1.56,0,3.18,0,4.74-0.12c0.84-0.06,1.62-0.06,2.459-0.06c0.72,0,1.5-0.12,2.22,0c0.54,0.12,0.96,0.48,1.08,1.02
		c0.06,0.3,0,0.66,0,0.96c-0.06,0.42-0.06,0.84-0.06,1.2c0,0.78-0.18,1.56-0.18,2.34v2.28c0,0.12,0,0.24-0.06,0.36
		c0,0.06-0.06,0.12-0.12,0.18c-0.06,0.12-0.12,0.12-0.24,0.18c-0.36,0.06-0.78,0.06-1.14,0.06c-0.78,0-1.56-0.06-2.4-0.06
		c-1.56,0.06-3.12,0.12-4.74,0.24c-0.78,0.06-1.56,0-2.34-0.06c-0.6,0-1.2-0.06-1.74,0.36c-0.06,0.12-0.18,0.18-0.24,0.36
		c0,0.18,0.06,0.42,0.06,0.66v1.14l0.18,2.4l0.18,2.34c0,0.06,0,0.18,0.06,0.24c0,0.12,0.06,0.18,0.12,0.24
		c0.18,0.06,0.3,0.12,0.42,0.12h1.02c0.84,0,1.62-0.06,2.4-0.06c0.84,0,1.62,0.06,2.4,0.06c1.62,0,3.24,0,4.8-0.06h1.26
		c0.36-0.06,0.78,0,1.14-0.06c0.54-0.06,1.26-0.3,1.74-0.06c0.48,0.3,0.54,0.96,0.48,1.44c0,0.78,0,1.62-0.06,2.4
		c0,0.78,0,1.62-0.06,2.4c-0.06,0.36,0,0.78,0,1.14c0,0.3-0.12,0.66-0.18,0.96l-0.12,0.24c-0.06,0-0.18,0.06-0.24,0.12l-0.42,0.3
		c-0.12,0.06-0.12,0.06-0.24,0.06h-0.9c-0.78-0.06-1.5-0.12-2.28-0.12c-0.18-0.06-0.36-0.06-0.54-0.06s-0.36,0.06-0.6,0.12
		c-0.36,0-0.72,0-1.14-0.06c-0.36,0-0.72,0.06-1.14,0c-0.36-0.06-0.72-0.06-1.14,0c-0.78,0-1.56,0-2.34-0.12
		c-0.84-0.06-1.62-0.06-2.4-0.06c-1.62-0.06-3.24-0.06-4.86-0.06l-4.8-0.12h-1.2c-0.18-0.06-0.36-0.06-0.54-0.06
		c-0.06,0-0.18,0-0.24-0.06c-0.06,0-0.06,0-0.06-0.06c-0.06-0.06-0.06-0.12-0.12-0.12c-0.12-0.36-0.06-0.72-0.06-1.08
		c0-0.42,0-0.78,0.06-1.2c0-0.42,0.06-0.84,0-1.2c0-0.42,0-0.84-0.06-1.2c0-0.84-0.06-1.62-0.06-2.399v-4.86c0-0.78,0-1.56,0.06-2.4
		c0.06-0.36,0.06-0.72,0.06-1.14v-1.2c-0.06-1.56-0.06-3.18,0-4.74c0.12-3.24,0.12-6.419,0.06-9.659c-0.06-1.62-0.18-3.24-0.18-4.8
		c0-0.84,0.06-1.62,0.12-2.4c0.06-0.42,0.06-0.84,0.06-1.2c0.06-0.3,0-0.6,0.18-0.84c0.06-0.18,0.24-0.3,0.48-0.3
		c0.3-0.06,0.66-0.06,1.02-0.06h2.46c1.56,0,3.12-0.12,4.74-0.18c1.62,0,3.24,0,4.86-0.06c0.78,0,1.62,0,2.4,0.06
		c0.84,0,1.62,0.06,2.4,0.06h5.28c0.12,0,0.12,0,0.18,0.12l0.18,0.3c0.18,0.3,0.24,0.66,0.3,1.02c0.12,0.78,0.18,1.56,0.24,2.28
		l0.3,2.4c0.06,0.54,0.12,1.14,0.06,1.68c0,0.3-0.12,0.6-0.36,0.72c-0.3,0.24-0.72,0.24-1.08,0.3l-2.28,0.18l-2.4,0.18
		c-1.62,0.18-3.24,0.18-4.8,0.18C111.299,24.587,109.799,24.587,108.299,24.527z"/>
	<path fill="#FFFFFF" d="M152.578,34.247c0.479-0.66,0.899-1.44,1.26-2.16c0.48-0.78,0.9-1.56,1.32-2.34c0.779-1.5,1.619-3,2.46-4.5
		l2.52-4.56c0.42-0.72,0.78-1.5,1.26-2.28l0.601-1.02l0.539-1.02c0.12-0.3,0.24-0.6,0.48-0.9c0.12-0.12,0.24-0.3,0.36-0.36
		c0.18-0.06,0.479-0.06,0.659-0.06c0.84-0.12,1.681-0.06,2.521-0.06h5.1c0.42,0.06,0.78,0.12,1.08,0.3
		c0.12,0.06,0.18,0.06,0.18,0.18c0.061,0.06,0.061,0.18,0.061,0.24c0.06,0.18,0.06,0.42,0.06,0.6c-0.06,0.9-0.06,1.8-0.06,2.7
		c0,0.84,0.119,1.74,0.119,2.64c0.061,0.84,0,1.74,0,2.58c0,1.8,0.061,3.54,0.061,5.28v5.28l0.12,5.28
		c0.06,1.74,0.06,3.48,0.06,5.22c0.061,1.74,0.061,3.54,0.061,5.28v2.58c0,0.9,0.06,1.74,0,2.64c0,0.18-0.061,0.36-0.061,0.54v0.12
		c0,0.06,0,0.06-0.12,0.06c-0.06,0.06-0.18,0.06-0.3,0.06c-0.36,0.12-0.78,0.12-1.2,0.12c-0.84,0-1.739-0.06-2.579-0.06
		c-0.421-0.06-0.841-0.06-1.32-0.06h-1.26c-0.42,0-0.84-0.06-1.26-0.12h-0.601c-0.18,0-0.359,0.06-0.54-0.06
		c-0.06,0-0.12-0.06-0.18-0.06c-0.12-0.06-0.12-0.18-0.18-0.24l-0.181-0.54c-0.12-0.36-0.12-0.78-0.12-1.14v-7.86
		c0-3.54,0-7.02,0.061-10.5c0-0.84,0-1.62-0.061-2.459c-0.06,0.12-0.239,0.12-0.3,0.24l-0.3,0.42l-0.54,0.96
		c-0.359,0.6-0.78,1.26-1.08,1.86c-0.72,1.26-1.14,2.64-1.739,3.9l-1.98,4.08c-0.3,0.66-0.6,1.32-0.84,1.98
		c-0.24,0.54-0.36,1.2-0.84,1.56c-0.42,0.36-1.021,0.3-1.56,0.36l-1.08,0.12c-0.36,0.06-0.66,0.18-1.021,0.18h-1.08
		c-0.3,0.06-0.6,0.12-0.96,0.12c-0.479-0.06-0.899-0.36-1.14-0.72c-0.42-0.54-0.54-1.14-0.78-1.74
		c-0.239-0.66-0.479-1.32-0.779-1.92c-0.36-0.66-0.66-1.32-0.96-1.98l-0.9-1.92c-0.6-1.26-1.14-2.58-1.8-3.84
		c-0.3-0.6-0.6-1.26-0.96-1.86l-0.54-0.9l-0.3-0.48l-0.48-0.36c-0.06,0.84-0.06,1.74-0.06,2.58v7.92c0,0.9,0,1.74,0.06,2.64v2.64
		c0,0.84-0.06,1.74-0.06,2.58c0.06,0.42,0.18,0.78,0.12,1.14c-0.061,0.42-0.061,0.84-0.061,1.26c0,0.36,0.061,0.72-0.06,1.14
		l-0.18,0.54c-0.061,0.12-0.061,0.12-0.181,0.18c-0.06,0.06-0.12,0.12-0.239,0.12c-0.181,0.06-0.301,0.06-0.48,0.06
		c-0.24,0-0.48,0-0.66,0.06c-0.42,0-0.84,0.06-1.26,0.06h-1.32c-0.42,0-0.84,0-1.26,0.06c-0.84,0-1.68,0.06-2.58,0.06
		c-0.42,0-0.84-0.06-1.26-0.06c-0.3-0.06-0.42-0.48-0.42-0.78c0-0.42,0-0.78,0.061-1.2v-1.32c0.06-1.8,0.06-3.54,0.06-5.28
		c0-3.54,0.06-7.08,0.06-10.56c0-1.74-0.06-3.479,0.061-5.22c0.06-0.42,0.12-0.84,0.12-1.26c-0.061-0.42-0.061-0.84-0.061-1.32
		c0-0.84,0.061-1.74,0.061-2.64v-5.22c0-1.74,0.06-3.48,0.06-5.22v-0.9c0-0.06,0-0.3,0.061-0.3c0-0.06,0.18-0.12,0.239-0.12
		c0.061-0.06,0.181-0.12,0.24-0.12c0.24-0.12,0.42-0.12,0.601-0.12c0.84-0.12,1.739-0.06,2.579-0.06h2.58c0.84,0,1.68-0.06,2.521,0
		c0.18,0.06,0.359,0.06,0.539,0.06c0.061,0.06,0.24,0,0.301,0.06c0.119,0.06,0.18,0.18,0.18,0.24c0.24,0.36,0.479,0.72,0.66,1.08
		l1.26,2.28c0.9,1.5,1.74,3.06,2.58,4.56l2.52,4.56c0.78,1.5,1.62,3,2.46,4.5l0.54,1.08l0.3,0.54
		C152.278,34.127,152.458,34.187,152.578,34.247z"/>
	<path fill="#FFFFFF" d="M209.337,56.146c-0.42,0.36-0.841,0.48-1.38,0.48c-0.601,0.06-1.2,0.06-1.801,0.06
		c-1.199,0.06-2.459,0.06-3.659,0c-0.54,0-1.141,0-1.681-0.12c-0.3-0.06-0.539-0.12-0.779-0.24c-0.12,0-0.18-0.06-0.3-0.18
		c-0.12-0.06-0.12-0.24-0.12-0.36c-0.061-0.6,0-1.2,0-1.8c0.06-0.6,0-1.14,0-1.74c-0.061-0.6,0-1.2,0-1.74c0-0.3,0-0.66-0.061-0.96
		c0-0.06,0-0.36-0.06-0.42c-0.061-0.06-0.3-0.06-0.36-0.06c-0.3-0.06-0.6-0.06-0.899-0.06h-0.96c-0.601,0-1.2-0.06-1.8-0.06h-0.841
		c-0.3,0-0.539-0.06-0.84-0.12c-0.54-0.06-1.14,0.06-1.68,0.12c-0.24,0-0.54,0-0.78,0.12c-0.06,0-0.12,0.06-0.12,0.06
		c-0.06,0.06-0.06,0.12-0.06,0.18c0.06,0.12,0.06,0.3,0.06,0.42c0,0.3,0.061,0.6,0.061,0.9s0,0.54-0.061,0.84
		c-0.119,1.2-0.06,2.4-0.119,3.6c0,0.48,0,1.02-0.36,1.32c-0.36,0.36-0.9,0.24-1.38,0.24c-1.2,0-6.899,0-7.14-0.06
		c-0.061,0-0.24,0-0.36-0.06c-0.06-0.06-0.06-0.24-0.12-0.36c-0.06-0.3,0-0.6,0.061-0.9v-0.9c0-1.2,0-2.4-0.061-3.6
		c0-1.2,0-2.4,0.12-3.6c0.12-1.2,0.061-2.4,0.061-3.6v-9.12c0-0.3,0-0.6-0.061-0.9c-0.06-0.3-0.12-0.54-0.12-0.84
		c0.061-1.2,0.061-2.4,0.061-3.66c0-1.14,0-2.34,0.24-3.54c0.119-1.08,0.479-2.1,0.96-3.12l0.899-1.44c0.3-0.48,0.54-0.96,0.9-1.38
		c0.359-0.48,0.72-0.84,1.14-1.26l1.14-1.08c0.78-0.66,1.681-1.08,2.641-1.44c0.54-0.18,1.079-0.48,1.619-0.6
		c0.54-0.18,1.141-0.3,1.74-0.42c0.54-0.12,1.14-0.18,1.74-0.24c0.6-0.06,1.2-0.06,1.8-0.06c1.14,0.12,2.279,0.48,3.359,0.84
		c1.08,0.3,2.101,0.78,3.12,1.32c0.96,0.54,1.92,1.08,2.7,1.8c1.56,1.38,2.64,3.36,3.18,5.34c0.3,1.14,0.42,2.34,0.54,3.48
		c0.06,0.3,0.06,0.6,0.06,0.9c0.061,0.3,0.12,0.6,0.061,0.84l-0.18,1.8c-0.061,1.26,0,2.46,0,3.66v18.359c0,0.54,0,1.14-0.061,1.74
		v0.9C209.396,55.667,209.396,55.906,209.337,56.146z M199.497,40.787l0.18-4.919l0.12-2.4c0-0.36,0-0.78,0.061-1.14
		c0-0.42,0.06-0.84,0.06-1.2c0-0.42-0.06-0.84-0.12-1.2l-0.12-1.14c-0.06-0.66-0.24-1.26-0.479-1.86c-0.42-1.2-1.38-2.34-2.7-2.7
		c-0.66-0.18-1.44-0.18-2.16,0.06c-0.6,0.18-1.26,0.48-1.739,0.9c-0.42,0.36-0.78,0.78-0.96,1.32c-0.24,0.6-0.24,1.2-0.301,1.86
		c0,1.68-0.06,3.36,0,5.04v2.46c-0.06,0.84-0.06,1.68-0.06,2.46c0,0.42,0.06,0.84,0.06,1.26v0.6c0,0.18-0.06,0.3,0,0.48
		c0,0.12,0.12,0.24,0.24,0.3c0.24,0,0.42-0.06,0.66-0.06h1.2c1.56,0,3.18-0.06,4.8-0.06
		C198.657,40.787,199.077,40.787,199.497,40.787z"/>
</g>
<g>
	<path fill="#FFFFFF" d="M105.107,12.776c-0.072-0.142-0.021-0.374,0.002-0.423c1.06-2.173,0.841-1.767,1.683-3.815l1.142-2.601
		c0,0,0.447-1.146,0.501-1.256l0.272-0.218c0.163-0.11,0.327-0.165,0.49-0.166l0.819-0.003l1.637-0.098
		c0.274-0.001,1.745,0.031,1.745,0.031c0.544-0.057,1.145-0.004,1.691,0.049c0.273,0.054,0.546,0.052,0.818,0.051
		c0.273,0.054,0.6-0.002,0.873,0.052l0.764,0.161c0.109,0.054,0.219,0.054,0.329,0.163c0.054,0.054,0.164,0.163,0.164,0.272
		c0.055,0.164,0.07,0.125,0.002,0.546s-1.43,2.441-1.43,2.441c-0.789,1.513-1.684,2.229-3.179,4.211
		c-0.071,0.094-0.456,0.696-0.896,0.825S105.239,13.036,105.107,12.776z"/>
</g>
<path fill="#FEF291" d="M254.783,15.039h-27.105c-1.926,0.002-3.771,0.768-5.133,2.128c-1.36,1.362-2.127,3.207-2.128,5.132v27.106
	c0.002,1.925,0.768,3.77,2.128,5.131c1.362,1.361,3.206,2.127,5.133,2.129h27.105c1.926-0.002,3.771-0.768,5.131-2.129
	c1.362-1.362,2.127-3.207,2.13-5.131V22.3c-0.003-1.926-0.768-3.771-2.13-5.132C258.554,15.807,256.709,15.041,254.783,15.039z
	 M259.14,34.399h-6.776v-5.808h6.776V34.399z M230.097,34.399h-6.775v-5.808h6.775V34.399z M223.32,37.304h6.776v5.809h-6.775
	L223.32,37.304z M252.362,37.304h6.777v5.809h-6.777V37.304z M259.14,22.3v3.388h-6.776v-7.745h2.42
	c1.155,0.001,2.263,0.461,3.08,1.278C258.679,20.038,259.139,21.145,259.14,22.3z M227.678,17.943h2.419v7.744h-6.775v-3.388
	c0.001-1.155,0.461-2.262,1.277-3.078C225.415,18.405,226.522,17.944,227.678,17.943z M223.321,49.406v-3.389h6.776v7.744h-2.42
	c-1.155-0.002-2.263-0.462-3.079-1.279C223.782,51.666,223.322,50.56,223.321,49.406z M254.783,53.762h-2.42v-7.745h6.776v3.389
	c-0.001,1.155-0.461,2.261-1.276,3.078C257.046,53.3,255.938,53.76,254.783,53.762L254.783,53.762z"/>
</svg>
