<?xml version="1.0" encoding="utf-8"?>
<!-- Generator: Adobe Illustrator 16.0.0, SVG Export Plug-In . SVG Version: 6.00 Build 0)  -->
<!DOCTYPE svg PUBLIC "-//W3C//DTD SVG 1.1//EN" "http://www.w3.org/Graphics/SVG/1.1/DTD/svg11.dtd">
<svg version="1.1" id="Calque_1" xmlns="http://www.w3.org/2000/svg" xmlns:xlink="http://www.w3.org/1999/xlink" x="0px" y="0px"
	 width="276.084px" height="62.5px" viewBox="0 0 276.084 62.5" enable-background="new 0 0 276.084 62.5" xml:space="preserve">
<g>
	<path fill="#FFFFFF" d="M6.122,15.168l4.2-0.12c0.66-0.06,1.38-0.06,2.04-0.06c0.36-0.06,0.66-0.06,1.02-0.06
		c0.18,0,0.3,0,0.48,0.06h0.24l0.18,0.12c0.42,0.42,0.54,0.96,0.66,1.5l0.42,2.04c0.3,1.38,0.54,2.76,0.78,4.08
		c0.48,2.76,1.02,5.52,1.56,8.34c0.24,1.32,0.48,2.7,0.84,4.02c0.3,1.38,0.72,2.7,1.02,4.08l0.24,1.02l0.3,0.96
		c0,0.12,0.06,0.3,0.12,0.36c0.12,0.06,0.36,0.06,0.48,0.06s0.24-0.06,0.36-0.12l0.12-0.12c0-0.12,0.06-0.18,0.06-0.3
		c0.18-0.66,0.24-1.32,0.36-1.98l0.36-2.1l1.44-8.339l1.38-8.34c0.12-0.72,0.24-1.44,0.3-2.1l0.36-2.1c0-0.12,0.06-0.3,0.12-0.42
		c0.06-0.06,0.06-0.12,0.06-0.18c0.06-0.12,0.06-0.12,0.18-0.18c0.3-0.12,0.6-0.12,0.9-0.12l2.04-0.18h1.02c0.18,0,0.36,0,0.54,0.06
		c0.06,0,0.12,0.06,0.18,0.06c0.12,0,0.24-0.06,0.3-0.06c0.72-0.06,1.38,0.06,2.04,0.12c0.66,0.06,1.32,0,1.98,0.06
		c0.48,0.12,1.32,0.18,1.38,0.84c0,0.3-0.12,0.6-0.24,0.9c-0.06,0.36-0.12,0.72-0.24,1.02l-0.54,2.04l-1.08,4.02
		c-0.78,2.7-1.38,5.4-2.16,8.04c-0.84,2.7-1.56,5.399-2.28,8.1l-2.16,8.16c-0.36,1.32-0.72,2.7-1.14,4.02
		c-0.18,0.66-0.36,1.32-0.6,1.98c-0.18,0.66-0.36,1.26-0.78,1.74c-0.3,0.48-0.84,0.48-1.38,0.48c-0.72,0-1.38,0.06-2.1,0.06
		c-0.72,0-1.38,0-2.1,0.06h-1.02c-0.36,0-0.66-0.06-0.96-0.06c-0.6-0.06-1.14,0.24-1.68-0.12c-0.48-0.24-0.54-0.84-0.66-1.38
		l-1.14-3.9c-0.36-1.38-0.66-2.7-0.96-4.08c-0.36-1.32-0.72-2.64-1.02-4.02l-1.08-4.08l-0.9-4.02c-0.3-1.38-0.66-2.76-1.02-4.08
		c-0.36-1.38-0.6-2.7-0.9-4.08l-0.96-4.08c-0.24-1.32-0.42-2.7-0.78-4.02c-0.18-0.66-0.42-1.26-0.48-1.92c0-0.36,0-0.66,0.06-1.02
		C5.882,15.588,6.001,15.408,6.122,15.168z"/>
	<path fill="#FFFFFF" d="M55.621,58.306c-0.96,0-1.92,0.06-2.88-0.06c-0.9-0.12-1.86-0.3-2.76-0.66c-1.74-0.6-3.48-1.44-4.86-2.76
		c-1.38-1.26-1.86-2.94-2.4-4.74c-0.3-0.96-0.48-1.92-0.6-2.88c-0.06-0.54-0.06-1.02,0-1.56l0.12-20.999c0.06-1.02,0.3-2.04,0.54-3
		c0.24-0.9,0.72-1.68,1.32-2.34c0.54-0.72,1.14-1.38,1.92-1.92c0.72-0.6,1.56-1.02,2.46-1.38s1.86-0.66,2.82-0.84
		c1.02-0.24,2.1-0.48,3.12-0.6s2.04-0.12,3.06-0.12c0.96,0.06,1.92,0.24,2.82,0.54c0.9,0.24,1.8,0.6,2.7,1.02
		c0.78,0.36,1.5,0.78,2.1,1.32c0.66,0.54,1.26,1.14,1.74,1.86c0.54,0.78,0.9,1.68,1.26,2.58c0.18,0.42,0.36,0.9,0.48,1.38
		c0.12,0.42,0.18,0.96,0.24,1.44l0.3,22.079c-0.12,1.02-0.24,2.1-0.42,3.12c-0.12,0.48-0.24,0.96-0.42,1.44
		c-0.18,0.42-0.42,0.84-0.66,1.26c-0.42,0.78-0.9,1.56-1.5,2.22c-0.66,0.66-1.38,1.26-2.16,1.68c-0.42,0.24-0.84,0.42-1.32,0.6
		l-1.38,0.6c-0.9,0.36-1.8,0.6-2.76,0.66c-0.48,0.06-0.9,0.06-1.38,0.06H55.621z M51.301,43.067c0,0.96,0.06,1.92,0.36,2.82
		c0.24,0.78,0.6,1.68,1.2,2.22c0.6,0.6,1.5,0.84,2.34,0.9c0.84,0.06,1.68-0.18,2.4-0.72c1.32-1.02,1.68-2.82,1.8-4.44
		c0.18-2.04,0.3-4.08,0.24-6.18c0-1.02,0.06-2.04-0.06-3.06c-0.06-0.54-0.06-1.08-0.06-1.56c0-0.54,0.06-1.02,0.06-1.5
		c0.12-1.02-0.12-1.98-0.3-3c-0.06-0.42-0.12-0.84-0.3-1.26c-0.12-0.36-0.3-0.72-0.54-1.02c-0.479-0.66-1.08-1.26-1.86-1.44
		c-0.78-0.24-1.68-0.12-2.459,0.12c-0.42,0.18-0.84,0.3-1.2,0.54c-0.36,0.24-0.54,0.54-0.78,0.9c-0.18,0.42-0.36,0.84-0.48,1.26
		c-0.12,0.48-0.18,0.96-0.24,1.44c-0.12,1.02-0.12,2.04-0.12,3.12v4.68C51.301,38.927,51.241,41.027,51.301,43.067z"/>
	<path fill="#FFFFFF" d="M73.262,15.648c0.06-0.42,0.3-0.84,0.84-0.96c0.3,0,0.66,0.06,0.96,0.06c0.42,0.06,0.78,0.06,1.2,0.06
		l4.8,0.18h0.9c0,0.06,0.06,0.18,0.12,0.18l0.54,0.9l0.96,1.92l2.16,4.08c0.78,1.56,1.5,3.12,2.22,4.68l0.36-0.54l0.3-0.66
		c0.18-0.48,0.42-0.9,0.6-1.32l1.2-2.76c0.78-1.8,1.5-3.66,2.34-5.4c0.3-0.6,0.78-1.02,1.44-1.02c0.48,0,0.96,0.12,1.38,0.12
		c0.54,0,1.02,0,1.5-0.12c0.54-0.06,1.02-0.06,1.5-0.06c0.54-0.06,1.08-0.06,1.62-0.06h0.66c0.24,0,0.54-0.06,0.78,0
		c0.12,0,0.24,0.06,0.3,0.06c0.12,0,0.12,0,0.18,0.12l0.06,0.12c0.06,0.24,0.12,0.42,0.06,0.66c0,0.42-0.18,0.84-0.36,1.26
		c-0.06,0.18-0.24,0.3-0.36,0.48l-0.36,0.6c-0.18,0.42-0.36,0.84-0.6,1.26c-0.18,0.42-0.48,0.84-0.72,1.32l-1.38,2.58l-1.2,2.7
		L96,28.728c-0.36,0.9-0.72,1.8-1.14,2.7l-2.399,4.98c-0.06,0.12-0.12,0.24-0.12,0.36c-0.06,0.12-0.06,0.18-0.06,0.36v5.22
		c0,1.08-0.06,2.1-0.06,3.12v3.06c-0.06,0.48-0.12,1.02-0.12,1.5s0.06,1.02,0.06,1.5l0.18,3.06c0,0.42,0.06,0.84,0,1.26
		c-0.06,0.24-0.06,0.48-0.24,0.6c-0.18,0.18-0.48,0.18-0.66,0.18l-1.44-0.12c-1.02,0-2.04,0.06-3.06,0.06h-1.5
		c-0.42,0.06-0.84,0.18-1.32,0.18c-0.78-0.06-0.9-1.08-0.9-1.68c0-1.02,0.12-2.04,0.12-3c0.06-2.04,0-4.14,0-6.18v-4.56
		c-0.06-0.54-0.12-1.08-0.12-1.56v-3c-0.06-0.42-0.12-0.9-0.3-1.32l-0.6-1.26c-0.42-0.9-0.84-1.86-1.32-2.76l-1.32-2.64l-1.38-2.76
		l-1.26-2.7c-0.42-0.84-0.9-1.68-1.32-2.58c-0.48-0.84-0.84-1.74-1.32-2.58C73.981,17.328,73.622,16.488,73.262,15.648z"/>
	<path fill="#FFFFFF" d="M133.681,56.146c-0.42,0.36-0.841,0.48-1.38,0.48c-0.601,0.06-1.2,0.06-1.801,0.06
		c-1.199,0.06-2.459,0.06-3.659,0c-0.54,0-1.14,0-1.68-0.12c-0.3-0.06-0.54-0.12-0.78-0.24c-0.12,0-0.18-0.06-0.3-0.18
		c-0.12-0.06-0.12-0.24-0.12-0.36c-0.06-0.6,0-1.2,0-1.8c0.06-0.6,0-1.14,0-1.74c-0.06-0.6,0-1.2,0-1.74c0-0.3,0-0.66-0.06-0.96
		c0-0.06,0-0.36-0.06-0.42s-0.3-0.06-0.36-0.06c-0.3-0.06-0.6-0.06-0.9-0.06h-0.96c-0.6,0-1.2-0.06-1.8-0.06h-0.84
		c-0.3,0-0.54-0.06-0.84-0.12c-0.54-0.06-1.14,0.06-1.68,0.12c-0.24,0-0.54,0-0.78,0.12c-0.06,0-0.12,0.06-0.12,0.06
		c-0.06,0.06-0.06,0.12-0.06,0.18c0.06,0.12,0.06,0.3,0.06,0.42c0,0.3,0.06,0.6,0.06,0.9s0,0.54-0.06,0.84
		c-0.12,1.2-0.06,2.4-0.12,3.6c0,0.48,0,1.02-0.36,1.32c-0.36,0.36-0.9,0.24-1.38,0.24c-1.2,0-6.9,0-7.14-0.06
		c-0.06,0-0.24,0-0.36-0.06c-0.06-0.06-0.06-0.24-0.12-0.36c-0.06-0.3,0-0.6,0.06-0.9v-0.9c0-1.2,0-2.4-0.06-3.6
		c0-1.2,0-2.4,0.12-3.6c0.12-1.2,0.06-2.4,0.06-3.6v-9.12c0-0.3,0-0.6-0.06-0.9c-0.06-0.3-0.12-0.54-0.12-0.84
		c0.06-1.2,0.06-2.4,0.06-3.66c0-1.14,0-2.34,0.24-3.54c0.12-1.08,0.48-2.1,0.96-3.12l0.9-1.44c0.3-0.48,0.54-0.96,0.9-1.38
		c0.36-0.48,0.72-0.84,1.14-1.26l1.14-1.08c0.78-0.66,1.68-1.08,2.64-1.44c0.54-0.18,1.08-0.48,1.62-0.6
		c0.54-0.18,1.14-0.3,1.74-0.42c0.54-0.12,1.14-0.18,1.74-0.24c0.6-0.06,1.2-0.06,1.8-0.06c1.14,0.12,2.28,0.48,3.36,0.84
		c1.08,0.3,2.1,0.78,3.12,1.32c0.96,0.54,1.92,1.08,2.7,1.8c1.56,1.38,2.64,3.36,3.18,5.34c0.3,1.14,0.42,2.34,0.54,3.48
		c0.06,0.3,0.06,0.6,0.06,0.9c0.061,0.3,0.12,0.6,0.061,0.84l-0.18,1.8c-0.061,1.26,0,2.46,0,3.66v18.359c0,0.54,0,1.14-0.061,1.74
		v0.9C133.74,55.667,133.74,55.906,133.681,56.146z M123.841,40.787l0.18-4.919l0.12-2.4c0-0.36,0-0.78,0.06-1.14
		c0-0.42,0.06-0.84,0.06-1.2c0-0.42-0.06-0.84-0.12-1.2l-0.12-1.14c-0.06-0.66-0.24-1.26-0.48-1.86c-0.42-1.2-1.38-2.34-2.7-2.7
		c-0.66-0.18-1.44-0.18-2.16,0.06c-0.6,0.18-1.26,0.48-1.74,0.9c-0.42,0.36-0.78,0.78-0.96,1.32c-0.24,0.6-0.24,1.2-0.3,1.86
		c0,1.68-0.06,3.36,0,5.04v2.46c-0.06,0.84-0.06,1.68-0.06,2.46c0,0.42,0.06,0.84,0.06,1.26v0.6c0,0.18-0.06,0.3,0,0.48
		c0,0.12,0.12,0.24,0.24,0.3c0.24,0,0.42-0.06,0.66-0.06h1.2c1.56,0,3.18-0.06,4.8-0.06
		C123.001,40.787,123.421,40.787,123.841,40.787z"/>
	<path fill="#FFFFFF" d="M168.84,31.367c-1.8,0.12-3.54,0.06-5.28,0.06h-2.699c-0.54,0-1.32,0.06-1.38-0.66
		c-0.061-0.84,0.239-1.68,0.3-2.52c0-0.78-0.061-1.62-0.48-2.28c-0.359-0.66-1.02-1.08-1.68-1.44c-0.66-0.36-1.38-0.48-2.1-0.42
		c-0.78,0.06-1.38,0.36-1.92,0.9c-0.48,0.48-0.9,1.02-1.2,1.62c-0.3,0.66-0.42,1.44-0.54,2.16c-0.12,0.9-0.18,1.74-0.24,2.64
		c-0.06,1.74,0,3.54,0,5.28c0,1.8,0,3.54,0.181,5.34c0,0.42,0.06,0.84,0.12,1.26c0.06,0.42,0.239,0.84,0.3,1.26
		c0.12,0.78,0.06,1.56,0.42,2.28c0.359,0.6,0.84,1.14,1.439,1.38c0.721,0.36,1.62,0.48,2.4,0.42c0.72-0.06,1.439-0.24,1.979-0.72
		c0.48-0.42,0.72-1.08,0.9-1.74c0.18-0.78,0.18-1.62,0.18-2.4v-0.12c0-0.12,0-0.06-0.06-0.06c-0.061-0.06-0.24-0.06-0.301-0.06
		c-0.18-0.06-0.42-0.06-0.659-0.06h-1.261c-0.359-0.06-0.779-0.12-1.02-0.36c-0.24-0.3-0.24-0.66-0.24-1.02
		c-0.06-0.84,0.061-1.74,0.061-2.58c0-0.24,0-0.42-0.061-0.66c0-0.24-0.06-0.42-0.12-0.66c-0.06-0.42-0.06-0.84,0-1.26
		c0.061-0.6,0.12-1.5,0.9-1.56c0.42-0.06,0.84,0,1.26,0c0.48-0.06,0.9-0.06,1.38-0.06c0.9,0,1.74-0.06,2.641-0.12
		c0.84-0.06,1.68-0.06,2.579,0c0.84,0.12,1.74,0.18,2.58,0.24c0.66,0.06,1.32-0.06,1.98,0.18c0.359,0.12,0.659,0.36,0.84,0.72
		c0.239,0.54,0.18,1.2,0.12,1.8c0,0.84-0.061,1.74-0.181,2.64c0,0.42,0.061,0.84,0.12,1.26c0,0.42-0.06,0.9-0.06,1.32l-0.181,2.64
		c-0.119,1.62-0.239,3.3-0.779,4.8c-0.48,1.56-1.32,2.82-2.4,3.959c-0.54,0.54-1.14,1.08-1.8,1.5s-1.439,0.66-2.16,0.96
		c-0.779,0.24-1.56,0.48-2.34,0.66c-0.84,0.18-1.68,0.24-2.58,0.3l-2.64,0.18c-0.42,0-0.899,0.06-1.319,0.06l-1.2-0.18l-0.601-0.12
		c-0.18,0-0.42,0-0.6-0.12l-1.14-0.36c-0.721-0.24-1.44-0.54-2.16-0.9c-1.32-0.66-2.52-1.56-3.479-2.7
		c-0.48-0.6-0.841-1.2-1.141-1.86c-0.359-0.72-0.779-1.44-1.08-2.16c-0.3-0.78-0.54-1.56-0.6-2.34c-0.12-0.9-0.06-1.74-0.12-2.64
		c-0.06-3.54,0.061-7.08,0.18-10.68c0-0.84,0.061-1.74,0.12-2.58c0.061-0.9,0-1.8-0.06-2.64c0-1.56,0.18-3.18,0.6-4.68
		c0.42-1.5,1.021-3,1.92-4.26c0.48-0.66,1.021-1.26,1.561-1.8c0.6-0.54,1.14-1.02,1.8-1.5s1.319-0.9,2.04-1.2
		c0.72-0.3,1.5-0.42,2.279-0.66c0.42-0.06,0.78-0.24,1.2-0.36c0.36-0.18,0.78-0.18,1.14-0.18h0.601c0.239,0,0.42,0.06,0.66,0
		c0.42-0.06,0.84-0.06,1.26-0.06c0.84,0.06,1.68,0.24,2.58,0.36c0.72,0.18,1.499,0.42,2.22,0.72c0.72,0.36,1.319,0.78,1.979,1.26
		c0.66,0.48,1.32,0.96,1.86,1.5c0.6,0.6,1.14,1.2,1.56,1.86c0.48,0.6,0.96,1.32,1.2,2.04c0,0.24,0.06,0.42,0.12,0.6
		c0.06,0.18,0.18,0.36,0.3,0.54c0.12,0.36,0.18,0.78,0.24,1.14c0.18,0.9,0.3,1.74,0.359,2.58c0.061,0.84,0.061,1.68,0,2.52
		c0,0.36,0.061,0.72-0.06,1.02C169.319,30.887,169.08,31.127,168.84,31.367z"/>
	<path fill="#FFFFFF" d="M187.921,24.527v6.48c0,0.12,0.06,0.3,0.12,0.42c0.119,0.06,0.42,0.06,0.54,0.12h1.739
		c1.561,0,3.18,0,4.74-0.12c0.84-0.06,1.62-0.06,2.46-0.06c0.72,0,1.5-0.12,2.22,0c0.54,0.12,0.96,0.48,1.08,1.02
		c0.06,0.3,0,0.66,0,0.96c-0.061,0.42-0.061,0.84-0.061,1.2c0,0.78-0.18,1.56-0.18,2.34v2.28c0,0.12,0,0.24-0.06,0.36
		c0,0.06-0.061,0.12-0.12,0.18c-0.061,0.12-0.12,0.12-0.24,0.18c-0.36,0.06-0.78,0.06-1.14,0.06c-0.78,0-1.561-0.06-2.4-0.06
		c-1.56,0.06-3.12,0.12-4.739,0.24c-0.78,0.06-1.561,0-2.34-0.06c-0.601,0-1.2-0.06-1.74,0.36c-0.061,0.12-0.18,0.18-0.24,0.36
		c0,0.18,0.061,0.42,0.061,0.66v1.14l0.18,2.4l0.18,2.34c0,0.06,0,0.18,0.061,0.24c0,0.12,0.06,0.18,0.119,0.24
		c0.181,0.06,0.301,0.12,0.421,0.12h1.02c0.84,0,1.62-0.06,2.399-0.06c0.841,0,1.62,0.06,2.4,0.06c1.62,0,3.24,0,4.8-0.06h1.26
		c0.36-0.06,0.78,0,1.14-0.06c0.54-0.06,1.261-0.3,1.74-0.06c0.48,0.3,0.54,0.96,0.48,1.44c0,0.78,0,1.62-0.061,2.4
		c0,0.78,0,1.62-0.06,2.4c-0.061,0.36,0,0.78,0,1.14c0,0.3-0.12,0.66-0.181,0.96l-0.119,0.24c-0.061,0-0.181,0.06-0.24,0.12
		l-0.42,0.3c-0.12,0.06-0.12,0.06-0.24,0.06h-0.9c-0.779-0.06-1.499-0.12-2.279-0.12c-0.18-0.06-0.36-0.06-0.54-0.06
		s-0.36,0.06-0.6,0.12c-0.36,0-0.721,0-1.141-0.06c-0.359,0-0.72,0.06-1.14,0c-0.36-0.06-0.72-0.06-1.14,0
		c-0.78,0-1.561,0-2.34-0.12c-0.841-0.06-1.62-0.06-2.4-0.06c-1.62-0.06-3.24-0.06-4.859-0.06l-4.8-0.12h-1.2
		c-0.18-0.06-0.36-0.06-0.54-0.06c-0.061,0-0.18,0-0.24-0.06c-0.06,0-0.06,0-0.06-0.06c-0.061-0.06-0.061-0.12-0.12-0.12
		c-0.12-0.36-0.061-0.72-0.061-1.08c0-0.42,0-0.78,0.061-1.2c0-0.42,0.06-0.84,0-1.2c0-0.42,0-0.84-0.061-1.2
		c0-0.84-0.06-1.62-0.06-2.399v-4.86c0-0.78,0-1.56,0.06-2.4c0.061-0.36,0.061-0.72,0.061-1.14v-1.2c-0.061-1.56-0.061-3.18,0-4.74
		c0.12-3.24,0.12-6.419,0.06-9.659c-0.06-1.62-0.18-3.24-0.18-4.8c0-0.84,0.06-1.62,0.12-2.4c0.06-0.42,0.06-0.84,0.06-1.2
		c0.061-0.3,0-0.6,0.181-0.84c0.06-0.18,0.239-0.3,0.479-0.3c0.3-0.06,0.66-0.06,1.021-0.06h2.459c1.561,0,3.12-0.12,4.74-0.18
		c1.62,0,3.24,0,4.859-0.06c0.78,0,1.62,0,2.4,0.06c0.84,0,1.62,0.06,2.4,0.06h5.279c0.12,0,0.12,0,0.18,0.12l0.181,0.3
		c0.18,0.3,0.239,0.66,0.3,1.02c0.12,0.78,0.18,1.56,0.24,2.28l0.3,2.4c0.06,0.54,0.12,1.14,0.06,1.68c0,0.3-0.12,0.6-0.359,0.72
		c-0.301,0.24-0.721,0.24-1.08,0.3l-2.28,0.18l-2.399,0.18c-1.62,0.18-3.24,0.18-4.8,0.18
		C190.921,24.587,189.421,24.587,187.921,24.527z"/>
</g>
<path fill="#FEF291" d="M261.913,13.327c-2.063-0.349-4.747,0.544-7.14,2.303c-3.865,2.539-7.725,5.457-11.471,8.43l-25.722-9.361
	l-2.6,3.676l18.382,12.991l-13.305,11.542c-2.455-1.246-6.356-2.831-6.837,0.314c-0.095,0.62-0.035,1.286,0.36,2.091l6.744,9.178
	c0.649,0.617,1.267,0.872,1.888,0.967c3.145,0.48,2.795-3.714,2.339-6.432l14.989-9.25l6.908,21.421l4.285-1.382l-1.252-27.344
	c3.958-2.686,7.896-5.5,11.473-8.43c2.391-1.758,4.044-4.053,4.33-6.127c0.153-1.117-0.037-2.231-0.641-3.062
	C264.032,14.029,263.025,13.514,261.913,13.327L261.913,13.327L261.913,13.327z"/>
</svg>
