<?xml version="1.0" encoding="utf-8"?>
<!-- Generator: Adobe Illustrator 16.0.0, SVG Export Plug-In . SVG Version: 6.00 Build 0)  -->
<!DOCTYPE svg PUBLIC "-//W3C//DTD SVG 1.1//EN" "http://www.w3.org/Graphics/SVG/1.1/DTD/svg11.dtd">
<svg version="1.1" id="Calque_1" xmlns="http://www.w3.org/2000/svg" xmlns:xlink="http://www.w3.org/1999/xlink" x="0px" y="0px"
	 width="215.25px" height="62.5px" viewBox="0 0 215.25 62.5" enable-background="new 0 0 215.25 62.5" xml:space="preserve">
<g>
	<path fill="#FFFFFF" d="M15.661,38.447v3.84c-0.06,0.6-0.06,1.2,0,1.86c0,0.479,0.06,0.96,0.24,1.439
		c0.36,0.84,1.08,1.68,1.92,2.04c0.9,0.36,1.98,0.24,2.88-0.18c0.84-0.36,1.5-1.02,1.92-1.8c0.6-1.02,0.84-2.1,0.96-3.24
		c0.18-1.26,0.18-2.52,0.18-3.78c0-0.6-0.06-1.2-0.12-1.8s-0.06-1.26,0-1.86c0.06-0.24,0.18-0.54,0.18-0.84v-0.84l-0.12-1.86
		c-0.06-1.26-0.12-2.52-0.12-3.78c-0.06-2.58-0.06-5.1-0.06-7.68v-3.78c0-0.42,0.18-0.9,0.66-1.02c0.24-0.06,0.6-0.12,0.84-0.12
		c0.36-0.06,0.66-0.06,0.96-0.06c1.26-0.06,2.52,0.06,3.78,0.12c0.6,0.06,1.26,0.06,1.86,0.06c0.3,0.06,0.6,0.06,0.9,0.06H33
		c0.12,0,0.24,0.12,0.3,0.18c0.18,0.18,0.18,0.42,0.18,0.6v6.66c0,1.26,0,2.58-0.06,3.84c0,1.26,0,2.52,0.06,3.78
		c0,1.26,0.12,2.52,0.18,3.78c0.06,1.26,0.06,2.52,0.06,3.84c0,1.26-0.06,2.52-0.06,3.78c0,1.26-0.06,2.52-0.24,3.72l-0.36,1.8
		l-0.12,0.84c0,0.3-0.06,0.54-0.12,0.78c-0.12,0.54-0.36,1.02-0.66,1.5c-0.24,0.48-0.48,0.96-0.78,1.38
		c-0.3,0.42-0.66,0.84-1.02,1.2c-0.42,0.42-0.9,0.72-1.38,1.08c-0.96,0.66-1.92,1.38-2.939,1.86c-0.54,0.3-1.02,0.48-1.56,0.6
		l-1.8,0.48c-1.2,0.24-2.4,0.42-3.6,0.42c-2.34,0-4.68-0.42-6.72-1.38c-0.54-0.24-1.08-0.54-1.56-0.84c-0.48-0.3-0.84-0.66-1.2-1.08
		c-0.72-0.78-1.38-1.62-1.8-2.64c-0.06-0.24-0.24-0.48-0.36-0.72c-0.12-0.24-0.24-0.54-0.3-0.78c-0.18-0.54-0.3-1.08-0.42-1.62
		c-0.3-1.2-0.54-2.4-0.6-3.6c0-0.6,0.12-1.2-0.06-1.74c-0.06-0.24-0.12-0.36,0-0.6c0.06-0.18,0.12-0.36,0.06-0.54
		c-0.06-0.12-0.06-0.12-0.06-0.18s0.06-0.18,0.06-0.24c0-0.12,0-0.3-0.06-0.42c0-0.3-0.12-0.54-0.12-0.84
		c-0.06-0.3-0.06-0.6-0.06-0.9c0-0.18,0-0.42,0.12-0.6c0.18-0.36,0.6-0.36,0.96-0.3c0.66,0,1.26,0,1.86-0.06
		c1.26,0,2.52,0,3.78-0.06c0.6-0.06,1.2-0.12,1.8-0.12C14.821,38.027,15.361,38.027,15.661,38.447z"/>
	<path fill="#FFFFFF" d="M51.9,24.527v6.48c0,0.12,0.06,0.3,0.12,0.42c0.12,0.06,0.42,0.06,0.54,0.12h1.74c1.56,0,3.18,0,4.74-0.12
		c0.84-0.06,1.62-0.06,2.459-0.06c0.72,0,1.5-0.12,2.22,0c0.54,0.12,0.96,0.48,1.08,1.02c0.06,0.3,0,0.66,0,0.96
		c-0.06,0.42-0.06,0.84-0.06,1.2c0,0.78-0.18,1.56-0.18,2.34v2.28c0,0.12,0,0.24-0.06,0.36c0,0.06-0.06,0.12-0.12,0.18
		c-0.06,0.12-0.12,0.12-0.24,0.18c-0.36,0.06-0.78,0.06-1.14,0.06c-0.78,0-1.56-0.06-2.4-0.06c-1.56,0.06-3.12,0.12-4.74,0.24
		c-0.78,0.06-1.56,0-2.34-0.06c-0.6,0-1.2-0.06-1.74,0.36c-0.06,0.12-0.18,0.18-0.24,0.36c0,0.18,0.06,0.42,0.06,0.66v1.14l0.18,2.4
		l0.18,2.34c0,0.06,0,0.18,0.06,0.24c0,0.12,0.06,0.18,0.12,0.24c0.18,0.06,0.3,0.12,0.42,0.12h1.02c0.84,0,1.62-0.06,2.4-0.06
		c0.84,0,1.62,0.06,2.4,0.06c1.62,0,3.24,0,4.8-0.06h1.26c0.36-0.06,0.78,0,1.14-0.06c0.54-0.06,1.26-0.3,1.74-0.06
		c0.48,0.3,0.54,0.96,0.48,1.44c0,0.78,0,1.62-0.06,2.4c0,0.78,0,1.62-0.06,2.4c-0.06,0.36,0,0.78,0,1.14c0,0.3-0.12,0.66-0.18,0.96
		l-0.12,0.24c-0.06,0-0.18,0.06-0.24,0.12l-0.42,0.3c-0.12,0.06-0.12,0.06-0.24,0.06h-0.9c-0.78-0.06-1.5-0.12-2.28-0.12
		c-0.18-0.06-0.36-0.06-0.54-0.06s-0.36,0.06-0.6,0.12c-0.36,0-0.72,0-1.14-0.06c-0.36,0-0.72,0.06-1.14,0
		c-0.36-0.06-0.72-0.06-1.14,0c-0.78,0-1.56,0-2.34-0.12c-0.84-0.06-1.62-0.06-2.4-0.06c-1.62-0.06-3.24-0.06-4.86-0.06l-4.8-0.12
		h-1.2c-0.18-0.06-0.36-0.06-0.54-0.06c-0.06,0-0.18,0-0.24-0.06c-0.06,0-0.06,0-0.06-0.06c-0.06-0.06-0.06-0.12-0.12-0.12
		c-0.12-0.36-0.06-0.72-0.06-1.08c0-0.42,0-0.78,0.06-1.2c0-0.42,0.06-0.84,0-1.2c0-0.42,0-0.84-0.06-1.2
		c0-0.84-0.06-1.62-0.06-2.399v-4.86c0-0.78,0-1.56,0.06-2.4c0.06-0.36,0.06-0.72,0.06-1.14v-1.2c-0.06-1.56-0.06-3.18,0-4.74
		c0.12-3.24,0.12-6.419,0.06-9.659c-0.06-1.62-0.18-3.24-0.18-4.8c0-0.84,0.06-1.62,0.12-2.4c0.06-0.42,0.06-0.84,0.06-1.2
		c0.06-0.3,0-0.6,0.18-0.84c0.06-0.18,0.24-0.3,0.48-0.3c0.3-0.06,0.66-0.06,1.02-0.06h2.46c1.56,0,3.12-0.12,4.74-0.18
		c1.62,0,3.24,0,4.86-0.06c0.78,0,1.62,0,2.4,0.06c0.84,0,1.62,0.06,2.4,0.06h5.28c0.12,0,0.12,0,0.18,0.12l0.18,0.3
		c0.18,0.3,0.24,0.66,0.3,1.02c0.12,0.78,0.18,1.56,0.24,2.28l0.3,2.4c0.06,0.54,0.12,1.14,0.06,1.68c0,0.3-0.12,0.6-0.36,0.72
		c-0.3,0.24-0.72,0.24-1.08,0.3l-2.28,0.18l-2.4,0.18c-1.62,0.18-3.24,0.18-4.8,0.18C54.9,24.587,53.4,24.587,51.9,24.527z"/>
	<path fill="#FFFFFF" d="M93.899,14.988c0.78-0.06,1.56-0.18,2.34-0.18c0.78-0.06,1.5,0.12,2.28,0.06h3.42
		c0.12-0.06,0.18-0.06,0.3-0.06s0.12-0.06,0.18,0.06c0.12,0.12,0.18,0.24,0.24,0.42v1.2c0.06,0.42,0.06,0.84,0.06,1.26v7.56
		c0.06,3.36,0.06,6.66,0,10.02c0,1.68,0.06,3.3,0.06,4.98c0,0.84,0.06,1.68,0,2.459c0,0.84-0.06,1.62-0.12,2.46l-0.36,2.4
		c-0.12,0.78-0.24,1.56-0.48,2.34c-0.24,0.72-0.48,1.44-0.78,2.16c-0.3,0.66-0.6,1.32-1.08,1.8c-0.24,0.3-0.54,0.54-0.78,0.78
		l-0.66,0.78c-0.42,0.42-0.96,0.78-1.56,1.08c-0.54,0.3-1.2,0.48-1.8,0.66c-0.72,0.24-1.44,0.54-2.16,0.72
		c-0.42,0.12-0.78,0.24-1.14,0.3c-0.42,0.06-0.78,0.06-1.2,0.06c-0.78,0.06-1.56,0.06-2.34,0s-1.56-0.24-2.34-0.3
		c-0.72-0.12-1.44-0.18-2.16-0.42c-1.32-0.36-2.459-1.14-3.479-1.98l-1.5-1.44l-0.6-0.84c-0.18-0.3-0.36-0.6-0.6-0.84
		c-0.42-0.6-0.84-1.14-1.14-1.8l-0.36-1.02l-0.36-1.08c0-0.12-0.06-0.3-0.06-0.48v-0.54c0-0.18-0.06-0.3-0.18-0.42l-0.18-0.54
		l-0.12-1.02v-2.34c0-0.18-0.06-0.36-0.06-0.6c-0.06-0.18-0.06-0.36-0.06-0.54c0.06-0.42,0.12-0.78,0.06-1.2v-1.26
		c-0.06-1.62,0-3.3-0.06-4.98c0-1.62-0.06-3.3-0.06-4.979c0-0.78,0-1.62,0.06-2.4c0-0.42,0.12-0.78,0.12-1.2
		c0-0.36-0.06-0.78-0.06-1.14c0-0.84-0.12-1.68-0.06-2.52c0-0.36,0.06-0.78,0.12-1.2v-3.72c0-0.42,0-0.84,0.06-1.26v-0.54
		c0.06-0.12,0.12-0.12,0.18-0.18c0.12-0.06,0.18-0.12,0.3-0.12c0.6-0.3,1.26-0.48,1.98-0.36c0.18,0,0.36,0.06,0.54,0.06h1.8
		c0.78,0.06,1.56,0.12,2.34,0.12c0.42,0.06,0.78,0,1.14,0.06c0.42,0,0.78,0.12,1.14,0.18c0.06,0,0.18,0,0.24,0.06
		c0.12,0.06,0.06,0,0.12,0.06v0.18c0.06,0.18,0.12,0.36,0.12,0.6v8.76c0,1.62-0.06,3.3-0.12,4.92c0,0.84-0.06,1.68-0.06,2.46
		l-0.24,2.46c-0.06,1.68,0,3.3,0,4.979c0,1.44,0.06,2.88,0.54,4.26c0.36,1.14,1.08,2.04,2.16,2.58c1.32,0.66,2.76,0.78,4.08,0
		c0.48-0.3,0.9-0.72,1.2-1.2c0.3-0.6,0.42-1.26,0.48-1.92c0.18-0.84,0.24-1.62,0.3-2.399c0.12-0.84,0.06-1.68,0.18-2.46
		c0.18-1.68,0.12-3.3,0.12-4.98c0-1.62,0.06-3.3,0-4.92v-2.52c0-0.84-0.12-1.62-0.18-2.459c-0.06-1.68,0-3.3-0.12-4.98l-0.18-2.34
		c0-0.3,0-0.54,0.06-0.84C93.479,15.468,93.66,15.168,93.899,14.988z"/>
	<path fill="#FFFFFF" d="M117.899,33.587l-0.36-0.9l-0.48-0.9l-0.96-1.92l-0.96-1.92l-0.9-1.92l-3.9-7.799
		c-0.12-0.3-0.3-0.6-0.48-0.9c-0.12-0.36-0.3-0.6-0.48-0.9c-0.12-0.18-0.24-0.42-0.12-0.66c0.06-0.24,0.3-0.3,0.54-0.36
		c0.36-0.06,0.72,0,1.08,0h3.24c0.72,0,1.44,0,2.16,0.06h1.56c0.18,0.06,0.36,0.06,0.48,0.06c0.24,0.12,0.42,0.36,0.6,0.54
		l0.36,0.84l0.96,1.92l3.72,7.8c0.06,0.12,0.12,0.3,0.24,0.42l0.24,0.3c0.18-0.3,0.42-0.6,0.54-0.96c0.18-0.36,0.3-0.72,0.42-1.08
		c0.3-0.72,0.54-1.44,0.78-2.22l1.44-4.5c0.24-0.72,0.48-1.5,0.78-2.22c0.12-0.48,0.36-1.02,0.84-1.2c0.24-0.12,0.48-0.12,0.78-0.12
		h1.2c0.72,0,1.5-0.06,2.279-0.06c0.841,0,1.62,0,2.4-0.06h1.14c0.3,0,0.72-0.06,0.96,0.18c0.181,0.18,0.24,0.48,0.12,0.72
		l-0.36,0.96l-0.539,0.9l-0.42,1.02c-1.2,2.82-2.521,5.52-3.721,8.28l-1.739,4.32c-0.3,0.72-0.601,1.44-0.96,2.16
		c-0.301,0.66-0.601,1.38-0.84,2.1l-0.181,0.42l-0.239,0.54c-0.061,0.3-0.061,0.66,0.06,0.96l0.42,1.02l0.54,1.02
		c0.72,1.44,1.38,2.88,2.1,4.26l3.96,8.4l1.08,2.04c0.24,0.42,0.54,0.9,0.54,1.38v0.3c0,0.06,0.06,0.12,0,0.24l-0.18,0.18
		c-0.181,0.18-0.42,0.24-0.721,0.24c-0.72,0.12-1.5,0.12-2.279,0.18c-0.78,0.06-1.561,0.06-2.34,0.06c-0.721,0-1.5-0.12-2.221,0
		l-0.479,0.12c-0.06,0.06-0.12,0.12-0.18,0.12c-0.061,0-0.181-0.06-0.24-0.06c-0.24-0.12-0.42-0.3-0.54-0.54l-0.9-2.1
		c-1.26-2.82-2.76-5.52-3.96-8.339l-0.9-1.92l-0.24,0.3l-0.54,1.62c-0.3,0.72-0.54,1.5-0.78,2.22l-1.44,4.38l-0.6,2.16l-0.18,0.54
		c0,0.18-0.06,0.42-0.18,0.54c-0.12,0.24-0.36,0.3-0.6,0.36c-0.36,0-0.72-0.06-1.08-0.06c-0.36-0.06-0.72-0.06-1.14-0.06
		c-0.78-0.06-1.5,0-2.28,0c-0.78,0-1.56,0.06-2.34,0.06c-0.36,0.06-0.72,0.06-1.14,0.06c-0.24,0-0.54-0.06-0.72-0.3
		c-0.18-0.24-0.18-0.48-0.06-0.78l0.36-1.02l0.9-2.1c1.2-2.88,2.34-5.76,3.42-8.64c1.08-2.94,2.22-5.82,3.3-8.7L117.899,33.587z"/>
</g>
<g>
	<path fill="#FEF291" d="M209.347,45.498c0,0-2.031-2.869-2.781-3.796c-1.191-1.413-2.427-2.869-3.354-4.458
		c-0.794-1.369-1.368-2.957-1.81-4.502c-0.883-3.222-1.235-6.533-1.457-9.887c1.369-0.838,2.296-2.339,2.296-4.017
		c0-2.604-2.163-4.723-4.767-4.723c-2.649,0-4.768,2.119-4.768,4.723c0,1.722,0.927,3.178,2.296,4.017
		c-0.272,2.95-0.545,5.9-1.236,8.73c1.994,0.66,3.778,1.821,5.221,3.345c4.65,4.913,4.688,11.856,1.699,16.841
		c2.068-0.169,5.198-0.663,8.087-2.081c0,0,0.574-0.265,0.618-0.75S209.347,45.498,209.347,45.498z"/>
</g>
<path fill="#FEF291" d="M158.504,32.374c-10.997,0-16.545,13.365-8.762,21.15c2.243,2.245,5.338,3.626,8.762,3.626
	c9.672,0,8.353-6.972,15.017-6.972c7.001,0,5.643,6.972,15.012,6.972c10.998,0,16.545-13.36,8.762-21.144
	c-2.243-2.243-5.336-3.631-8.762-3.631L158.504,32.374z M187.908,46.967c3.321,0,3.321,5.064,0,5.064
	C184.588,52.031,184.588,46.967,187.908,46.967z M152.598,45.472c-1.719,0-1.719-2.607,0-2.607l3.661-0.002v-3.66
	c0-1.719,2.611-1.719,2.611,0v3.66h3.662c1.718,0,1.718,2.609,0,2.609h-3.662v3.667c0,1.711-2.608,1.711-2.608,0v-3.667H152.598z
	 M182.596,41.784c3.325,0,3.325,5.055,0,5.055C179.275,46.84,179.275,41.784,182.596,41.784z M193.216,41.784
	c3.317,0,3.317,5.055,0,5.055C189.896,46.84,189.896,41.784,193.216,41.784z M187.908,36.598c3.321,0,3.321,5.057,0,5.057
	C184.588,41.654,184.588,36.598,187.908,36.598z"/>
</svg>
