<?xml version="1.0" encoding="utf-8"?>
<!-- Generator: Adobe Illustrator 16.0.0, SVG Export Plug-In . SVG Version: 6.00 Build 0)  -->
<!DOCTYPE svg PUBLIC "-//W3C//DTD SVG 1.1//EN" "http://www.w3.org/Graphics/SVG/1.1/DTD/svg11.dtd">
<svg version="1.1" id="Calque_1" xmlns="http://www.w3.org/2000/svg" xmlns:xlink="http://www.w3.org/1999/xlink" x="0px" y="0px"
	 width="591.417px" height="62.5px" viewBox="0 0 591.417 62.5" enable-background="new 0 0 591.417 62.5" xml:space="preserve">
<g>
	<path fill="#FFFFFF" d="M35.34,56.146c-0.42,0.36-0.84,0.48-1.38,0.48c-0.6,0.06-1.2,0.06-1.8,0.06c-1.2,0.06-2.46,0.06-3.66,0
		c-0.54,0-1.14,0-1.68-0.12c-0.3-0.06-0.54-0.12-0.78-0.24c-0.12,0-0.18-0.06-0.3-0.18c-0.12-0.06-0.12-0.24-0.12-0.36
		c-0.06-0.6,0-1.2,0-1.8c0.06-0.6,0-1.14,0-1.74c-0.06-0.6,0-1.2,0-1.74c0-0.3,0-0.66-0.06-0.96c0-0.06,0-0.36-0.06-0.42
		s-0.3-0.06-0.36-0.06c-0.3-0.06-0.6-0.06-0.9-0.06h-0.96c-0.6,0-1.2-0.06-1.8-0.06h-0.84c-0.3,0-0.54-0.06-0.84-0.12
		c-0.54-0.06-1.14,0.06-1.68,0.12c-0.24,0-0.54,0-0.78,0.12c-0.06,0-0.12,0.06-0.12,0.06c-0.06,0.06-0.06,0.12-0.06,0.18
		c0.06,0.12,0.06,0.3,0.06,0.42c0,0.3,0.06,0.6,0.06,0.9s0,0.54-0.06,0.84c-0.12,1.2-0.06,2.4-0.12,3.6c0,0.48,0,1.02-0.36,1.32
		c-0.36,0.36-0.9,0.24-1.38,0.24c-1.2,0-6.9,0-7.14-0.06c-0.06,0-0.24,0-0.36-0.06c-0.06-0.06-0.06-0.24-0.12-0.36
		c-0.06-0.3,0-0.6,0.06-0.9v-0.9c0-1.2,0-2.4-0.06-3.6c0-1.2,0-2.4,0.12-3.6c0.12-1.2,0.06-2.4,0.06-3.6v-9.12c0-0.3,0-0.6-0.06-0.9
		c-0.06-0.3-0.12-0.54-0.12-0.84c0.06-1.2,0.06-2.4,0.06-3.66c0-1.14,0-2.34,0.24-3.54c0.12-1.08,0.48-2.1,0.96-3.12l0.9-1.44
		c0.3-0.48,0.54-0.96,0.9-1.38c0.36-0.48,0.72-0.84,1.14-1.26l1.14-1.08c0.78-0.66,1.68-1.08,2.64-1.44
		c0.54-0.18,1.08-0.48,1.62-0.6c0.54-0.18,1.14-0.3,1.74-0.42c0.54-0.12,1.14-0.18,1.74-0.24c0.6-0.06,1.2-0.06,1.8-0.06
		c1.14,0.12,2.28,0.48,3.36,0.84c1.08,0.3,2.1,0.78,3.12,1.32c0.96,0.54,1.92,1.08,2.7,1.8c1.56,1.38,2.64,3.36,3.18,5.34
		c0.3,1.14,0.42,2.34,0.54,3.48c0.06,0.3,0.06,0.6,0.06,0.9c0.06,0.3,0.12,0.6,0.06,0.84l-0.18,1.8c-0.06,1.26,0,2.46,0,3.66v18.359
		C35.46,53.566,35.521,55.426,35.34,56.146z M25.501,40.787l0.18-4.919l0.12-2.4c0-0.36,0-0.78,0.06-1.14c0-0.42,0.06-0.84,0.06-1.2
		c0-0.42-0.06-0.84-0.12-1.2l-0.12-1.14c-0.06-0.66-0.24-1.26-0.48-1.86c-0.42-1.2-1.38-2.34-2.7-2.7
		c-0.66-0.18-1.44-0.18-2.16,0.06c-0.6,0.18-1.26,0.48-1.74,0.9c-0.42,0.36-0.78,0.78-0.96,1.32c-0.24,0.6-0.24,1.2-0.3,1.86
		c0,1.68-0.06,3.36,0,5.04v2.46c-0.06,0.84-0.06,1.68-0.06,2.46c0,0.42,0.06,0.84,0.06,1.26v0.6c0,0.18-0.06,0.3,0,0.48
		c0,0.12,0.12,0.24,0.24,0.3c0.24,0,0.42-0.06,0.66-0.06h1.2C21.481,40.907,23.461,40.787,25.501,40.787z"/>
	<path fill="#FFFFFF" d="M62.581,14.988c0.78-0.06,1.56-0.18,2.34-0.18c0.78-0.06,1.5,0.12,2.28,0.06h3.42
		c0.12-0.06,0.18-0.06,0.3-0.06s0.12-0.06,0.18,0.06c0.12,0.12,0.18,0.24,0.24,0.42v1.2c0.06,0.42,0.06,0.84,0.06,1.26v7.56
		c0.06,3.36,0.06,6.66,0,10.02c0,1.68,0.06,3.3,0.06,4.98c0,0.84,0.06,1.68,0,2.459c0,0.84-0.06,1.62-0.12,2.46l-0.36,2.4
		c-0.12,0.78-0.24,1.56-0.48,2.34c-0.24,0.72-0.48,1.44-0.78,2.16c-0.3,0.66-0.6,1.32-1.08,1.8c-0.24,0.3-0.54,0.54-0.78,0.78
		l-0.66,0.78c-0.42,0.42-0.96,0.78-1.56,1.08c-0.54,0.3-1.2,0.48-1.8,0.66c-0.72,0.24-1.44,0.54-2.16,0.72
		c-0.42,0.12-0.78,0.24-1.14,0.3c-0.42,0.06-0.78,0.06-1.2,0.06c-0.78,0.06-1.56,0.06-2.34,0s-1.56-0.24-2.34-0.3
		c-0.72-0.12-1.44-0.18-2.16-0.42c-1.32-0.36-2.46-1.14-3.479-1.98l-1.5-1.44l-0.6-0.84c-0.18-0.3-0.36-0.6-0.6-0.84
		c-0.42-0.6-0.84-1.14-1.14-1.8l-0.36-1.02l-0.36-1.08c0-0.12-0.06-0.3-0.06-0.48v-0.54c0-0.18-0.06-0.3-0.18-0.42l-0.18-0.54
		l-0.12-1.02v-2.34c0-0.18-0.06-0.36-0.06-0.6c-0.06-0.18-0.06-0.36-0.06-0.54c0.06-0.42,0.12-0.78,0.06-1.2v-1.26
		c-0.06-1.62,0-3.3-0.06-4.98c0-1.62-0.06-3.3-0.06-4.979c0-0.78,0-1.62,0.06-2.4c0-0.42,0.12-0.78,0.12-1.2
		c0-0.36-0.06-0.78-0.06-1.14c0-0.84-0.12-1.68-0.06-2.52c0-0.36,0.06-0.78,0.12-1.2v-3.72c0-0.42,0-0.84,0.06-1.26v-0.54
		c0.06-0.12,0.12-0.12,0.18-0.18c0.12-0.06,0.18-0.12,0.3-0.12c0.6-0.3,1.26-0.48,1.98-0.36c0.18,0,0.36,0.06,0.54,0.06h1.8
		c0.78,0.06,1.56,0.12,2.34,0.12c0.42,0.06,0.78,0,1.14,0.06c0.42,0,0.78,0.12,1.14,0.18c0.06,0,0.18,0,0.24,0.06
		c0.12,0.06,0.06,0,0.12,0.06v0.18c0.06,0.18,0.12,0.36,0.12,0.6v8.76c0,1.62-0.06,3.3-0.12,4.92c0,0.84-0.06,1.68-0.06,2.46
		l-0.24,2.46c-0.06,1.68,0,3.3,0,4.979c0,1.44,0.06,2.88,0.54,4.26c0.36,1.14,1.08,2.04,2.16,2.58c1.32,0.66,2.76,0.78,4.08,0
		c0.48-0.3,0.9-0.72,1.2-1.2c0.3-0.6,0.42-1.26,0.48-1.92c0.18-0.84,0.24-1.62,0.3-2.399c0.12-0.84,0.06-1.68,0.18-2.46
		c0.18-1.68,0.12-3.3,0.12-4.98c0-1.62,0.06-3.3,0-4.92v-2.52c0-0.84-0.12-1.62-0.18-2.459c-0.06-1.68,0-3.3-0.12-4.98l-0.18-2.34
		c0-0.3,0-0.54,0.06-0.84C62.161,15.468,62.341,15.168,62.581,14.988z"/>
	<path fill="#FFFFFF" d="M86.161,24.047c-2.28,0-4.56,0-6.78,0.06c-0.48,0-1.08,0.06-1.5-0.12c-0.18-0.06-0.36-0.12-0.42-0.3
		c0-0.12-0.06-0.24-0.06-0.3c-0.06-0.6-0.12-1.14-0.12-1.74c-0.06-1.86,0.06-3.72,0.24-5.58v-0.42c0-0.06,0-0.06,0.12-0.12
		c0.06,0,0.12-0.06,0.18-0.06c0.24-0.12,0.54-0.12,0.78-0.12h1.8c1.14,0,2.34-0.06,3.48-0.06c2.34-0.06,4.68-0.06,7.08-0.06h7.08
		c1.14,0,2.34,0,3.48-0.06h2.64c0.12,0,0.3,0,0.36,0.06c0.12,0.06,0.18,0.18,0.18,0.3c0.24,0.42,0.18,0.96,0.18,1.44
		c0.06,0.54,0.06,1.14,0.06,1.74c0.06,1.14-0.12,2.28-0.06,3.48c0.06,0.48,0.18,1.02-0.06,1.5c0,0.12-0.06,0.24-0.18,0.3
		c-0.12,0.06-0.24,0.06-0.36,0.06c-0.3,0.06-0.54,0.06-0.84,0.06H96c-0.06,0-0.3,0.06-0.3,0.12c-0.06,0.06,0,0.3,0,0.42v0.42
		c0,0.6,0.06,1.14,0.06,1.74v1.74c0,0.6-0.06,1.14,0,1.74c0,0.54,0.06,1.14,0.06,1.68c0,0.6-0.06,1.14-0.06,1.74
		s0.06,1.14,0.06,1.74c0,0.3-0.06,0.6-0.06,0.9c0,0.24-0.12,0.54-0.06,0.84c0.12,1.14,0.06,2.28,0.06,3.42
		c0,2.34,0.06,4.74,0.12,7.08c0,2.34,0,4.68-0.06,7.02c0,0.479,0.06,1.02-0.18,1.439c-0.3,0.42-0.78,0.42-1.26,0.48
		c-1.14,0.06-2.34,0.06-3.48,0.06l-3.54-0.12c-0.36,0-0.96,0.06-1.26-0.24c-0.3-0.36-0.12-0.84,0-1.2c0.24-1.14,0.12-2.28,0.18-3.36
		c0-0.6,0.06-1.2,0.06-1.74c0-0.6,0-1.2-0.06-1.8c0-0.6,0.06-1.14,0.06-1.74v-1.74c0-1.2,0.06-2.34,0.06-3.54v-7.08
		c0-1.14,0.06-2.34,0-3.479c-0.06-1.2-0.12-2.34-0.12-3.54C86.221,26.087,86.281,25.067,86.161,24.047z"/>
	<path fill="#FFFFFF" d="M141.359,55.786c-0.12,0.12-0.18,0.3-0.24,0.42c-0.24,0.42-0.66,0.72-1.14,0.78
		c-0.3,0.06-0.601,0.06-0.96,0.06c-0.36,0-0.72,0-1.08-0.06c-0.72,0-1.44,0-2.16-0.06c-1.38-0.06-2.819-0.18-4.26-0.3
		c-0.54-0.06-1.08-0.12-1.5-0.48c-0.479-0.42-0.72-1.02-0.96-1.5l-1.62-3.96c-1.14-2.58-2.4-5.16-3.48-7.74l-0.42-1.02l-0.36-0.9
		c-0.06-0.06-0.06-0.18-0.12-0.18l-0.18-0.12c-0.18,0-0.36,0-0.54-0.06h-0.96c-0.12,0.06-0.18,0.06-0.3,0.06c0,0-0.06-0.06-0.12,0
		h-0.06v0.06c-0.06,0.12-0.06,0.3-0.06,0.42c-0.06,0.36-0.06,13.079,0,13.739c0,0.42,0.12,1.02-0.18,1.38
		c-0.18,0.12-0.36,0.18-0.48,0.18l-0.96,0.12c-0.72,0.06-1.44,0.12-2.22,0.12c-0.66,0-1.38-0.12-2.04-0.18h-3.18
		c-0.06-0.06-0.18-0.06-0.3-0.12l-0.12-0.12c-0.06-0.12-0.06-0.18-0.06-0.3c0-0.72-0.36-39.239-0.36-40.559l0.48-0.18
		c0.12,0,0.3-0.06,0.42-0.06h1.14c0.66-0.06,1.38-0.06,2.1-0.06c0.72-0.06,1.44-0.06,2.22-0.06c0.72,0,1.44,0.06,2.16,0.06
		l4.32,0.12c0.72,0,1.44,0.06,2.16,0.06l2.1,0.12c0.72,0.06,1.439,0.18,2.1,0.3c0.72,0.12,1.44,0.24,2.1,0.48
		c1.08,0.3,2.16,0.84,3.12,1.5c0.9,0.66,1.74,1.44,2.4,2.34c0.779,1.08,1.38,2.22,1.859,3.419c0.24,0.6,0.42,1.2,0.48,1.92
		c0.06,0.66,0.12,1.38,0.12,2.1c0,1.26-0.181,2.52-0.601,3.78c-0.359,1.2-1.02,2.34-1.8,3.36c-0.78,1.08-1.56,2.16-2.52,3
		c-0.48,0.42-1.021,0.78-1.5,1.14l-0.84,0.54l-0.36,0.24l-0.24,0.12c-0.06,0.06,0,0,0,0.12c0,0.06,0.061,0.12,0.061,0.12l2.159,3.78
		l1.98,3.78c0.6,1.2,1.439,2.28,2.1,3.48c0.66,1.2,1.32,2.4,2.101,3.48l0.539,0.9c0,0.06,0.061,0.12,0.12,0.24
		C141.419,55.667,141.419,55.667,141.359,55.786z M130.5,28.607c0-0.78-0.36-2.04-0.96-2.52c-0.66-0.6-1.56-0.84-2.46-0.9
		c-1.08-0.18-2.16-0.12-3.24-0.12h-2.94c-0.06,0-0.06,0-0.12,0.12c-0.06,0-0.06,0.06-0.12,0.12v0.84c0,0.3,0,0.6-0.06,0.84v1.8
		c0,1.14,0.06,2.28,0.06,3.419v0.42c0,0.12,0.06,0.24,0.12,0.3h3.72C126.3,32.927,130.68,33.107,130.5,28.607z"/>
	<path fill="#FFFFFF" d="M158.101,24.527v6.48c0,0.12,0.06,0.3,0.12,0.42c0.119,0.06,0.42,0.06,0.54,0.12h1.739
		c1.561,0,3.18,0,4.74-0.12c0.84-0.06,1.62-0.06,2.46-0.06c0.72,0,1.5-0.12,2.22,0c0.54,0.12,0.96,0.48,1.08,1.02
		c0.06,0.3,0,0.66,0,0.96c-0.061,0.42-0.061,0.84-0.061,1.2c0,0.78-0.18,1.56-0.18,2.34v2.28c0,0.12,0,0.24-0.06,0.36
		c0,0.06-0.061,0.12-0.12,0.18c-0.061,0.12-0.12,0.12-0.24,0.18c-0.36,0.06-0.78,0.06-1.14,0.06c-0.78,0-1.561-0.06-2.4-0.06
		c-1.56,0.06-3.12,0.12-4.739,0.24c-0.78,0.06-1.561,0-2.34-0.06c-0.601,0-1.2-0.06-1.74,0.36c-0.061,0.12-0.18,0.18-0.24,0.36
		c0,0.18,0.061,0.42,0.061,0.66v1.14l0.18,2.4l0.18,2.34c0,0.06,0,0.18,0.061,0.24c0,0.12,0.06,0.18,0.119,0.24
		c0.181,0.06,0.301,0.12,0.421,0.12h1.02c0.84,0,1.62-0.06,2.399-0.06c0.841,0,1.62,0.06,2.4,0.06c1.62,0,3.24,0,4.8-0.06h1.26
		c0.36-0.06,0.78,0,1.14-0.06c0.54-0.06,1.261-0.3,1.74-0.06c0.48,0.3,0.54,0.96,0.48,1.44c0,0.78,0,1.62-0.061,2.4
		c0,0.78,0,1.62-0.06,2.4c-0.061,0.36,0,0.78,0,1.14c0,0.3-0.12,0.66-0.181,0.96l-0.119,0.24c-0.061,0-0.181,0.06-0.24,0.12
		l-0.42,0.3c-0.12,0.06-0.12,0.06-0.24,0.06h-0.9c-0.779-0.06-1.499-0.12-2.279-0.12c-0.18-0.06-0.36-0.06-0.54-0.06
		s-0.36,0.06-0.6,0.12c-0.36,0-0.721,0-1.141-0.06c-0.359,0-0.72,0.06-1.14,0c-0.36-0.06-0.72-0.06-1.14,0
		c-0.78,0-1.561,0-2.34-0.12c-0.841-0.06-1.62-0.06-2.4-0.06c-1.62-0.06-3.24-0.06-4.859-0.06l-4.8-0.12h-1.2
		c-0.18-0.06-0.36-0.06-0.54-0.06c-0.061,0-0.18,0-0.24-0.06c-0.06,0-0.06,0-0.06-0.06c-0.061-0.06-0.061-0.12-0.12-0.12
		c-0.12-0.36-0.061-0.72-0.061-1.08c0-0.42,0-0.78,0.061-1.2c0-0.42,0.06-0.84,0-1.2c0-0.42,0-0.84-0.061-1.2
		c0-0.84-0.06-1.62-0.06-2.399v-4.86c0-0.78,0-1.56,0.06-2.4c0.061-0.36,0.061-0.72,0.061-1.14v-1.2c-0.061-1.56-0.061-3.18,0-4.74
		c0.12-3.24,0.12-6.419,0.06-9.659c-0.06-1.62-0.18-3.24-0.18-4.8c0-0.84,0.06-1.62,0.12-2.4c0.06-0.42,0.06-0.84,0.06-1.2
		c0.061-0.3,0-0.6,0.181-0.84c0.06-0.18,0.239-0.3,0.479-0.3c0.3-0.06,0.66-0.06,1.021-0.06h2.459c1.561,0,3.12-0.12,4.74-0.18
		c1.62,0,3.24,0,4.859-0.06c0.78,0,1.62,0,2.4,0.06c0.84,0,1.62,0.06,2.4,0.06h5.279c0.12,0,0.12,0,0.18,0.12l0.181,0.3
		c0.18,0.3,0.239,0.66,0.3,1.02c0.12,0.78,0.18,1.56,0.24,2.28l0.3,2.4c0.06,0.54,0.12,1.14,0.06,1.68c0,0.3-0.12,0.6-0.359,0.72
		c-0.301,0.24-0.721,0.24-1.08,0.3l-2.28,0.18l-2.399,0.18c-1.62,0.18-3.24,0.18-4.8,0.18
		C161.101,24.587,159.601,24.587,158.101,24.527z"/>
	<path fill="#FFFFFF" d="M208.38,30.047c-0.841,0.12-1.681,0.18-2.58,0.12c-0.9,0-1.86,0-2.76-0.06h-1.44c-0.42,0-0.899,0-1.32-0.06
		c-0.359-0.06-0.72-0.18-0.959-0.48c-0.181-0.3-0.24-0.72-0.24-1.08c-0.12-0.48-0.181-0.96-0.24-1.38s-0.06-0.9-0.18-1.32
		c-0.12-0.78-0.601-1.44-1.08-1.98c-0.48-0.66-1.38-0.9-2.16-1.08c-0.72-0.18-1.439-0.18-2.16,0.12c-0.359,0.12-0.66,0.3-0.96,0.48
		c-0.3,0.24-0.659,0.42-0.84,0.72c-0.24,0.3-0.359,0.66-0.479,0.96c-0.12,0.36-0.181,0.72-0.24,1.02c-0.18,1.5,0.42,2.82,1.5,3.84
		c1.26,1.08,2.819,1.86,4.319,2.52c1.681,0.72,3.36,1.26,5.04,1.98c0.78,0.3,1.561,0.72,2.28,1.14c0.779,0.36,1.5,0.78,2.159,1.26
		c1.2,0.9,2.16,2.04,2.881,3.36l0.539,1.2c0.24,0.36,0.42,0.72,0.601,1.14c0.18,0.36,0.3,0.72,0.359,1.14
		c0,0.42-0.119,0.78-0.06,1.2c0,0.24,0.06,0.42,0.06,0.66v0.66c0,0.42-0.06,0.9-0.06,1.32c-0.12,0.9-0.3,1.8-0.54,2.64
		c-0.24,0.9-0.6,1.62-1.08,2.34c-0.54,0.72-1.08,1.32-1.739,1.86c-0.48,0.42-0.961,0.78-1.5,1.14c-0.42,0.3-0.9,0.48-1.381,0.72
		c-1.56,0.6-3.18,1.14-4.799,1.5c-1.74,0.42-3.601,0.72-5.4,0.72c-0.96-0.06-1.859-0.18-2.76-0.36c-0.84-0.18-1.74-0.36-2.58-0.6
		c-0.779-0.24-1.5-0.54-2.22-0.9c-0.72-0.36-1.44-0.78-2.04-1.32l-0.84-0.9c-0.3-0.3-0.6-0.6-0.78-0.96l-0.359-0.54l-0.181-0.18
		c-0.06-0.12-0.06-0.24-0.06-0.3l-0.36-1.02c-0.3-0.72-0.66-1.38-0.72-2.1c-0.06-0.24,0-0.42,0-0.6l-0.18-0.72
		c-0.061-0.42-0.12-0.9-0.12-1.32c-0.061-0.479-0.061-0.96-0.061-1.38c0.061-0.48,0.12-0.96,0.12-1.38
		c0.061-0.66-0.18-1.56,0.54-1.86c0.36-0.18,0.78-0.18,1.2-0.24c0.42-0.06,0.9-0.06,1.32-0.06c0.96-0.06,1.92-0.12,2.819-0.12
		c0.48-0.06,0.9-0.06,1.38-0.06c0.48,0,0.96,0.06,1.44,0.12c0.18,0.06,0.359,0.06,0.479,0.18c0.181,0.06,0.24,0.24,0.3,0.36
		c0.061,0.24,0,0.48,0,0.66v2.1c-0.06,0.48,0,0.9,0.12,1.32c0.24,0.78,0.66,1.5,1.2,2.1c0.24,0.3,0.48,0.6,0.78,0.84
		c0.359,0.24,0.779,0.42,1.14,0.54c0.84,0.24,1.68,0.36,2.52,0.18c1.44-0.18,3.12-0.84,3.36-2.4c0.24-1.56-0.3-3.24-1.5-4.26
		c-0.6-0.54-1.38-0.96-2.16-1.32c-0.779-0.42-1.56-0.84-2.399-1.2c-1.62-0.84-3.3-1.56-4.86-2.46c-0.779-0.42-1.5-0.96-2.22-1.44
		c-0.72-0.42-1.439-0.78-2.1-1.32c-0.601-0.42-1.08-0.96-1.5-1.56c-0.48-0.66-0.78-1.32-1.08-2.04c-0.18-0.36-0.36-0.72-0.48-1.08
		c-0.119-0.48-0.119-0.96-0.239-1.38c-0.12-0.9-0.24-1.8-0.24-2.7c0.06-1.74,0.54-3.48,1.32-5.04c0.359-0.72,0.84-1.44,1.319-2.1
		c0.48-0.6,1.021-1.26,1.561-1.8c1.02-1.08,2.279-1.86,3.659-2.399c0.78-0.24,1.62-0.42,2.4-0.54c0.899-0.18,1.8-0.3,2.76-0.36
		c0.899,0,1.8,0,2.7,0.06c0.96,0.06,1.859,0.12,2.76,0.24c0.899,0.18,1.8,0.36,2.64,0.6c0.78,0.24,1.56,0.6,2.22,1.14l1.021,0.78
		l0.899,0.66c0.54,0.54,0.96,1.2,1.26,1.86c0.42,0.84,0.9,1.62,1.2,2.52c0.24,0.9,0.42,1.8,0.54,2.7c0.12,0.84,0.18,1.74,0.12,2.58
		l-0.18,1.32c0,0.24-0.061,0.42-0.12,0.6L208.38,30.047z"/>
	<path fill="#FFFFFF" d="M263.939,56.146c-0.42,0.36-0.84,0.48-1.38,0.48c-0.601,0.06-1.2,0.06-1.801,0.06
		c-1.199,0.06-2.46,0.06-3.659,0c-0.54,0-1.141,0-1.68-0.12c-0.301-0.06-0.54-0.12-0.78-0.24c-0.12,0-0.181-0.06-0.3-0.18
		c-0.12-0.06-0.12-0.24-0.12-0.36c-0.061-0.6,0-1.2,0-1.8c0.06-0.6,0-1.14,0-1.74c-0.061-0.6,0-1.2,0-1.74c0-0.3,0-0.66-0.061-0.96
		c0-0.06,0-0.36-0.06-0.42c-0.061-0.06-0.3-0.06-0.36-0.06c-0.3-0.06-0.6-0.06-0.899-0.06h-0.96c-0.601,0-1.2-0.06-1.8-0.06h-0.841
		c-0.3,0-0.54-0.06-0.84-0.12c-0.54-0.06-1.14,0.06-1.68,0.12c-0.24,0-0.54,0-0.78,0.12c-0.06,0-0.119,0.06-0.119,0.06
		c-0.061,0.06-0.061,0.12-0.061,0.18c0.061,0.12,0.061,0.3,0.061,0.42c0,0.3,0.06,0.6,0.06,0.9s0,0.54-0.06,0.84
		c-0.12,1.2-0.061,2.4-0.12,3.6c0,0.48,0,1.02-0.36,1.32c-0.36,0.36-0.9,0.24-1.38,0.24c-1.2,0-6.899,0-7.14-0.06
		c-0.061,0-0.24,0-0.36-0.06c-0.06-0.06-0.06-0.24-0.12-0.36c-0.06-0.3,0-0.6,0.061-0.9v-0.9c0-1.2,0-2.4-0.061-3.6
		c0-1.2,0-2.4,0.12-3.6c0.12-1.2,0.061-2.4,0.061-3.6v-9.12c0-0.3,0-0.6-0.061-0.9c-0.06-0.3-0.12-0.54-0.12-0.84
		c0.061-1.2,0.061-2.4,0.061-3.66c0-1.14,0-2.34,0.24-3.54c0.119-1.08,0.479-2.1,0.96-3.12l0.899-1.44c0.3-0.48,0.54-0.96,0.9-1.38
		c0.359-0.48,0.72-0.84,1.14-1.26l1.14-1.08c0.78-0.66,1.681-1.08,2.641-1.44c0.539-0.18,1.079-0.48,1.619-0.6
		c0.54-0.18,1.141-0.3,1.74-0.42c0.54-0.12,1.14-0.18,1.74-0.24c0.6-0.06,1.199-0.06,1.8-0.06c1.14,0.12,2.28,0.48,3.359,0.84
		c1.08,0.3,2.101,0.78,3.12,1.32c0.96,0.54,1.92,1.08,2.7,1.8c1.56,1.38,2.64,3.36,3.18,5.34c0.3,1.14,0.42,2.34,0.54,3.48
		c0.06,0.3,0.06,0.6,0.06,0.9c0.061,0.3,0.12,0.6,0.061,0.84l-0.181,1.8c-0.06,1.26,0,2.46,0,3.66v18.359
		C264.059,53.566,264.119,55.426,263.939,56.146z M254.1,40.787l0.18-4.919l0.12-2.4c0-0.36,0-0.78,0.06-1.14
		c0-0.42,0.061-0.84,0.061-1.2c0-0.42-0.061-0.84-0.12-1.2l-0.12-1.14c-0.06-0.66-0.24-1.26-0.479-1.86c-0.42-1.2-1.38-2.34-2.7-2.7
		c-0.66-0.18-1.439-0.18-2.16,0.06c-0.6,0.18-1.26,0.48-1.739,0.9c-0.421,0.36-0.78,0.78-0.96,1.32c-0.24,0.6-0.24,1.2-0.301,1.86
		c0,1.68-0.06,3.36,0,5.04v2.46c-0.06,0.84-0.06,1.68-0.06,2.46c0,0.42,0.06,0.84,0.06,1.26v0.6c0,0.18-0.06,0.3,0,0.48
		c0,0.12,0.12,0.24,0.24,0.3c0.24,0,0.42-0.06,0.66-0.06h1.2C250.08,40.907,252.06,40.787,254.1,40.787z"/>
	<path fill="#FFFFFF" d="M290.459,40.967c0.36-0.06,0.66-0.18,1.02-0.18h1.2l2.46-0.18c0.84,0,1.62,0.06,2.4,0.12
		c0.359,0,0.72,0.12,1.079,0.12c0.301-0.06,0.601-0.18,0.9-0.06c0.6,0.18,0.66,0.96,0.66,1.44c0.06,0.84-0.061,1.68-0.12,2.459
		c-0.12,1.62-0.12,3.24-0.48,4.8c-0.3,1.44-0.84,2.88-1.739,4.08c-0.48,0.6-1.08,1.14-1.62,1.68l-0.78,0.72
		c-0.3,0.18-0.6,0.36-0.899,0.48c-1.32,0.66-2.76,1.32-4.26,1.68c-0.721,0.18-1.5,0.24-2.221,0.18c-0.84,0-1.68,0-2.459,0.06
		c-0.421,0-0.78,0.06-1.2,0.06c-0.36,0-0.78-0.06-1.141-0.12c-0.72-0.12-1.38-0.24-2.039-0.42c-1.38-0.36-2.7-0.9-3.84-1.62
		c-1.2-0.78-2.28-1.68-3.061-2.88c-0.779-1.2-1.38-2.64-1.739-4.08c-0.24-0.72-0.42-1.5-0.54-2.22c-0.061-0.42-0.12-0.78-0.12-1.2
		s0.06-0.78,0.06-1.2c0.061-0.78,0-1.62,0.061-2.4c0.06-0.84,0.06-1.62,0.06-2.46c0.061-0.84,0.18-1.62,0.18-2.459
		c0.061-0.84,0-1.68,0-2.46c-0.06-0.84,0-1.68-0.06-2.52c-0.06-0.36-0.06-0.78-0.06-1.2l0.119-1.2c0.061-1.56-0.06-3.18,0.24-4.8
		c0.24-1.2,0.66-2.4,1.32-3.48c0.66-1.14,1.5-2.04,2.52-2.88c0.54-0.48,1.021-1.02,1.62-1.44s1.26-0.78,1.979-1.14
		c1.261-0.66,2.7-1.32,4.2-1.56c0.42-0.06,0.78-0.06,1.2-0.06l1.199-0.18c0.78-0.06,1.561,0.06,2.341,0.18
		c1.439,0.3,2.999,0.66,4.199,1.56c0.54,0.42,1.2,0.78,1.74,1.2s1.02,0.9,1.5,1.44c0.96,1.08,1.8,2.28,2.279,3.66
		c0.54,1.44,0.78,3,0.9,4.56s0.06,3.18,0.06,4.74c0,0.66,0.061,1.44-0.72,1.68c-0.359,0.12-0.78,0.06-1.14,0.06
		c-0.36,0-0.78,0-1.2,0.06c-1.62,0.06-3.3,0.06-4.92-0.12l-1.2-0.18c-0.239-0.06-0.539-0.12-0.72-0.36
		c-0.18-0.24-0.239-0.54-0.239-0.84c0-0.36,0.06-0.78,0.06-1.2c0.06-0.78,0.24-1.56,0.36-2.34c0.06-0.78,0-1.56-0.24-2.28
		c-0.12-0.3-0.3-0.6-0.48-0.78c-0.239-0.24-0.54-0.42-0.84-0.6c-0.6-0.36-1.26-0.72-1.92-0.84c-1.2-0.24-2.46,0.18-3.18,1.2
		c-0.42,0.54-0.54,1.26-0.72,1.92c-0.24,0.72-0.42,1.5-0.54,2.28c-0.24,1.62-0.24,3.24-0.24,4.86c0.061,1.62,0,3.3,0.061,4.92
		c0,0.84,0.06,1.68,0.119,2.52c0,0.36,0.061,0.78,0.12,1.2c0.061,0.42,0.12,0.78,0.24,1.2c0.12,0.36,0.18,0.72,0.18,1.08l0.12,1.08
		c0.24,0.66,0.601,1.26,1.141,1.62c0.6,0.42,1.319,0.6,1.979,0.66c0.78,0.12,1.56,0,2.28-0.3c0.479-0.18,0.96-0.54,1.199-1.08
		l0.301-1.02c0.119-0.36,0.18-0.78,0.18-1.14c0.06-0.36,0.06-0.72,0.06-1.14c0-0.36,0.061-0.78,0.061-1.14
		c0.06-0.36,0.06-0.72,0.18-1.02C289.979,41.447,290.219,41.207,290.459,40.967z"/>
	<path fill="#FFFFFF" d="M314.099,24.047c-2.28,0-4.561,0-6.78,0.06c-0.479,0-1.08,0.06-1.5-0.12c-0.18-0.06-0.359-0.12-0.42-0.3
		c0-0.12-0.06-0.24-0.06-0.3c-0.061-0.6-0.12-1.14-0.12-1.74c-0.061-1.86,0.06-3.72,0.24-5.58v-0.42c0-0.06,0-0.06,0.119-0.12
		c0.061,0,0.12-0.06,0.181-0.06c0.24-0.12,0.54-0.12,0.78-0.12h1.8c1.14,0,2.34-0.06,3.479-0.06c2.34-0.06,4.68-0.06,7.08-0.06
		h7.079c1.141,0,2.34,0,3.48-0.06h2.64c0.12,0,0.3,0,0.359,0.06c0.12,0.06,0.181,0.18,0.181,0.3c0.24,0.42,0.18,0.96,0.18,1.44
		c0.061,0.54,0.061,1.14,0.061,1.74c0.06,1.14-0.12,2.28-0.061,3.48c0.061,0.48,0.18,1.02-0.06,1.5c0,0.12-0.061,0.24-0.181,0.3
		c-0.12,0.06-0.239,0.06-0.359,0.06c-0.3,0.06-0.54,0.06-0.84,0.06h-7.44c-0.06,0-0.3,0.06-0.3,0.12c-0.06,0.06,0,0.3,0,0.42v0.42
		c0,0.6,0.061,1.14,0.061,1.74v1.74c0,0.6-0.061,1.14,0,1.74c0,0.54,0.06,1.14,0.06,1.68c0,0.6-0.06,1.14-0.06,1.74
		s0.06,1.14,0.06,1.74c0,0.3-0.06,0.6-0.06,0.9c0,0.24-0.12,0.54-0.061,0.84c0.12,1.14,0.061,2.28,0.061,3.42
		c0,2.34,0.06,4.74,0.12,7.08c0,2.34,0,4.68-0.061,7.02c0,0.479,0.061,1.02-0.18,1.439c-0.3,0.42-0.78,0.42-1.26,0.48
		c-1.141,0.06-2.34,0.06-3.48,0.06l-3.54-0.12c-0.359,0-0.96,0.06-1.26-0.24c-0.3-0.36-0.12-0.84,0-1.2
		c0.24-1.14,0.12-2.28,0.181-3.36c0-0.6,0.06-1.2,0.06-1.74c0-0.6,0-1.2-0.06-1.8c0-0.6,0.06-1.14,0.06-1.74v-1.74
		c0-1.2,0.06-2.34,0.06-3.54v-7.08c0-1.14,0.061-2.34,0-3.479c-0.06-1.2-0.119-2.34-0.119-3.54
		C314.158,26.087,314.219,25.067,314.099,24.047z"/>
	<path fill="#FEF291" d="M339.657,15.468c0.78-0.06,1.561-0.24,2.34-0.18c0.42,0,0.78,0.06,1.2,0.12h3.66c0.3,0,0.6,0,0.84,0.24
		l0.18,0.48l0.18,0.54l0.12,1.2c0,0.36,0.061,0.78,0,1.14c0,0.18-0.06,0.36-0.06,0.6c0,0.18,0.06,0.36,0.06,0.54l0.12,1.2v4.98
		c0,1.68,0,3.3,0.061,4.979v2.46c-0.061,0.18,0,0.36,0.06,0.54v0.6c0.061,0.42,0,0.84,0,1.26c-0.06,0.78,0.12,1.56,0.061,2.4
		c0,0.78-0.061,1.62-0.061,2.46l-0.12,4.98c0,1.62-0.06,3.3,0,4.979c0,0.78,0,1.62-0.06,2.46c-0.061,0.78-0.181,1.56-0.3,2.34
		c0,0.12,0,0.18-0.12,0.3l-0.12,0.12c-0.18,0.06-0.3,0.18-0.48,0.18c-0.3,0.12-0.6,0.12-0.96,0.12h-6.479
		c-0.12,0-0.42,0.06-0.6-0.06c-0.24-0.12-0.24-0.6-0.3-0.9v-3.66c0-1.68,0.06-3.36,0.06-4.979v-9.96c0-0.36,0.06-0.78,0.06-1.2
		c0-0.18,0.061-0.36,0.061-0.48c0-0.24-0.061-0.42-0.061-0.66c-0.06-0.78,0.061-1.62,0.061-2.4c0-0.42-0.061-0.78-0.061-1.2v-1.26
		c0.061-0.78,0.061-1.62,0.061-2.46c0.06-3.3,0-6.6,0.12-9.96C339.178,16.668,339.178,16.008,339.657,15.468z"/>
	<path fill="#FFFFFF" d="M355.198,15.168l4.199-0.12c0.66-0.06,1.38-0.06,2.04-0.06c0.36-0.06,0.66-0.06,1.02-0.06
		c0.181,0,0.301,0,0.48,0.06h0.24l0.18,0.12c0.42,0.42,0.54,0.96,0.66,1.5l0.42,2.04c0.3,1.38,0.54,2.76,0.78,4.08
		c0.479,2.76,1.02,5.52,1.56,8.34c0.24,1.32,0.48,2.7,0.84,4.02c0.3,1.38,0.72,2.7,1.021,4.08l0.239,1.02l0.301,0.96
		c0,0.12,0.06,0.3,0.119,0.36c0.12,0.06,0.36,0.06,0.48,0.06s0.24-0.06,0.359-0.12l0.12-0.12c0-0.12,0.061-0.18,0.061-0.3
		c0.18-0.66,0.24-1.32,0.359-1.98l0.36-2.1l1.44-8.339l1.38-8.34c0.119-0.72,0.239-1.44,0.3-2.1l0.359-2.1
		c0-0.12,0.061-0.3,0.12-0.42c0.061-0.06,0.061-0.12,0.061-0.18c0.06-0.12,0.06-0.12,0.18-0.18c0.3-0.12,0.6-0.12,0.9-0.12
		l2.039-0.18h1.021c0.18,0,0.36,0,0.54,0.06c0.06,0,0.12,0.06,0.18,0.06c0.12,0,0.24-0.06,0.3-0.06c0.721-0.06,1.38,0.06,2.04,0.12
		s1.32,0,1.98,0.06c0.479,0.12,1.319,0.18,1.38,0.84c0,0.3-0.12,0.6-0.24,0.9c-0.06,0.36-0.12,0.72-0.24,1.02l-0.54,2.04l-1.08,4.02
		c-0.779,2.7-1.38,5.4-2.159,8.04c-0.84,2.7-1.561,5.399-2.28,8.1l-2.16,8.16c-0.359,1.32-0.72,2.7-1.14,4.02
		c-0.18,0.66-0.36,1.32-0.6,1.98c-0.181,0.66-0.36,1.26-0.78,1.74c-0.3,0.48-0.84,0.48-1.38,0.48c-0.72,0-1.38,0.06-2.1,0.06
		c-0.721,0-1.38,0-2.101,0.06h-1.02c-0.36,0-0.66-0.06-0.96-0.06c-0.601-0.06-1.14,0.24-1.68-0.12c-0.48-0.24-0.54-0.84-0.66-1.38
		l-1.141-3.9c-0.359-1.38-0.659-2.7-0.96-4.08c-0.359-1.32-0.72-2.64-1.02-4.02l-1.08-4.08l-0.899-4.02
		c-0.301-1.38-0.66-2.76-1.021-4.08c-0.359-1.38-0.6-2.7-0.899-4.08l-0.96-4.08c-0.24-1.32-0.42-2.7-0.78-4.02
		c-0.18-0.66-0.42-1.26-0.48-1.92c0-0.36,0-0.66,0.061-1.02C354.958,15.588,355.078,15.408,355.198,15.168z"/>
	<path fill="#FEF291" d="M392.157,15.468c0.78-0.06,1.561-0.24,2.34-0.18c0.42,0,0.78,0.06,1.2,0.12h3.66c0.3,0,0.6,0,0.84,0.24
		l0.18,0.48l0.18,0.54l0.12,1.2c0,0.36,0.061,0.78,0,1.14c0,0.18-0.06,0.36-0.06,0.6c0,0.18,0.06,0.36,0.06,0.54l0.12,1.2v4.98
		c0,1.68,0,3.3,0.061,4.979v2.46c-0.061,0.18,0,0.36,0.06,0.54v0.6c0.061,0.42,0,0.84,0,1.26c-0.06,0.78,0.12,1.56,0.061,2.4
		c0,0.78-0.061,1.62-0.061,2.46l-0.12,4.98c0,1.62-0.06,3.3,0,4.979c0,0.78,0,1.62-0.06,2.46c-0.061,0.78-0.181,1.56-0.3,2.34
		c0,0.12,0,0.18-0.12,0.3l-0.12,0.12c-0.18,0.06-0.3,0.18-0.48,0.18c-0.3,0.12-0.6,0.12-0.96,0.12h-6.479
		c-0.12,0-0.42,0.06-0.6-0.06c-0.24-0.12-0.24-0.6-0.3-0.9v-3.66c0-1.68,0.06-3.36,0.06-4.979v-9.96c0-0.36,0.06-0.78,0.06-1.2
		c0-0.18,0.061-0.36,0.061-0.48c0-0.24-0.061-0.42-0.061-0.66c-0.06-0.78,0.061-1.62,0.061-2.4c0-0.42-0.061-0.78-0.061-1.2v-1.26
		c0.061-0.78,0.061-1.62,0.061-2.46c0.06-3.3,0-6.6,0.12-9.96C391.678,16.668,391.678,16.008,392.157,15.468z"/>
	<path fill="#FFFFFF" d="M415.798,24.047c-2.28,0-4.561,0-6.78,0.06c-0.479,0-1.08,0.06-1.5-0.12c-0.18-0.06-0.359-0.12-0.42-0.3
		c0-0.12-0.06-0.24-0.06-0.3c-0.061-0.6-0.12-1.14-0.12-1.74c-0.061-1.86,0.06-3.72,0.24-5.58v-0.42c0-0.06,0-0.06,0.119-0.12
		c0.061,0,0.12-0.06,0.181-0.06c0.24-0.12,0.54-0.12,0.78-0.12h1.8c1.14,0,2.34-0.06,3.479-0.06c2.34-0.06,4.68-0.06,7.08-0.06
		h7.079c1.141,0,2.34,0,3.48-0.06h2.64c0.12,0,0.3,0,0.359,0.06c0.12,0.06,0.181,0.18,0.181,0.3c0.24,0.42,0.18,0.96,0.18,1.44
		c0.061,0.54,0.061,1.14,0.061,1.74c0.06,1.14-0.12,2.28-0.061,3.48c0.061,0.48,0.18,1.02-0.06,1.5c0,0.12-0.061,0.24-0.181,0.3
		c-0.12,0.06-0.239,0.06-0.359,0.06c-0.3,0.06-0.54,0.06-0.84,0.06h-7.44c-0.06,0-0.3,0.06-0.3,0.12c-0.06,0.06,0,0.3,0,0.42v0.42
		c0,0.6,0.061,1.14,0.061,1.74v1.74c0,0.6-0.061,1.14,0,1.74c0,0.54,0.06,1.14,0.06,1.68c0,0.6-0.06,1.14-0.06,1.74
		s0.06,1.14,0.06,1.74c0,0.3-0.06,0.6-0.06,0.9c0,0.24-0.12,0.54-0.061,0.84c0.12,1.14,0.061,2.28,0.061,3.42
		c0,2.34,0.06,4.74,0.12,7.08c0,2.34,0,4.68-0.061,7.02c0,0.479,0.061,1.02-0.18,1.439c-0.3,0.42-0.78,0.42-1.26,0.48
		c-1.141,0.06-2.34,0.06-3.48,0.06l-3.54-0.12c-0.359,0-0.96,0.06-1.26-0.24c-0.3-0.36-0.12-0.84,0-1.2
		c0.24-1.14,0.12-2.28,0.181-3.36c0-0.6,0.06-1.2,0.06-1.74c0-0.6,0-1.2-0.06-1.8c0-0.6,0.06-1.14,0.06-1.74v-1.74
		c0-1.2,0.06-2.34,0.06-3.54v-7.08c0-1.14,0.061-2.34,0-3.479c-0.06-1.2-0.119-2.34-0.119-3.54
		C415.857,26.087,415.918,25.067,415.798,24.047z"/>
	<path fill="#FFFFFF" d="M450.477,24.527v6.48c0,0.12,0.06,0.3,0.12,0.42c0.12,0.06,0.42,0.06,0.54,0.12h1.739
		c1.561,0,3.18,0,4.74-0.12c0.84-0.06,1.62-0.06,2.46-0.06c0.72,0,1.5-0.12,2.22,0c0.54,0.12,0.96,0.48,1.08,1.02
		c0.06,0.3,0,0.66,0,0.96c-0.061,0.42-0.061,0.84-0.061,1.2c0,0.78-0.18,1.56-0.18,2.34v2.28c0,0.12,0,0.24-0.06,0.36
		c0,0.06-0.061,0.12-0.12,0.18c-0.061,0.12-0.12,0.12-0.24,0.18c-0.36,0.06-0.78,0.06-1.14,0.06c-0.78,0-1.561-0.06-2.4-0.06
		c-1.56,0.06-3.12,0.12-4.739,0.24c-0.78,0.06-1.561,0-2.34-0.06c-0.601,0-1.2-0.06-1.74,0.36c-0.061,0.12-0.18,0.18-0.24,0.36
		c0,0.18,0.061,0.42,0.061,0.66v1.14l0.18,2.4l0.18,2.34c0,0.06,0,0.18,0.061,0.24c0,0.12,0.06,0.18,0.12,0.24
		c0.18,0.06,0.3,0.12,0.42,0.12h1.02c0.84,0,1.62-0.06,2.4-0.06c0.84,0,1.619,0.06,2.399,0.06c1.62,0,3.24,0,4.8-0.06h1.26
		c0.36-0.06,0.78,0,1.141-0.06c0.539-0.06,1.26-0.3,1.739-0.06c0.48,0.3,0.54,0.96,0.48,1.44c0,0.78,0,1.62-0.061,2.4
		c0,0.78,0,1.62-0.06,2.4c-0.061,0.36,0,0.78,0,1.14c0,0.3-0.12,0.66-0.18,0.96l-0.12,0.24c-0.061,0-0.181,0.06-0.24,0.12l-0.42,0.3
		c-0.12,0.06-0.12,0.06-0.24,0.06h-0.899c-0.78-0.06-1.5-0.12-2.28-0.12c-0.18-0.06-0.36-0.06-0.54-0.06s-0.36,0.06-0.6,0.12
		c-0.36,0-0.721,0-1.141-0.06c-0.359,0-0.72,0.06-1.14,0c-0.36-0.06-0.72-0.06-1.14,0c-0.78,0-1.561,0-2.34-0.12
		c-0.841-0.06-1.62-0.06-2.4-0.06c-1.62-0.06-3.24-0.06-4.859-0.06l-4.8-0.12h-1.2c-0.18-0.06-0.36-0.06-0.54-0.06
		c-0.06,0-0.18,0-0.24-0.06c-0.06,0-0.06,0-0.06-0.06c-0.061-0.06-0.061-0.12-0.12-0.12c-0.12-0.36-0.061-0.72-0.061-1.08
		c0-0.42,0-0.78,0.061-1.2c0-0.42,0.06-0.84,0-1.2c0-0.42,0-0.84-0.061-1.2c0-0.84-0.06-1.62-0.06-2.399v-4.86
		c0-0.78,0-1.56,0.06-2.4c0.061-0.36,0.061-0.72,0.061-1.14v-1.2c-0.061-1.56-0.061-3.18,0-4.74c0.12-3.24,0.12-6.419,0.06-9.659
		c-0.06-1.62-0.18-3.24-0.18-4.8c0-0.84,0.06-1.62,0.12-2.4c0.06-0.42,0.06-0.84,0.06-1.2c0.061-0.3,0-0.6,0.181-0.84
		c0.06-0.18,0.239-0.3,0.479-0.3c0.3-0.06,0.66-0.06,1.021-0.06h2.46c1.56,0,3.119-0.12,4.739-0.18c1.62,0,3.24,0,4.86-0.06
		c0.779,0,1.619,0,2.399,0.06c0.84,0,1.62,0.06,2.399,0.06h5.28c0.12,0,0.12,0,0.18,0.12l0.181,0.3c0.18,0.3,0.239,0.66,0.3,1.02
		c0.12,0.78,0.18,1.56,0.24,2.28l0.3,2.4c0.06,0.54,0.12,1.14,0.06,1.68c0,0.3-0.12,0.6-0.359,0.72c-0.301,0.24-0.721,0.24-1.08,0.3
		l-2.28,0.18l-2.399,0.18c-1.62,0.18-3.24,0.18-4.8,0.18C453.477,24.587,451.977,24.587,450.477,24.527z"/>
	<path fill="#FFFFFF" d="M500.756,30.047c-0.841,0.12-1.681,0.18-2.58,0.12c-0.9,0-1.86,0-2.76-0.06h-1.44
		c-0.42,0-0.899,0-1.319-0.06c-0.36-0.06-0.721-0.18-0.961-0.48c-0.18-0.3-0.239-0.72-0.239-1.08c-0.12-0.48-0.181-0.96-0.24-1.38
		s-0.06-0.9-0.18-1.32c-0.12-0.78-0.601-1.44-1.08-1.98c-0.48-0.66-1.38-0.9-2.16-1.08c-0.72-0.18-1.439-0.18-2.16,0.12
		c-0.359,0.12-0.659,0.3-0.96,0.48c-0.3,0.24-0.66,0.42-0.84,0.72c-0.24,0.3-0.359,0.66-0.479,0.96c-0.12,0.36-0.181,0.72-0.24,1.02
		c-0.18,1.5,0.42,2.82,1.5,3.84c1.26,1.08,2.819,1.86,4.319,2.52c1.681,0.72,3.36,1.26,5.04,1.98c0.78,0.3,1.56,0.72,2.28,1.14
		c0.779,0.36,1.5,0.78,2.16,1.26c1.199,0.9,2.159,2.04,2.879,3.36l0.54,1.2c0.24,0.36,0.421,0.72,0.601,1.14
		c0.18,0.36,0.3,0.72,0.359,1.14c0,0.42-0.119,0.78-0.06,1.2c0,0.24,0.06,0.42,0.06,0.66v0.66c0,0.42-0.06,0.9-0.06,1.32
		c-0.12,0.9-0.3,1.8-0.54,2.64c-0.24,0.9-0.6,1.62-1.08,2.34c-0.54,0.72-1.08,1.32-1.74,1.86c-0.479,0.42-0.959,0.78-1.499,1.14
		c-0.421,0.3-0.9,0.48-1.38,0.72c-1.561,0.6-3.181,1.14-4.801,1.5c-1.739,0.42-3.6,0.72-5.399,0.72c-0.96-0.06-1.859-0.18-2.76-0.36
		c-0.84-0.18-1.74-0.36-2.58-0.6c-0.78-0.24-1.5-0.54-2.22-0.9c-0.72-0.36-1.439-0.78-2.04-1.32l-0.84-0.9
		c-0.3-0.3-0.6-0.6-0.78-0.96l-0.359-0.54l-0.181-0.18c-0.06-0.12-0.06-0.24-0.06-0.3l-0.36-1.02c-0.3-0.72-0.659-1.38-0.72-2.1
		c-0.06-0.24,0-0.42,0-0.6l-0.18-0.72c-0.061-0.42-0.12-0.9-0.12-1.32c-0.061-0.479-0.061-0.96-0.061-1.38
		c0.061-0.48,0.12-0.96,0.12-1.38c0.061-0.66-0.18-1.56,0.54-1.86c0.36-0.18,0.78-0.18,1.2-0.24c0.42-0.06,0.9-0.06,1.32-0.06
		c0.96-0.06,1.92-0.12,2.819-0.12c0.48-0.06,0.9-0.06,1.38-0.06c0.48,0,0.96,0.06,1.44,0.12c0.18,0.06,0.359,0.06,0.479,0.18
		c0.181,0.06,0.24,0.24,0.3,0.36c0.061,0.24,0,0.48,0,0.66v2.1c-0.06,0.48,0,0.9,0.12,1.32c0.24,0.78,0.66,1.5,1.2,2.1
		c0.24,0.3,0.48,0.6,0.78,0.84c0.359,0.24,0.779,0.42,1.14,0.54c0.84,0.24,1.68,0.36,2.52,0.18c1.44-0.18,3.12-0.84,3.36-2.4
		c0.24-1.56-0.3-3.24-1.5-4.26c-0.6-0.54-1.38-0.96-2.16-1.32c-0.779-0.42-1.56-0.84-2.399-1.2c-1.62-0.84-3.3-1.56-4.86-2.46
		c-0.779-0.42-1.5-0.96-2.22-1.44c-0.72-0.42-1.439-0.78-2.1-1.32c-0.601-0.42-1.08-0.96-1.5-1.56c-0.48-0.66-0.78-1.32-1.08-2.04
		c-0.18-0.36-0.36-0.72-0.479-1.08c-0.12-0.48-0.12-0.96-0.24-1.38c-0.12-0.9-0.24-1.8-0.24-2.7c0.06-1.74,0.54-3.48,1.32-5.04
		c0.359-0.72,0.84-1.44,1.319-2.1c0.48-0.6,1.021-1.26,1.561-1.8c1.02-1.08,2.279-1.86,3.659-2.399c0.78-0.24,1.62-0.42,2.4-0.54
		c0.899-0.18,1.8-0.3,2.76-0.36c0.9,0,1.8,0,2.7,0.06c0.96,0.06,1.859,0.12,2.76,0.24c0.899,0.18,1.8,0.36,2.64,0.6
		c0.78,0.24,1.56,0.6,2.22,1.14l1.021,0.78l0.899,0.66c0.54,0.54,0.96,1.2,1.26,1.86c0.42,0.84,0.9,1.62,1.2,2.52
		c0.24,0.9,0.42,1.8,0.54,2.7c0.12,0.84,0.18,1.74,0.12,2.58l-0.18,1.32c0,0.24-0.061,0.42-0.12,0.6L500.756,30.047z"/>
</g>
<g>
	<path fill="#FFFFFF" d="M447.273,12.776c-0.071-0.142-0.021-0.374,0.003-0.423c1.06-2.173,0.841-1.767,1.683-3.815l1.143-2.601
		c0,0,0.447-1.146,0.501-1.256l0.272-0.218c0.163-0.11,0.326-0.165,0.49-0.166l0.818-0.003l1.637-0.098
		c0.274-0.001,1.746,0.031,1.746,0.031c0.544-0.057,1.145-0.004,1.69,0.049c0.272,0.054,0.546,0.052,0.818,0.051
		c0.272,0.054,0.601-0.002,0.873,0.052l0.765,0.161c0.109,0.054,0.219,0.054,0.328,0.163c0.055,0.054,0.164,0.163,0.164,0.272
		c0.055,0.164,0.07,0.125,0.002,0.546s-1.43,2.441-1.43,2.441c-0.789,1.513-1.684,2.229-3.179,4.211
		c-0.071,0.094-0.456,0.696-0.896,0.825S447.405,13.036,447.273,12.776z"/>
</g>
<g>
	<path fill="#FEF291" d="M583.246,36.317c-0.851-2.411-2.698-4.335-5.074-5.279c-2.379-0.947-5.048-0.815-7.317,0.357
		l-21.415,11.039c-2.438,1.257-3.589,4.156-2.678,6.743c0.79,2.235,2.924,3.685,5.221,3.685c0.362,0,0.729-0.038,1.093-0.111
		l23.604-4.828c2.505-0.515,4.664-2.084,5.924-4.311C583.863,41.388,584.096,38.728,583.246,36.317"/>
	<path fill="#FEF291" d="M529.503,29.336c-1.542-2.04-3.893-3.309-6.444-3.484c-2.549-0.178-5.054,0.757-6.858,2.569h-0.004
		c-1.807,1.809-2.741,4.308-2.566,6.859c0.176,2.551,1.444,4.899,3.481,6.445l19.206,14.548c0.983,0.746,2.156,1.111,3.326,1.111
		c1.425,0,2.847-0.543,3.91-1.61c1.939-1.938,2.153-5.051,0.497-7.24L529.503,29.336z"/>
	<path fill="#FEF291" d="M551.604,36.934c6.447,0,11.69-5.243,11.69-11.692c0-6.447-5.243-11.689-11.69-11.689
		s-11.691,5.243-11.691,11.689C539.912,31.689,545.154,36.934,551.604,36.934"/>
</g>
</svg>
