<?xml version="1.0" encoding="utf-8"?>
<!-- Generator: Adobe Illustrator 16.0.0, SVG Export Plug-In . SVG Version: 6.00 Build 0)  -->
<!DOCTYPE svg PUBLIC "-//W3C//DTD SVG 1.1//EN" "http://www.w3.org/Graphics/SVG/1.1/DTD/svg11.dtd">
<svg version="1.1" id="Calque_1" xmlns="http://www.w3.org/2000/svg" xmlns:xlink="http://www.w3.org/1999/xlink" x="0px" y="0px"
	 width="433.417px" height="62.5px" viewBox="0 0 433.417 62.5" enable-background="new 0 0 433.417 62.5" xml:space="preserve">
<g>
	<path fill="#FFFFFF" d="M17.761,15.228c0.36,0.24,0.54,0.54,0.54,0.96c0.06,0.6,0,1.14,0,1.74c0,1.14-0.06,2.28-0.12,3.42
		l-0.12,3.36c0,1.14-0.06,2.28-0.06,3.48c0,2.22,0.06,4.5,0.06,6.78c0,1.14,0.06,2.28,0.12,3.36l0.18,3.419l0.18,1.68
		c0.06,0.54,0.06,1.14,0.06,1.68c0,0.479-0.06,0.9,0,1.38c0.06,0.3,0.12,0.6,0.36,0.78c0.18,0.18,0.48,0.3,0.78,0.36
		c0.54,0.12,1.08,0.18,1.62,0.18c1.08,0.12,2.22,0.06,3.3,0.06c1.14,0,2.28-0.06,3.419-0.12c1.14-0.06,2.22-0.06,3.3-0.06
		c0.6,0,1.14-0.06,1.74-0.12c0.42-0.06,0.84-0.18,1.2,0.06c0.36,0.18,0.48,0.54,0.54,0.96c0.06,0.54,0.06,1.02,0,1.56
		c-0.06,1.14-0.24,2.22-0.36,3.36c0,0.6-0.06,1.14-0.06,1.68v0.66c0,0.06,0,0.06-0.06,0.18c-0.12,0.12-0.42,0.24-0.6,0.36
		c-0.479,0.18-0.9,0.18-1.38,0.24h-1.74c-1.14-0.06-2.28-0.06-3.42-0.06c-2.28,0-4.56,0.18-6.78,0.18h-6.899
		c-1.14,0-2.28,0-3.42-0.12c-0.24,0-0.48-0.06-0.78-0.06c-0.18,0-0.42,0-0.6-0.12c-0.42-0.18-0.36-0.6-0.42-0.96v-3.42
		c-0.06-1.14-0.06-2.22-0.06-3.36c-0.06-2.28,0-4.5,0-6.78s-0.06-4.56-0.06-6.84c0-4.56,0-9.179-0.06-13.739
		c0-1.14,0-2.28-0.06-3.42c-0.06-0.54-0.12-1.08-0.12-1.68c0-0.42,0.18-0.78,0.54-1.08c0.36-0.3,0.9-0.24,1.38-0.24
		c0.54,0,1.02,0.06,1.56,0.12c1.08,0.18,2.22-0.06,3.3-0.06c0.48-0.06,1.02-0.06,1.56,0.06c0.24,0,0.48,0.12,0.78,0.12
		C17.341,15.168,17.521,15.168,17.761,15.228z"/>
	<path fill="#FEF291" d="M41.642,15.468c0.78-0.06,1.56-0.24,2.34-0.18c0.42,0,0.78,0.06,1.2,0.12h3.66c0.3,0,0.6,0,0.84,0.24
		l0.18,0.48l0.18,0.54l0.12,1.2c0,0.36,0.06,0.78,0,1.14c0,0.18-0.06,0.36-0.06,0.6c0,0.18,0.06,0.36,0.06,0.54l0.12,1.2v4.98
		c0,1.68,0,3.3,0.06,4.979v2.46c-0.06,0.18,0,0.36,0.06,0.54v0.6c0.06,0.42,0,0.84,0,1.26c-0.06,0.78,0.12,1.56,0.06,2.4
		c0,0.78-0.06,1.62-0.06,2.46l-0.12,4.98c0,1.62-0.06,3.3,0,4.979c0,0.78,0,1.62-0.06,2.46c-0.06,0.78-0.18,1.56-0.3,2.34
		c0,0.12,0,0.18-0.12,0.3l-0.12,0.12c-0.18,0.06-0.3,0.18-0.48,0.18c-0.3,0.12-0.6,0.12-0.96,0.12h-6.48c-0.12,0-0.42,0.06-0.6-0.06
		c-0.24-0.12-0.24-0.6-0.3-0.9v-3.66c0-1.68,0.06-3.36,0.06-4.979v-9.96c0-0.36,0.06-0.78,0.06-1.2c0-0.18,0.06-0.36,0.06-0.48
		c0-0.24-0.06-0.42-0.06-0.66c-0.06-0.78,0.06-1.62,0.06-2.4c0-0.42-0.06-0.78-0.06-1.2v-1.26c0.06-0.78,0.06-1.62,0.06-2.46
		c0.06-3.3,0-6.6,0.12-9.96C41.161,16.668,41.161,16.008,41.642,15.468z"/>
	<path fill="#FFFFFF" d="M65.281,24.047c-2.28,0-4.56,0-6.78,0.06c-0.48,0-1.08,0.06-1.5-0.12c-0.18-0.06-0.36-0.12-0.42-0.3
		c0-0.12-0.06-0.24-0.06-0.3c-0.06-0.6-0.12-1.14-0.12-1.74c-0.06-1.86,0.06-3.72,0.24-5.58v-0.42c0-0.06,0-0.06,0.12-0.12
		c0.06,0,0.12-0.06,0.18-0.06c0.24-0.12,0.54-0.12,0.78-0.12h1.8c1.14,0,2.34-0.06,3.48-0.06c2.34-0.06,4.68-0.06,7.08-0.06h7.08
		c1.14,0,2.34,0,3.48-0.06h2.64c0.12,0,0.3,0,0.36,0.06c0.12,0.06,0.18,0.18,0.18,0.3c0.24,0.42,0.18,0.96,0.18,1.44
		c0.06,0.54,0.06,1.14,0.06,1.74c0.06,1.14-0.12,2.28-0.06,3.48c0.06,0.48,0.18,1.02-0.06,1.5c0,0.12-0.06,0.24-0.18,0.3
		c-0.12,0.06-0.24,0.06-0.36,0.06c-0.3,0.06-0.54,0.06-0.84,0.06h-7.439c-0.06,0-0.3,0.06-0.3,0.12c-0.06,0.06,0,0.3,0,0.42v0.42
		c0,0.6,0.06,1.14,0.06,1.74v1.74c0,0.6-0.06,1.14,0,1.74c0,0.54,0.06,1.14,0.06,1.68c0,0.6-0.06,1.14-0.06,1.74
		s0.06,1.14,0.06,1.74c0,0.3-0.06,0.6-0.06,0.9c0,0.24-0.12,0.54-0.06,0.84c0.12,1.14,0.06,2.28,0.06,3.42
		c0,2.34,0.06,4.74,0.12,7.08c0,2.34,0,4.68-0.06,7.02c0,0.479,0.06,1.02-0.18,1.439c-0.3,0.42-0.78,0.42-1.26,0.48
		c-1.14,0.06-2.34,0.06-3.48,0.06l-3.54-0.12c-0.36,0-0.96,0.06-1.26-0.24c-0.3-0.36-0.12-0.84,0-1.2c0.24-1.14,0.12-2.28,0.18-3.36
		c0-0.6,0.06-1.2,0.06-1.74c0-0.6,0-1.2-0.06-1.8c0-0.6,0.06-1.14,0.06-1.74v-1.74c0-1.2,0.06-2.34,0.06-3.54v-7.08
		c0-1.14,0.06-2.34,0-3.479L65.281,24.047z"/>
	<path fill="#FFFFFF" d="M98.1,24.047c-2.28,0-4.56,0-6.78,0.06c-0.48,0-1.08,0.06-1.5-0.12c-0.18-0.06-0.36-0.12-0.42-0.3
		c0-0.12-0.06-0.24-0.06-0.3c-0.06-0.6-0.12-1.14-0.12-1.74c-0.06-1.86,0.06-3.72,0.24-5.58v-0.42c0-0.06,0-0.06,0.12-0.12
		c0.06,0,0.12-0.06,0.18-0.06c0.24-0.12,0.54-0.12,0.78-0.12h1.8c1.14,0,2.34-0.06,3.48-0.06c2.34-0.06,4.68-0.06,7.08-0.06h7.08
		c1.14,0,2.34,0,3.479-0.06h2.64c0.12,0,0.3,0,0.36,0.06c0.12,0.06,0.18,0.18,0.18,0.3c0.24,0.42,0.18,0.96,0.18,1.44
		c0.06,0.54,0.06,1.14,0.06,1.74c0.06,1.14-0.12,2.28-0.06,3.48c0.06,0.48,0.18,1.02-0.06,1.5c0,0.12-0.06,0.24-0.18,0.3
		c-0.12,0.06-0.24,0.06-0.36,0.06c-0.3,0.06-0.54,0.06-0.84,0.06h-7.439c-0.06,0-0.3,0.06-0.3,0.12c-0.06,0.06,0,0.3,0,0.42v0.42
		c0,0.6,0.06,1.14,0.06,1.74v1.74c0,0.6-0.06,1.14,0,1.74c0,0.54,0.06,1.14,0.06,1.68c0,0.6-0.06,1.14-0.06,1.74
		s0.06,1.14,0.06,1.74c0,0.3-0.06,0.6-0.06,0.9c0,0.24-0.12,0.54-0.06,0.84c0.12,1.14,0.06,2.28,0.06,3.42
		c0,2.34,0.06,4.74,0.12,7.08c0,2.34,0,4.68-0.06,7.02c0,0.479,0.06,1.02-0.18,1.439c-0.3,0.42-0.78,0.42-1.26,0.48
		c-1.14,0.06-2.34,0.06-3.48,0.06l-3.54-0.12c-0.36,0-0.96,0.06-1.26-0.24c-0.3-0.36-0.12-0.84,0-1.2c0.24-1.14,0.12-2.28,0.18-3.36
		c0-0.6,0.06-1.2,0.06-1.74c0-0.6,0-1.2-0.06-1.8c0-0.6,0.06-1.14,0.06-1.74v-1.74c0-1.2,0.06-2.34,0.06-3.54v-7.08
		c0-1.14,0.06-2.34,0-3.479L98.1,24.047z"/>
	<path fill="#FFFFFF" d="M132.779,24.527v6.48c0,0.12,0.06,0.3,0.12,0.42c0.12,0.06,0.42,0.06,0.54,0.12h1.739
		c1.561,0,3.18,0,4.74-0.12c0.84-0.06,1.62-0.06,2.46-0.06c0.72,0,1.5-0.12,2.22,0c0.54,0.12,0.96,0.48,1.08,1.02
		c0.06,0.3,0,0.66,0,0.96c-0.061,0.42-0.061,0.84-0.061,1.2c0,0.78-0.18,1.56-0.18,2.34v2.28c0,0.12,0,0.24-0.06,0.36
		c0,0.06-0.061,0.12-0.12,0.18c-0.061,0.12-0.12,0.12-0.24,0.18c-0.36,0.06-0.78,0.06-1.14,0.06c-0.78,0-1.561-0.06-2.4-0.06
		c-1.56,0.06-3.12,0.12-4.739,0.24c-0.78,0.06-1.561,0-2.34-0.06c-0.601,0-1.2-0.06-1.74,0.36c-0.061,0.12-0.18,0.18-0.24,0.36
		c0,0.18,0.061,0.42,0.061,0.66v1.14l0.18,2.4l0.18,2.34c0,0.06,0,0.18,0.061,0.24c0,0.12,0.06,0.18,0.12,0.24
		c0.18,0.06,0.3,0.12,0.42,0.12h1.02c0.84,0,1.62-0.06,2.4-0.06c0.84,0,1.619,0.06,2.399,0.06c1.62,0,3.24,0,4.8-0.06h1.26
		c0.36-0.06,0.78,0,1.141-0.06c0.539-0.06,1.26-0.3,1.739-0.06c0.48,0.3,0.54,0.96,0.48,1.44c0,0.78,0,1.62-0.061,2.4
		c0,0.78,0,1.62-0.06,2.4c-0.061,0.36,0,0.78,0,1.14c0,0.3-0.12,0.66-0.18,0.96l-0.12,0.24c-0.061,0-0.181,0.06-0.24,0.12l-0.42,0.3
		c-0.12,0.06-0.12,0.06-0.24,0.06h-0.899c-0.78-0.06-1.5-0.12-2.28-0.12c-0.18-0.06-0.36-0.06-0.54-0.06s-0.36,0.06-0.6,0.12
		c-0.36,0-0.721,0-1.141-0.06c-0.359,0-0.72,0.06-1.14,0c-0.36-0.06-0.72-0.06-1.14,0c-0.78,0-1.561,0-2.34-0.12
		c-0.841-0.06-1.62-0.06-2.4-0.06c-1.62-0.06-3.24-0.06-4.859-0.06l-4.8-0.12h-1.2c-0.18-0.06-0.36-0.06-0.54-0.06
		c-0.06,0-0.18,0-0.24-0.06c-0.06,0-0.06,0-0.06-0.06c-0.06-0.06-0.06-0.12-0.12-0.12c-0.12-0.36-0.06-0.72-0.06-1.08
		c0-0.42,0-0.78,0.06-1.2c0-0.42,0.06-0.84,0-1.2c0-0.42,0-0.84-0.06-1.2c0-0.84-0.06-1.62-0.06-2.399v-4.86c0-0.78,0-1.56,0.06-2.4
		c0.06-0.36,0.06-0.72,0.06-1.14v-1.2c-0.06-1.56-0.06-3.18,0-4.74c0.12-3.24,0.12-6.419,0.06-9.659c-0.06-1.62-0.18-3.24-0.18-4.8
		c0-0.84,0.06-1.62,0.12-2.4c0.06-0.42,0.06-0.84,0.06-1.2c0.06-0.3,0-0.6,0.18-0.84c0.06-0.18,0.24-0.3,0.48-0.3
		c0.3-0.06,0.66-0.06,1.02-0.06h2.46c1.56,0,3.12-0.12,4.74-0.18c1.62,0,3.24,0,4.86-0.06c0.779,0,1.619,0,2.399,0.06
		c0.84,0,1.62,0.06,2.399,0.06h5.28c0.12,0,0.12,0,0.18,0.12l0.181,0.3c0.18,0.3,0.239,0.66,0.3,1.02c0.12,0.78,0.18,1.56,0.24,2.28
		l0.3,2.4c0.06,0.54,0.12,1.14,0.06,1.68c0,0.3-0.12,0.6-0.359,0.72c-0.301,0.24-0.721,0.24-1.08,0.3l-2.28,0.18l-2.399,0.18
		c-1.62,0.18-3.24,0.18-4.8,0.18C135.779,24.587,134.279,24.587,132.779,24.527z"/>
	<path fill="#FFFFFF" d="M186.598,55.786c-0.119,0.12-0.18,0.3-0.239,0.42c-0.24,0.42-0.66,0.72-1.141,0.78
		c-0.3,0.06-0.6,0.06-0.96,0.06c-0.359,0-0.72,0-1.08-0.06c-0.72,0-1.439,0-2.159-0.06c-1.38-0.06-2.82-0.18-4.26-0.3
		c-0.54-0.06-1.08-0.12-1.5-0.48c-0.48-0.42-0.721-1.02-0.96-1.5l-1.62-3.96c-1.14-2.58-2.4-5.16-3.479-7.74l-0.421-1.02l-0.359-0.9
		c-0.061-0.06-0.061-0.18-0.12-0.18l-0.18-0.12c-0.181,0-0.36,0-0.54-0.06h-0.96c-0.12,0.06-0.181,0.06-0.301,0.06
		c0,0-0.06-0.06-0.119,0h-0.061v0.06c-0.06,0.12-0.06,0.3-0.06,0.42c-0.061,0.36-0.061,13.079,0,13.739c0,0.42,0.12,1.02-0.181,1.38
		c-0.18,0.12-0.359,0.18-0.479,0.18l-0.96,0.12c-0.72,0.06-1.44,0.12-2.22,0.12c-0.66,0-1.38-0.12-2.04-0.18h-3.18
		c-0.061-0.06-0.181-0.06-0.301-0.12l-0.119-0.12c-0.061-0.12-0.061-0.18-0.061-0.3c0-0.72-0.359-39.239-0.359-40.559l0.479-0.18
		c0.12,0,0.3-0.06,0.42-0.06h1.14c0.66-0.06,1.381-0.06,2.101-0.06c0.72-0.06,1.439-0.06,2.22-0.06c0.72,0,1.439,0.06,2.16,0.06
		l4.319,0.12c0.72,0,1.44,0.06,2.16,0.06l2.1,0.12c0.72,0.06,1.44,0.18,2.101,0.3c0.72,0.12,1.439,0.24,2.1,0.48
		c1.08,0.3,2.16,0.84,3.12,1.5c0.899,0.66,1.739,1.44,2.399,2.34c0.78,1.08,1.38,2.22,1.86,3.419c0.239,0.6,0.42,1.2,0.479,1.92
		c0.061,0.66,0.12,1.38,0.12,2.1c0,1.26-0.18,2.52-0.6,3.78c-0.36,1.2-1.021,2.34-1.8,3.36c-0.78,1.08-1.561,2.16-2.521,3
		c-0.479,0.42-1.02,0.78-1.5,1.14l-0.84,0.54l-0.36,0.24l-0.239,0.12c-0.061,0.06,0,0,0,0.12c0,0.06,0.06,0.12,0.06,0.12l2.16,3.78
		l1.979,3.78c0.601,1.2,1.44,2.28,2.101,3.48c0.66,1.2,1.319,2.4,2.1,3.48l0.54,0.9c0,0.06,0.06,0.12,0.12,0.24
		C186.658,55.667,186.658,55.667,186.598,55.786z M175.738,28.607c0-0.78-0.359-2.04-0.96-2.52c-0.66-0.6-1.56-0.84-2.46-0.9
		c-1.08-0.18-2.16-0.12-3.239-0.12h-2.94c-0.06,0-0.06,0-0.12,0.12c-0.06,0-0.06,0.06-0.12,0.12v0.84c0,0.3,0,0.6-0.06,0.84v1.8
		c0,1.14,0.06,2.28,0.06,3.419v0.42c0,0.12,0.061,0.24,0.12,0.3h3.72C171.539,32.927,175.918,33.107,175.738,28.607z"/>
	<path fill="#FFFFFF" d="M220.738,56.146c-0.42,0.36-0.84,0.48-1.38,0.48c-0.601,0.06-1.2,0.06-1.801,0.06
		c-1.199,0.06-2.46,0.06-3.659,0c-0.54,0-1.141,0-1.68-0.12c-0.301-0.06-0.54-0.12-0.78-0.24c-0.12,0-0.181-0.06-0.3-0.18
		c-0.12-0.06-0.12-0.24-0.12-0.36c-0.061-0.6,0-1.2,0-1.8c0.06-0.6,0-1.14,0-1.74c-0.061-0.6,0-1.2,0-1.74c0-0.3,0-0.66-0.061-0.96
		c0-0.06,0-0.36-0.06-0.42c-0.061-0.06-0.3-0.06-0.36-0.06c-0.3-0.06-0.6-0.06-0.899-0.06h-0.96c-0.601,0-1.2-0.06-1.8-0.06h-0.841
		c-0.3,0-0.54-0.06-0.84-0.12c-0.54-0.06-1.14,0.06-1.68,0.12c-0.24,0-0.54,0-0.78,0.12c-0.06,0-0.119,0.06-0.119,0.06
		c-0.061,0.06-0.061,0.12-0.061,0.18c0.061,0.12,0.061,0.3,0.061,0.42c0,0.3,0.06,0.6,0.06,0.9s0,0.54-0.06,0.84
		c-0.12,1.2-0.061,2.4-0.12,3.6c0,0.48,0,1.02-0.36,1.32c-0.36,0.36-0.9,0.24-1.38,0.24c-1.2,0-6.899,0-7.14-0.06
		c-0.061,0-0.24,0-0.36-0.06c-0.06-0.06-0.06-0.24-0.12-0.36c-0.06-0.3,0-0.6,0.061-0.9v-0.9c0-1.2,0-2.4-0.061-3.6
		c0-1.2,0-2.4,0.12-3.6c0.12-1.2,0.061-2.4,0.061-3.6v-9.12c0-0.3,0-0.6-0.061-0.9c-0.06-0.3-0.12-0.54-0.12-0.84
		c0.061-1.2,0.061-2.4,0.061-3.66c0-1.14,0-2.34,0.24-3.54c0.119-1.08,0.479-2.1,0.96-3.12l0.899-1.44c0.3-0.48,0.54-0.96,0.9-1.38
		c0.359-0.48,0.72-0.84,1.14-1.26l1.14-1.08c0.78-0.66,1.681-1.08,2.641-1.44c0.539-0.18,1.079-0.48,1.619-0.6
		c0.54-0.18,1.141-0.3,1.74-0.42c0.54-0.12,1.14-0.18,1.74-0.24c0.6-0.06,1.199-0.06,1.8-0.06c1.14,0.12,2.28,0.48,3.359,0.84
		c1.08,0.3,2.101,0.78,3.12,1.32c0.96,0.54,1.92,1.08,2.7,1.8c1.56,1.38,2.64,3.36,3.18,5.34c0.3,1.14,0.42,2.34,0.54,3.48
		c0.06,0.3,0.06,0.6,0.06,0.9c0.061,0.3,0.12,0.6,0.061,0.84l-0.181,1.8c-0.06,1.26,0,2.46,0,3.66v18.359c0,0.54,0,1.14-0.06,1.74
		v0.9C220.798,55.667,220.798,55.906,220.738,56.146z M210.898,40.787l0.18-4.919l0.12-2.4c0-0.36,0-0.78,0.06-1.14
		c0-0.42,0.061-0.84,0.061-1.2c0-0.42-0.061-0.84-0.12-1.2l-0.12-1.14c-0.06-0.66-0.24-1.26-0.479-1.86c-0.42-1.2-1.38-2.34-2.7-2.7
		c-0.66-0.18-1.439-0.18-2.16,0.06c-0.6,0.18-1.26,0.48-1.739,0.9c-0.421,0.36-0.78,0.78-0.96,1.32c-0.24,0.6-0.24,1.2-0.301,1.86
		c0,1.68-0.06,3.36,0,5.04v2.46c-0.06,0.84-0.06,1.68-0.06,2.46c0,0.42,0.06,0.84,0.06,1.26v0.6c0,0.18-0.06,0.3,0,0.48
		c0,0.12,0.12,0.24,0.24,0.3c0.24,0,0.42-0.06,0.66-0.06h1.2c1.56,0,3.18-0.06,4.8-0.06
		C210.059,40.787,210.479,40.787,210.898,40.787z"/>
	<path fill="#FFFFFF" d="M235.559,24.047c-2.28,0-4.561,0-6.78,0.06c-0.479,0-1.08,0.06-1.5-0.12c-0.18-0.06-0.359-0.12-0.42-0.3
		c0-0.12-0.06-0.24-0.06-0.3c-0.061-0.6-0.12-1.14-0.12-1.74c-0.061-1.86,0.06-3.72,0.24-5.58v-0.42c0-0.06,0-0.06,0.12-0.12
		c0.06,0,0.119-0.06,0.18-0.06c0.24-0.12,0.54-0.12,0.779-0.12h1.801c1.14,0,2.34-0.06,3.479-0.06c2.34-0.06,4.68-0.06,7.08-0.06
		h7.079c1.141,0,2.34,0,3.48-0.06h2.64c0.12,0,0.3,0,0.36,0.06c0.119,0.06,0.18,0.18,0.18,0.3c0.24,0.42,0.18,0.96,0.18,1.44
		c0.061,0.54,0.061,1.14,0.061,1.74c0.06,1.14-0.12,2.28-0.061,3.48c0.061,0.48,0.18,1.02-0.06,1.5c0,0.12-0.061,0.24-0.181,0.3
		c-0.119,0.06-0.239,0.06-0.359,0.06c-0.3,0.06-0.54,0.06-0.84,0.06h-7.44c-0.06,0-0.3,0.06-0.3,0.12c-0.06,0.06,0,0.3,0,0.42v0.42
		c0,0.6,0.061,1.14,0.061,1.74v1.74c0,0.6-0.061,1.14,0,1.74c0,0.54,0.06,1.14,0.06,1.68c0,0.6-0.06,1.14-0.06,1.74
		s0.06,1.14,0.06,1.74c0,0.3-0.06,0.6-0.06,0.9c0,0.24-0.12,0.54-0.061,0.84c0.12,1.14,0.061,2.28,0.061,3.42
		c0,2.34,0.06,4.74,0.119,7.08c0,2.34,0,4.68-0.06,7.02c0,0.479,0.06,1.02-0.18,1.439c-0.3,0.42-0.78,0.42-1.26,0.48
		c-1.141,0.06-2.341,0.06-3.48,0.06l-3.54-0.12c-0.359,0-0.96,0.06-1.26-0.24c-0.3-0.36-0.12-0.84,0-1.2
		c0.24-1.14,0.12-2.28,0.18-3.36c0-0.6,0.061-1.2,0.061-1.74c0-0.6,0-1.2-0.061-1.8c0-0.6,0.061-1.14,0.061-1.74v-1.74
		c0-1.2,0.06-2.34,0.06-3.54v-7.08c0-1.14,0.061-2.34,0-3.479L235.559,24.047z"/>
	<path fill="#FFFFFF" d="M278.937,14.988c0.78-0.06,1.561-0.18,2.34-0.18c0.78-0.06,1.5,0.12,2.28,0.06h3.42
		c0.12-0.06,0.18-0.06,0.3-0.06s0.12-0.06,0.18,0.06c0.12,0.12,0.181,0.24,0.24,0.42v1.2c0.06,0.42,0.06,0.84,0.06,1.26v7.56
		c0.061,3.36,0.061,6.66,0,10.02c0,1.68,0.061,3.3,0.061,4.98c0,0.84,0.06,1.68,0,2.459c0,0.84-0.061,1.62-0.12,2.46l-0.36,2.4
		c-0.119,0.78-0.239,1.56-0.479,2.34c-0.24,0.72-0.48,1.44-0.78,2.16c-0.3,0.66-0.6,1.32-1.08,1.8c-0.239,0.3-0.54,0.54-0.779,0.78
		l-0.66,0.78c-0.42,0.42-0.96,0.78-1.561,1.08c-0.539,0.3-1.199,0.48-1.8,0.66c-0.72,0.24-1.439,0.54-2.159,0.72
		c-0.42,0.12-0.78,0.24-1.141,0.3c-0.42,0.06-0.779,0.06-1.199,0.06c-0.78,0.06-1.561,0.06-2.34,0c-0.78-0.06-1.561-0.24-2.341-0.3
		c-0.72-0.12-1.439-0.18-2.159-0.42c-1.32-0.36-2.46-1.14-3.48-1.98l-1.5-1.44l-0.6-0.84c-0.18-0.3-0.36-0.6-0.6-0.84
		c-0.42-0.6-0.84-1.14-1.141-1.8l-0.359-1.02l-0.36-1.08c0-0.12-0.06-0.3-0.06-0.48v-0.54c0-0.18-0.061-0.3-0.181-0.42l-0.18-0.54
		l-0.12-1.02v-2.34c0-0.18-0.06-0.36-0.06-0.6c-0.061-0.18-0.061-0.36-0.061-0.54c0.061-0.42,0.12-0.78,0.061-1.2v-1.26
		c-0.061-1.62,0-3.3-0.061-4.98c0-1.62-0.06-3.3-0.06-4.979c0-0.78,0-1.62,0.06-2.4c0-0.42,0.12-0.78,0.12-1.2
		c0-0.36-0.06-0.78-0.06-1.14c0-0.84-0.12-1.68-0.061-2.52c0-0.36,0.061-0.78,0.12-1.2v-3.72c0-0.42,0-0.84,0.061-1.26v-0.54
		c0.06-0.12,0.119-0.12,0.18-0.18c0.12-0.06,0.18-0.12,0.3-0.12c0.6-0.3,1.26-0.48,1.979-0.36c0.181,0,0.36,0.06,0.54,0.06h1.801
		c0.779,0.06,1.56,0.12,2.34,0.12c0.42,0.06,0.779,0,1.14,0.06c0.42,0,0.78,0.12,1.14,0.18c0.061,0,0.181,0,0.24,0.06
		c0.12,0.06,0.06,0,0.12,0.06v0.18c0.06,0.18,0.12,0.36,0.12,0.6v8.76c0,1.62-0.061,3.3-0.12,4.92c0,0.84-0.061,1.68-0.061,2.46
		l-0.239,2.46c-0.061,1.68,0,3.3,0,4.979c0,1.44,0.06,2.88,0.54,4.26c0.359,1.14,1.08,2.04,2.159,2.58c1.32,0.66,2.761,0.78,4.08,0
		c0.48-0.3,0.9-0.72,1.2-1.2c0.3-0.6,0.42-1.26,0.479-1.92c0.181-0.84,0.24-1.62,0.301-2.399c0.119-0.84,0.06-1.68,0.18-2.46
		c0.18-1.68,0.12-3.3,0.12-4.98c0-1.62,0.06-3.3,0-4.92v-2.52c0-0.84-0.12-1.62-0.181-2.459c-0.06-1.68,0-3.3-0.119-4.98
		l-0.181-2.34c0-0.3,0-0.54,0.061-0.84C278.517,15.468,278.696,15.168,278.937,14.988z"/>
	<path fill="#FFFFFF" d="M326.755,55.786c-0.12,0.12-0.18,0.3-0.239,0.42c-0.24,0.42-0.66,0.72-1.141,0.78
		c-0.3,0.06-0.6,0.06-0.96,0.06c-0.359,0-0.72,0-1.08-0.06c-0.72,0-1.439,0-2.159-0.06c-1.38-0.06-2.82-0.18-4.26-0.3
		c-0.54-0.06-1.08-0.12-1.5-0.48c-0.48-0.42-0.721-1.02-0.96-1.5l-1.62-3.96c-1.14-2.58-2.4-5.16-3.48-7.74l-0.42-1.02l-0.359-0.9
		c-0.061-0.06-0.061-0.18-0.12-0.18l-0.18-0.12c-0.181,0-0.36,0-0.54-0.06h-0.96c-0.12,0.06-0.181,0.06-0.3,0.06
		c0,0-0.061-0.06-0.12,0h-0.061v0.06c-0.06,0.12-0.06,0.3-0.06,0.42c-0.061,0.36-0.061,13.079,0,13.739c0,0.42,0.12,1.02-0.181,1.38
		c-0.18,0.12-0.359,0.18-0.479,0.18l-0.96,0.12c-0.72,0.06-1.44,0.12-2.22,0.12c-0.66,0-1.38-0.12-2.04-0.18h-3.18
		c-0.061-0.06-0.181-0.06-0.3-0.12l-0.12-0.12c-0.061-0.12-0.061-0.18-0.061-0.3c0-0.72-0.359-39.239-0.359-40.559l0.479-0.18
		c0.12,0,0.3-0.06,0.42-0.06h1.14c0.66-0.06,1.38-0.06,2.101-0.06c0.72-0.06,1.439-0.06,2.22-0.06c0.72,0,1.439,0.06,2.16,0.06
		l4.319,0.12c0.72,0,1.44,0.06,2.16,0.06l2.1,0.12c0.721,0.06,1.44,0.18,2.101,0.3c0.72,0.12,1.439,0.24,2.1,0.48
		c1.08,0.3,2.16,0.84,3.12,1.5c0.899,0.66,1.739,1.44,2.399,2.34c0.78,1.08,1.38,2.22,1.86,3.419c0.239,0.6,0.42,1.2,0.479,1.92
		c0.061,0.66,0.12,1.38,0.12,2.1c0,1.26-0.18,2.52-0.6,3.78c-0.36,1.2-1.021,2.34-1.8,3.36c-0.78,1.08-1.561,2.16-2.521,3
		c-0.479,0.42-1.02,0.78-1.5,1.14l-0.84,0.54l-0.359,0.24l-0.24,0.12c-0.061,0.06,0,0,0,0.12c0,0.06,0.06,0.12,0.06,0.12l2.16,3.78
		l1.979,3.78c0.601,1.2,1.44,2.28,2.101,3.48c0.659,1.2,1.319,2.4,2.1,3.48l0.54,0.9c0,0.06,0.06,0.12,0.12,0.24
		C326.815,55.667,326.815,55.667,326.755,55.786z M315.896,28.607c0-0.78-0.359-2.04-0.96-2.52c-0.66-0.6-1.56-0.84-2.46-0.9
		c-1.08-0.18-2.159-0.12-3.239-0.12h-2.94c-0.06,0-0.06,0-0.12,0.12c-0.06,0-0.06,0.06-0.12,0.12v0.84c0,0.3,0,0.6-0.06,0.84v1.8
		c0,1.14,0.06,2.28,0.06,3.419v0.42c0,0.12,0.061,0.24,0.12,0.3h3.72C311.696,32.927,316.076,33.107,315.896,28.607z"/>
	<path fill="#FFFFFF" d="M343.496,24.527v6.48c0,0.12,0.06,0.3,0.12,0.42c0.12,0.06,0.42,0.06,0.54,0.12h1.739
		c1.561,0,3.18,0,4.74-0.12c0.84-0.06,1.62-0.06,2.46-0.06c0.72,0,1.5-0.12,2.22,0c0.54,0.12,0.96,0.48,1.08,1.02
		c0.06,0.3,0,0.66,0,0.96c-0.061,0.42-0.061,0.84-0.061,1.2c0,0.78-0.18,1.56-0.18,2.34v2.28c0,0.12,0,0.24-0.06,0.36
		c0,0.06-0.061,0.12-0.12,0.18c-0.061,0.12-0.12,0.12-0.24,0.18c-0.36,0.06-0.78,0.06-1.14,0.06c-0.78,0-1.561-0.06-2.4-0.06
		c-1.56,0.06-3.12,0.12-4.739,0.24c-0.78,0.06-1.561,0-2.34-0.06c-0.601,0-1.2-0.06-1.74,0.36c-0.061,0.12-0.18,0.18-0.24,0.36
		c0,0.18,0.061,0.42,0.061,0.66v1.14l0.18,2.4l0.18,2.34c0,0.06,0,0.18,0.061,0.24c0,0.12,0.06,0.18,0.12,0.24
		c0.18,0.06,0.3,0.12,0.42,0.12h1.02c0.84,0,1.62-0.06,2.4-0.06c0.84,0,1.619,0.06,2.399,0.06c1.62,0,3.24,0,4.8-0.06h1.26
		c0.36-0.06,0.78,0,1.141-0.06c0.539-0.06,1.26-0.3,1.739-0.06c0.48,0.3,0.54,0.96,0.48,1.44c0,0.78,0,1.62-0.061,2.4
		c0,0.78,0,1.62-0.06,2.4c-0.061,0.36,0,0.78,0,1.14c0,0.3-0.12,0.66-0.18,0.96l-0.12,0.24c-0.061,0-0.181,0.06-0.24,0.12l-0.42,0.3
		c-0.12,0.06-0.12,0.06-0.24,0.06h-0.899c-0.78-0.06-1.5-0.12-2.28-0.12c-0.18-0.06-0.36-0.06-0.54-0.06s-0.36,0.06-0.6,0.12
		c-0.36,0-0.721,0-1.141-0.06c-0.359,0-0.72,0.06-1.14,0c-0.36-0.06-0.72-0.06-1.14,0c-0.78,0-1.561,0-2.34-0.12
		c-0.841-0.06-1.62-0.06-2.4-0.06c-1.62-0.06-3.24-0.06-4.859-0.06l-4.8-0.12h-1.2c-0.18-0.06-0.36-0.06-0.54-0.06
		c-0.06,0-0.18,0-0.24-0.06c-0.06,0-0.06,0-0.06-0.06c-0.061-0.06-0.061-0.12-0.12-0.12c-0.12-0.36-0.061-0.72-0.061-1.08
		c0-0.42,0-0.78,0.061-1.2c0-0.42,0.06-0.84,0-1.2c0-0.42,0-0.84-0.061-1.2c0-0.84-0.06-1.62-0.06-2.399v-4.86
		c0-0.78,0-1.56,0.06-2.4c0.061-0.36,0.061-0.72,0.061-1.14v-1.2c-0.061-1.56-0.061-3.18,0-4.74c0.12-3.24,0.12-6.419,0.06-9.659
		c-0.06-1.62-0.18-3.24-0.18-4.8c0-0.84,0.06-1.62,0.12-2.4c0.06-0.42,0.06-0.84,0.06-1.2c0.061-0.3,0-0.6,0.181-0.84
		c0.06-0.18,0.239-0.3,0.479-0.3c0.3-0.06,0.66-0.06,1.021-0.06h2.46c1.56,0,3.119-0.12,4.739-0.18c1.62,0,3.24,0,4.86-0.06
		c0.779,0,1.619,0,2.399,0.06c0.84,0,1.62,0.06,2.399,0.06h5.28c0.12,0,0.12,0,0.18,0.12l0.181,0.3c0.18,0.3,0.239,0.66,0.3,1.02
		c0.12,0.78,0.18,1.56,0.24,2.28l0.3,2.4c0.06,0.54,0.12,1.14,0.06,1.68c0,0.3-0.12,0.6-0.359,0.72c-0.301,0.24-0.721,0.24-1.08,0.3
		l-2.28,0.18l-2.399,0.18c-1.62,0.18-3.24,0.18-4.8,0.18C346.496,24.587,344.996,24.587,343.496,24.527z"/>
</g>
<g>
	<path fill="#FFFFFF" d="M131.774,12.776c-0.072-0.142-0.021-0.374,0.002-0.423c1.06-2.173,0.841-1.767,1.683-3.815l1.142-2.601
		c0,0,0.447-1.146,0.501-1.256l0.272-0.218c0.163-0.11,0.327-0.165,0.49-0.166l0.819-0.003l1.637-0.098
		c0.274-0.001,1.745,0.031,1.745,0.031c0.544-0.057,1.145-0.004,1.691,0.049c0.273,0.054,0.546,0.052,0.818,0.051
		c0.272,0.054,0.601-0.002,0.873,0.052l0.765,0.161c0.109,0.054,0.219,0.054,0.328,0.163c0.055,0.054,0.164,0.163,0.164,0.272
		c0.055,0.164,0.07,0.125,0.002,0.546s-1.43,2.441-1.43,2.441c-0.789,1.513-1.684,2.229-3.179,4.211
		c-0.071,0.094-0.456,0.696-0.896,0.825S131.905,13.036,131.774,12.776z"/>
</g>
<g>
	<path fill="#FEF291" d="M420.447,44.331V16.689c0-0.552-0.246-1.075-0.676-1.423c-0.427-0.35-0.986-0.491-1.528-0.384
		l-16.223,3.245l0,0v31.4l16.945-3.389C419.826,45.966,420.447,45.209,420.447,44.331z"/>
	<path fill="#FEF291" d="M381.39,46.141l16.944,3.388l0,0V18.127l-16.222-3.246c-0.543-0.106-1.104,0.034-1.531,0.383
		c-0.426,0.351-0.673,0.872-0.673,1.425v27.64C379.908,45.211,380.527,45.966,381.39,46.141z"/>
	<path fill="#FEF291" d="M425.977,20.376h-1.844v23.955c0,2.635-1.858,4.904-4.442,5.421l-18.393,3.678l-1.119,0.114l-1.079-0.106
		l-18.432-3.685c-2.586-0.518-4.445-2.786-4.445-5.42V20.377h-1.842c-1.017,0-1.843,0.824-1.843,1.842V49.86
		c0,0.822,0.545,1.546,1.336,1.772l12.009,3.431l2.427,0.693l-0.007,0.008l3.837,1.106l0.012-0.017l1.872,0.535l5.648,1.614
		c0.332,0.094,0.683,0.094,1.014,0l7.52-2.149l0.004,0.004l3.842-1.099l-0.003-0.002l14.435-4.124
		c0.792-0.227,1.336-0.951,1.336-1.773V22.219C427.818,21.201,426.995,20.376,425.977,20.376z"/>
</g>
</svg>
