<?xml version="1.0" encoding="utf-8"?>
<!-- Generator: Adobe Illustrator 16.0.0, SVG Export Plug-In . SVG Version: 6.00 Build 0)  -->
<!DOCTYPE svg PUBLIC "-//W3C//DTD SVG 1.1//EN" "http://www.w3.org/Graphics/SVG/1.1/DTD/svg11.dtd">
<svg version="1.1" id="Calque_1" xmlns="http://www.w3.org/2000/svg" xmlns:xlink="http://www.w3.org/1999/xlink" x="0px" y="0px"
	 width="404.75px" height="62.5px" viewBox="0 0 404.75 62.5" enable-background="new 0 0 404.75 62.5" xml:space="preserve">
<g>
	<path fill="#FFFFFF" d="M34.92,30.047c-0.84,0.12-1.68,0.18-2.58,0.12c-0.9,0-1.86,0-2.76-0.06h-1.44c-0.42,0-0.9,0-1.32-0.06
		c-0.36-0.06-0.72-0.18-0.96-0.48c-0.18-0.3-0.24-0.72-0.24-1.08c-0.12-0.48-0.18-0.96-0.24-1.38s-0.06-0.9-0.18-1.32
		c-0.12-0.78-0.6-1.44-1.08-1.98c-0.48-0.66-1.38-0.9-2.16-1.08c-0.72-0.18-1.44-0.18-2.16,0.12c-0.36,0.12-0.66,0.3-0.96,0.48
		c-0.3,0.24-0.66,0.42-0.84,0.72c-0.24,0.3-0.36,0.66-0.48,0.96c-0.12,0.36-0.18,0.72-0.24,1.02c-0.18,1.5,0.42,2.82,1.5,3.84
		c1.26,1.08,2.82,1.86,4.32,2.52c1.68,0.72,3.36,1.26,5.04,1.98c0.78,0.3,1.56,0.72,2.28,1.14c0.78,0.36,1.5,0.78,2.16,1.26
		c1.2,0.9,2.16,2.04,2.88,3.36l0.54,1.2c0.24,0.36,0.42,0.72,0.6,1.14c0.18,0.36,0.3,0.72,0.36,1.14c0,0.42-0.12,0.78-0.06,1.2
		c0,0.24,0.06,0.42,0.06,0.66v0.66c0,0.42-0.06,0.9-0.06,1.32c-0.12,0.9-0.3,1.8-0.54,2.64c-0.24,0.9-0.6,1.62-1.08,2.34
		c-0.54,0.72-1.08,1.32-1.74,1.86c-0.48,0.42-0.96,0.78-1.5,1.14c-0.42,0.3-0.9,0.48-1.38,0.72c-1.56,0.6-3.18,1.14-4.8,1.5
		c-1.74,0.42-3.6,0.72-5.4,0.72c-0.96-0.06-1.86-0.18-2.76-0.36c-0.84-0.18-1.74-0.36-2.58-0.6c-0.78-0.24-1.5-0.54-2.22-0.9
		c-0.72-0.36-1.44-0.78-2.04-1.32l-0.84-0.9c-0.3-0.3-0.6-0.6-0.78-0.96l-0.36-0.54l-0.18-0.18c-0.06-0.12-0.06-0.24-0.06-0.3
		l-0.36-1.02c-0.3-0.72-0.66-1.38-0.72-2.1c-0.06-0.24,0-0.42,0-0.6l-0.18-0.72c-0.06-0.42-0.12-0.9-0.12-1.32
		c-0.06-0.479-0.06-0.96-0.06-1.38c0.06-0.48,0.12-0.96,0.12-1.38c0.06-0.66-0.18-1.56,0.54-1.86c0.36-0.18,0.78-0.18,1.2-0.24
		c0.42-0.06,0.9-0.06,1.32-0.06c0.96-0.06,1.92-0.12,2.82-0.12c0.48-0.06,0.9-0.06,1.38-0.06c0.48,0,0.96,0.06,1.44,0.12
		c0.18,0.06,0.36,0.06,0.479,0.18c0.18,0.06,0.24,0.24,0.3,0.36c0.06,0.24,0,0.48,0,0.66v2.1c-0.06,0.48,0,0.9,0.12,1.32
		c0.24,0.78,0.66,1.5,1.2,2.1c0.24,0.3,0.48,0.6,0.78,0.84c0.36,0.24,0.78,0.42,1.14,0.54c0.84,0.24,1.68,0.36,2.52,0.18
		c1.44-0.18,3.12-0.84,3.36-2.4c0.24-1.56-0.3-3.24-1.5-4.26c-0.6-0.54-1.38-0.96-2.16-1.32c-0.78-0.42-1.56-0.84-2.399-1.2
		c-1.62-0.84-3.3-1.56-4.86-2.46c-0.78-0.42-1.5-0.96-2.22-1.44c-0.72-0.42-1.44-0.78-2.1-1.32c-0.6-0.42-1.08-0.96-1.5-1.56
		c-0.48-0.66-0.78-1.32-1.08-2.04c-0.18-0.36-0.36-0.72-0.48-1.08c-0.12-0.48-0.12-0.96-0.24-1.38c-0.12-0.9-0.24-1.8-0.24-2.7
		c0.06-1.74,0.54-3.48,1.32-5.04c0.36-0.72,0.84-1.44,1.32-2.1c0.48-0.6,1.02-1.26,1.56-1.8c1.02-1.08,2.28-1.86,3.66-2.399
		c0.78-0.24,1.62-0.42,2.4-0.54c0.9-0.18,1.8-0.3,2.76-0.36c0.9,0,1.8,0,2.7,0.06c0.96,0.06,1.86,0.12,2.76,0.24
		c0.9,0.18,1.8,0.36,2.64,0.6c0.78,0.24,1.56,0.6,2.22,1.14l1.02,0.78l0.9,0.66c0.54,0.54,0.96,1.2,1.26,1.86
		c0.42,0.84,0.9,1.62,1.2,2.52c0.24,0.9,0.42,1.8,0.54,2.7c0.12,0.84,0.18,1.74,0.12,2.58l-0.18,1.32c0,0.24-0.06,0.42-0.12,0.6
		L34.92,30.047z"/>
	<path fill="#FFFFFF" d="M44.281,15.588c0.18-0.12,0.36-0.24,0.54-0.3c0.3-0.06,0.6-0.06,0.84-0.06c0.54,0,1.08-0.06,1.62-0.06
		c1.14,0,2.28-0.12,3.42-0.12c0.54,0.06,1.08,0.12,1.62,0.12h1.68l3.3,0.12c0.54,0,1.14,0.06,1.68,0.12h1.62
		c1.08,0.06,2.16,0.18,3.24,0.36c1.68,0.3,3.36,0.9,4.74,1.86s2.46,2.22,3.3,3.6l0.72,1.38c0.24,0.48,0.48,0.96,0.6,1.44
		c0.18,0.48,0.24,0.96,0.24,1.5s0.12,1.02,0.18,1.56c0.06,1.08-0.12,2.16-0.36,3.18s-0.6,1.98-1.08,2.88
		c-0.9,1.62-2.04,3.12-3.42,4.38c-1.38,1.26-3.06,2.28-4.919,2.82c-0.96,0.24-1.98,0.36-2.94,0.36h-3.36c-0.54,0-1.14,0-1.68-0.06
		h-0.78c-0.12,0.06-0.24,0.06-0.36,0.06c-0.12,0-0.3-0.06-0.42,0h-0.12v0.3c-0.06,0.06-0.06,0.18-0.06,0.3v0.78
		c0,0.6,0,1.14-0.06,1.74c0,2.22-0.06,4.44,0,6.66c0.06,1.14,0.06,2.22,0.06,3.36c0,0.78,0.12,1.8-0.66,2.28
		c-0.36,0.18-0.84,0.18-1.26,0.18h-1.62c-1.14,0-2.28-0.06-3.42-0.06c-0.48,0-1.02,0.06-1.5-0.06c-0.24,0-0.479-0.12-0.6-0.24
		c-0.18-0.18-0.24-0.48-0.3-0.72c-0.12-0.48-0.12-1.02-0.12-1.5V40.307c0-0.54-0.06-1.08-0.12-1.62c0-0.3,0.06-0.54,0.06-0.84
		c0-0.3-0.06-0.54-0.06-0.84c-0.06-0.54-0.06-1.08,0-1.62c0-1.08-0.06-2.22-0.06-3.36c0-4.44-0.06-8.94-0.06-13.379
		c0-0.54,0-1.08-0.06-1.62C44.341,16.548,44.341,16.068,44.281,15.588z M54.121,32.327c0.54,0,1.08-0.06,1.56,0
		c0.6,0.06,1.14,0.12,1.68,0.06c1.08,0,2.16-0.18,3.18-0.42c0.54-0.12,1.02-0.24,1.5-0.48c0.42-0.24,0.78-0.48,1.14-0.78
		c0.6-0.6,0.96-1.38,0.96-2.22s-0.24-1.62-0.84-2.22c-0.3-0.3-0.72-0.54-1.08-0.72c-0.48-0.18-1.02-0.36-1.5-0.48
		c-1.08-0.18-2.22-0.24-3.3-0.24c-0.54,0-1.14,0-1.68,0.06h-0.66c-0.24,0.06-0.6,0.12-0.72,0.3l-0.12,0.18v0.24l-0.12,0.42
		c-0.06,0.3,0,0.6-0.06,0.96v4.74C54.061,31.967,54.121,32.147,54.121,32.327z"/>
	<path fill="#FFFFFF" d="M90.001,24.527v6.48c0,0.12,0.06,0.3,0.12,0.42c0.12,0.06,0.42,0.06,0.54,0.12h1.74
		c1.56,0,3.18,0,4.74-0.12c0.84-0.06,1.62-0.06,2.46-0.06c0.72,0,1.5-0.12,2.22,0c0.54,0.12,0.96,0.48,1.08,1.02
		c0.06,0.3,0,0.66,0,0.96c-0.06,0.42-0.06,0.84-0.06,1.2c0,0.78-0.18,1.56-0.18,2.34v2.28c0,0.12,0,0.24-0.06,0.36
		c0,0.06-0.06,0.12-0.12,0.18c-0.06,0.12-0.12,0.12-0.24,0.18c-0.36,0.06-0.78,0.06-1.14,0.06c-0.78,0-1.56-0.06-2.4-0.06
		c-1.56,0.06-3.12,0.12-4.74,0.24c-0.78,0.06-1.56,0-2.34-0.06c-0.6,0-1.2-0.06-1.74,0.36c-0.06,0.12-0.18,0.18-0.24,0.36
		c0,0.18,0.06,0.42,0.06,0.66v1.14l0.18,2.4l0.18,2.34c0,0.06,0,0.18,0.06,0.24c0,0.12,0.06,0.18,0.12,0.24
		c0.18,0.06,0.3,0.12,0.42,0.12h1.02c0.84,0,1.62-0.06,2.4-0.06c0.84,0,1.62,0.06,2.4,0.06c1.62,0,3.24,0,4.8-0.06h1.26
		c0.36-0.06,0.78,0,1.14-0.06c0.54-0.06,1.26-0.3,1.74-0.06c0.48,0.3,0.54,0.96,0.48,1.44c0,0.78,0,1.62-0.06,2.4
		c0,0.78,0,1.62-0.06,2.4c-0.06,0.36,0,0.78,0,1.14c0,0.3-0.12,0.66-0.18,0.96l-0.12,0.24c-0.06,0-0.18,0.06-0.24,0.12l-0.42,0.3
		c-0.12,0.06-0.12,0.06-0.24,0.06h-0.9c-0.78-0.06-1.5-0.12-2.28-0.12c-0.18-0.06-0.36-0.06-0.54-0.06c-0.18,0-0.36,0.06-0.6,0.12
		c-0.36,0-0.72,0-1.14-0.06c-0.36,0-0.72,0.06-1.14,0c-0.36-0.06-0.72-0.06-1.14,0c-0.78,0-1.56,0-2.34-0.12
		c-0.84-0.06-1.62-0.06-2.4-0.06c-1.62-0.06-3.24-0.06-4.86-0.06l-4.8-0.12h-1.2c-0.18-0.06-0.36-0.06-0.54-0.06
		c-0.06,0-0.18,0-0.24-0.06c-0.06,0-0.06,0-0.06-0.06c-0.06-0.06-0.06-0.12-0.12-0.12c-0.12-0.36-0.06-0.72-0.06-1.08
		c0-0.42,0-0.78,0.06-1.2c0-0.42,0.06-0.84,0-1.2c0-0.42,0-0.84-0.06-1.2c0-0.84-0.06-1.62-0.06-2.399v-4.86c0-0.78,0-1.56,0.06-2.4
		c0.06-0.36,0.06-0.72,0.06-1.14v-1.2c-0.06-1.56-0.06-3.18,0-4.74c0.12-3.24,0.12-6.419,0.06-9.659c-0.06-1.62-0.18-3.24-0.18-4.8
		c0-0.84,0.06-1.62,0.12-2.4c0.06-0.42,0.06-0.84,0.06-1.2c0.06-0.3,0-0.6,0.18-0.84c0.06-0.18,0.24-0.3,0.48-0.3
		c0.3-0.06,0.66-0.06,1.02-0.06h2.46c1.56,0,3.12-0.12,4.74-0.18c1.62,0,3.24,0,4.86-0.06c0.78,0,1.62,0,2.4,0.06
		c0.84,0,1.62,0.06,2.4,0.06h5.28c0.12,0,0.12,0,0.18,0.12l0.18,0.3c0.18,0.3,0.24,0.66,0.3,1.02c0.12,0.78,0.18,1.56,0.24,2.28
		l0.3,2.4c0.06,0.54,0.12,1.14,0.06,1.68c0,0.3-0.12,0.6-0.36,0.72c-0.3,0.24-0.72,0.24-1.08,0.3l-2.28,0.18l-2.4,0.18
		c-1.62,0.18-3.24,0.18-4.8,0.18C93,24.587,91.5,24.587,90.001,24.527z"/>
	<path fill="#FFFFFF" d="M131.279,40.967c0.36-0.06,0.66-0.18,1.021-0.18h1.2l2.46-0.18c0.84,0,1.619,0.06,2.399,0.12
		c0.36,0,0.72,0.12,1.08,0.12c0.3-0.06,0.6-0.18,0.9-0.06c0.6,0.18,0.659,0.96,0.659,1.44c0.061,0.84-0.06,1.68-0.12,2.459
		c-0.119,1.62-0.119,3.24-0.479,4.8c-0.3,1.44-0.84,2.88-1.74,4.08c-0.479,0.6-1.08,1.14-1.62,1.68l-0.779,0.72
		c-0.3,0.18-0.601,0.36-0.9,0.48c-1.319,0.66-2.76,1.32-4.26,1.68c-0.72,0.18-1.5,0.24-2.22,0.18c-0.84,0-1.68,0-2.46,0.06
		c-0.42,0-0.78,0.06-1.2,0.06c-0.36,0-0.78-0.06-1.14-0.12c-0.72-0.12-1.38-0.24-2.04-0.42c-1.38-0.36-2.7-0.9-3.84-1.62
		c-1.2-0.78-2.28-1.68-3.06-2.88c-0.78-1.2-1.38-2.64-1.74-4.08c-0.24-0.72-0.42-1.5-0.54-2.22c-0.06-0.42-0.12-0.78-0.12-1.2
		s0.06-0.78,0.06-1.2c0.06-0.78,0-1.62,0.06-2.4c0.06-0.84,0.06-1.62,0.06-2.46c0.06-0.84,0.18-1.62,0.18-2.459
		c0.06-0.84,0-1.68,0-2.46c-0.06-0.84,0-1.68-0.06-2.52c-0.06-0.36-0.06-0.78-0.06-1.2l0.12-1.2c0.06-1.56-0.06-3.18,0.24-4.8
		c0.24-1.2,0.66-2.4,1.32-3.48c0.66-1.14,1.5-2.04,2.52-2.88c0.54-0.48,1.02-1.02,1.62-1.44s1.26-0.78,1.98-1.14
		c1.26-0.66,2.7-1.32,4.2-1.56c0.42-0.06,0.78-0.06,1.2-0.06l1.2-0.18c0.78-0.06,1.56,0.06,2.34,0.18c1.44,0.3,3,0.66,4.2,1.56
		c0.54,0.42,1.199,0.78,1.739,1.2s1.021,0.9,1.5,1.44c0.96,1.08,1.8,2.28,2.28,3.66c0.54,1.44,0.78,3,0.9,4.56
		c0.119,1.56,0.06,3.18,0.06,4.74c0,0.66,0.06,1.44-0.72,1.68c-0.36,0.12-0.78,0.06-1.141,0.06c-0.359,0-0.779,0-1.199,0.06
		c-1.62,0.06-3.3,0.06-4.92-0.12l-1.2-0.18c-0.24-0.06-0.54-0.12-0.72-0.36c-0.181-0.24-0.24-0.54-0.24-0.84
		c0-0.36,0.06-0.78,0.06-1.2c0.061-0.78,0.24-1.56,0.36-2.34c0.061-0.78,0-1.56-0.24-2.28c-0.12-0.3-0.3-0.6-0.479-0.78
		c-0.24-0.24-0.54-0.42-0.84-0.6c-0.601-0.36-1.26-0.72-1.92-0.84c-1.2-0.24-2.459,0.18-3.18,1.2c-0.42,0.54-0.54,1.26-0.72,1.92
		c-0.24,0.72-0.42,1.5-0.54,2.28c-0.24,1.62-0.24,3.24-0.24,4.86c0.06,1.62,0,3.3,0.06,4.92c0,0.84,0.06,1.68,0.12,2.52
		c0,0.36,0.06,0.78,0.12,1.2c0.06,0.42,0.12,0.78,0.24,1.2c0.12,0.36,0.18,0.72,0.18,1.08l0.12,1.08c0.24,0.66,0.6,1.26,1.14,1.62
		c0.6,0.42,1.32,0.6,1.98,0.66c0.78,0.12,1.56,0,2.28-0.3c0.48-0.18,0.96-0.54,1.2-1.08l0.3-1.02c0.12-0.36,0.18-0.78,0.18-1.14
		c0.061-0.36,0.061-0.72,0.061-1.14c0-0.36,0.06-0.78,0.06-1.14c0.061-0.36,0.061-0.72,0.181-1.02
		C130.8,41.447,131.04,41.207,131.279,40.967z"/>
	<path fill="#FFFFFF" d="M154.92,24.047c-2.28,0-4.561,0-6.78,0.06c-0.479,0-1.08,0.06-1.5-0.12c-0.18-0.06-0.359-0.12-0.42-0.3
		c0-0.12-0.06-0.24-0.06-0.3c-0.061-0.6-0.12-1.14-0.12-1.74c-0.061-1.86,0.06-3.72,0.24-5.58v-0.42c0-0.06,0-0.06,0.12-0.12
		c0.06,0,0.119-0.06,0.18-0.06c0.24-0.12,0.54-0.12,0.779-0.12h1.801c1.14,0,2.34-0.06,3.479-0.06c2.34-0.06,4.68-0.06,7.08-0.06
		h7.079c1.141,0,2.34,0,3.48-0.06h2.64c0.12,0,0.3,0,0.36,0.06c0.119,0.06,0.18,0.18,0.18,0.3c0.24,0.42,0.18,0.96,0.18,1.44
		c0.061,0.54,0.061,1.14,0.061,1.74c0.06,1.14-0.12,2.28-0.061,3.48c0.061,0.48,0.18,1.02-0.06,1.5c0,0.12-0.061,0.24-0.181,0.3
		c-0.119,0.06-0.239,0.06-0.359,0.06c-0.3,0.06-0.54,0.06-0.84,0.06h-7.44c-0.06,0-0.3,0.06-0.3,0.12c-0.06,0.06,0,0.3,0,0.42v0.42
		c0,0.6,0.061,1.14,0.061,1.74v1.74c0,0.6-0.061,1.14,0,1.74c0,0.54,0.06,1.14,0.06,1.68c0,0.6-0.06,1.14-0.06,1.74
		s0.06,1.14,0.06,1.74c0,0.3-0.06,0.6-0.06,0.9c0,0.24-0.12,0.54-0.061,0.84c0.12,1.14,0.061,2.28,0.061,3.42
		c0,2.34,0.06,4.74,0.119,7.08c0,2.34,0,4.68-0.06,7.02c0,0.479,0.06,1.02-0.18,1.439c-0.3,0.42-0.78,0.42-1.26,0.48
		c-1.141,0.06-2.341,0.06-3.48,0.06l-3.54-0.12c-0.359,0-0.96,0.06-1.26-0.24c-0.3-0.36-0.12-0.84,0-1.2
		c0.24-1.14,0.12-2.28,0.18-3.36c0-0.6,0.061-1.2,0.061-1.74c0-0.6,0-1.2-0.061-1.8c0-0.6,0.061-1.14,0.061-1.74v-1.74
		c0-1.2,0.06-2.34,0.06-3.54v-7.08c0-1.14,0.061-2.34,0-3.479L154.92,24.047z"/>
	<path fill="#FFFFFF" d="M206.998,56.146c-0.42,0.36-0.84,0.48-1.38,0.48c-0.601,0.06-1.2,0.06-1.801,0.06
		c-1.199,0.06-2.46,0.06-3.659,0c-0.54,0-1.141,0-1.68-0.12c-0.301-0.06-0.54-0.12-0.78-0.24c-0.12,0-0.181-0.06-0.3-0.18
		c-0.12-0.06-0.12-0.24-0.12-0.36c-0.061-0.6,0-1.2,0-1.8c0.06-0.6,0-1.14,0-1.74c-0.061-0.6,0-1.2,0-1.74c0-0.3,0-0.66-0.061-0.96
		c0-0.06,0-0.36-0.06-0.42c-0.061-0.06-0.3-0.06-0.36-0.06c-0.3-0.06-0.6-0.06-0.899-0.06h-0.96c-0.601,0-1.2-0.06-1.8-0.06h-0.841
		c-0.3,0-0.54-0.06-0.84-0.12c-0.54-0.06-1.14,0.06-1.68,0.12c-0.24,0-0.54,0-0.78,0.12c-0.06,0-0.119,0.06-0.119,0.06
		c-0.061,0.06-0.061,0.12-0.061,0.18c0.061,0.12,0.061,0.3,0.061,0.42c0,0.3,0.06,0.6,0.06,0.9s0,0.54-0.06,0.84
		c-0.12,1.2-0.061,2.4-0.12,3.6c0,0.48,0,1.02-0.36,1.32c-0.36,0.36-0.9,0.24-1.38,0.24c-1.2,0-6.899,0-7.14-0.06
		c-0.061,0-0.24,0-0.36-0.06c-0.06-0.06-0.06-0.24-0.12-0.36c-0.06-0.3,0-0.6,0.061-0.9v-0.9c0-1.2,0-2.4-0.061-3.6
		c0-1.2,0-2.4,0.12-3.6c0.12-1.2,0.061-2.4,0.061-3.6v-9.12c0-0.3,0-0.6-0.061-0.9c-0.06-0.3-0.12-0.54-0.12-0.84
		c0.061-1.2,0.061-2.4,0.061-3.66c0-1.14,0-2.34,0.24-3.54c0.119-1.08,0.479-2.1,0.96-3.12l0.899-1.44c0.3-0.48,0.54-0.96,0.9-1.38
		c0.359-0.48,0.72-0.84,1.14-1.26l1.14-1.08c0.78-0.66,1.681-1.08,2.641-1.44c0.539-0.18,1.079-0.48,1.619-0.6
		c0.54-0.18,1.141-0.3,1.74-0.42c0.54-0.12,1.14-0.18,1.74-0.24c0.6-0.06,1.199-0.06,1.8-0.06c1.14,0.12,2.28,0.48,3.359,0.84
		c1.08,0.3,2.101,0.78,3.12,1.32c0.96,0.54,1.92,1.08,2.7,1.8c1.56,1.38,2.64,3.36,3.18,5.34c0.3,1.14,0.42,2.34,0.54,3.48
		c0.06,0.3,0.06,0.6,0.06,0.9c0.061,0.3,0.12,0.6,0.061,0.84l-0.181,1.8c-0.06,1.26,0,2.46,0,3.66v18.359c0,0.54,0,1.14-0.06,1.74
		v0.9C207.058,55.667,207.058,55.906,206.998,56.146z M197.158,40.787l0.18-4.919l0.12-2.4c0-0.36,0-0.78,0.06-1.14
		c0-0.42,0.061-0.84,0.061-1.2c0-0.42-0.061-0.84-0.12-1.2l-0.12-1.14c-0.06-0.66-0.24-1.26-0.479-1.86c-0.42-1.2-1.38-2.34-2.7-2.7
		c-0.66-0.18-1.439-0.18-2.16,0.06c-0.6,0.18-1.26,0.48-1.739,0.9c-0.421,0.36-0.78,0.78-0.96,1.32c-0.24,0.6-0.24,1.2-0.301,1.86
		c0,1.68-0.06,3.36,0,5.04v2.46c-0.06,0.84-0.06,1.68-0.06,2.46c0,0.42,0.06,0.84,0.06,1.26v0.6c0,0.18-0.06,0.3,0,0.48
		c0,0.12,0.12,0.24,0.24,0.3c0.24,0,0.42-0.06,0.66-0.06h1.2c1.56,0,3.18-0.06,4.8-0.06
		C196.318,40.787,196.738,40.787,197.158,40.787z"/>
	<path fill="#FFFFFF" d="M233.518,40.967c0.36-0.06,0.66-0.18,1.02-0.18h1.2l2.46-0.18c0.84,0,1.62,0.06,2.4,0.12
		c0.359,0,0.72,0.12,1.079,0.12c0.301-0.06,0.601-0.18,0.9-0.06c0.6,0.18,0.66,0.96,0.66,1.44c0.06,0.84-0.061,1.68-0.12,2.459
		c-0.12,1.62-0.12,3.24-0.48,4.8c-0.3,1.44-0.84,2.88-1.739,4.08c-0.48,0.6-1.08,1.14-1.62,1.68l-0.78,0.72
		c-0.3,0.18-0.6,0.36-0.899,0.48c-1.32,0.66-2.76,1.32-4.26,1.68c-0.721,0.18-1.5,0.24-2.221,0.18c-0.84,0-1.68,0-2.459,0.06
		c-0.421,0-0.78,0.06-1.2,0.06c-0.36,0-0.78-0.06-1.141-0.12c-0.72-0.12-1.38-0.24-2.039-0.42c-1.38-0.36-2.7-0.9-3.84-1.62
		c-1.2-0.78-2.28-1.68-3.061-2.88c-0.779-1.2-1.38-2.64-1.739-4.08c-0.24-0.72-0.42-1.5-0.54-2.22c-0.061-0.42-0.12-0.78-0.12-1.2
		s0.06-0.78,0.06-1.2c0.061-0.78,0-1.62,0.061-2.4c0.06-0.84,0.06-1.62,0.06-2.46c0.061-0.84,0.18-1.62,0.18-2.459
		c0.061-0.84,0-1.68,0-2.46c-0.06-0.84,0-1.68-0.06-2.52c-0.06-0.36-0.06-0.78-0.06-1.2l0.119-1.2c0.061-1.56-0.06-3.18,0.24-4.8
		c0.24-1.2,0.66-2.4,1.32-3.48c0.66-1.14,1.5-2.04,2.52-2.88c0.54-0.48,1.021-1.02,1.62-1.44s1.26-0.78,1.979-1.14
		c1.261-0.66,2.7-1.32,4.2-1.56c0.42-0.06,0.78-0.06,1.2-0.06l1.199-0.18c0.78-0.06,1.561,0.06,2.341,0.18
		c1.439,0.3,2.999,0.66,4.199,1.56c0.54,0.42,1.2,0.78,1.74,1.2s1.02,0.9,1.5,1.44c0.96,1.08,1.8,2.28,2.279,3.66
		c0.54,1.44,0.78,3,0.9,4.56s0.06,3.18,0.06,4.74c0,0.66,0.061,1.44-0.72,1.68c-0.359,0.12-0.78,0.06-1.14,0.06
		c-0.36,0-0.78,0-1.2,0.06c-1.62,0.06-3.3,0.06-4.92-0.12l-1.2-0.18c-0.239-0.06-0.539-0.12-0.72-0.36
		c-0.18-0.24-0.239-0.54-0.239-0.84c0-0.36,0.06-0.78,0.06-1.2c0.06-0.78,0.24-1.56,0.36-2.34c0.06-0.78,0-1.56-0.24-2.28
		c-0.12-0.3-0.3-0.6-0.48-0.78c-0.239-0.24-0.54-0.42-0.84-0.6c-0.6-0.36-1.26-0.72-1.92-0.84c-1.2-0.24-2.46,0.18-3.18,1.2
		c-0.42,0.54-0.54,1.26-0.72,1.92c-0.24,0.72-0.42,1.5-0.54,2.28c-0.24,1.62-0.24,3.24-0.24,4.86c0.061,1.62,0,3.3,0.061,4.92
		c0,0.84,0.06,1.68,0.119,2.52c0,0.36,0.061,0.78,0.12,1.2c0.061,0.42,0.12,0.78,0.24,1.2c0.12,0.36,0.18,0.72,0.18,1.08l0.12,1.08
		c0.24,0.66,0.601,1.26,1.141,1.62c0.6,0.42,1.319,0.6,1.979,0.66c0.78,0.12,1.56,0,2.28-0.3c0.479-0.18,0.96-0.54,1.199-1.08
		l0.301-1.02c0.119-0.36,0.18-0.78,0.18-1.14c0.06-0.36,0.06-0.72,0.06-1.14c0-0.36,0.061-0.78,0.061-1.14
		c0.06-0.36,0.06-0.72,0.18-1.02C233.037,41.447,233.277,41.207,233.518,40.967z"/>
	<path fill="#FFFFFF" d="M260.696,15.228c0.36,0.24,0.54,0.54,0.54,0.96c0.061,0.6,0,1.14,0,1.74c0,1.14-0.06,2.28-0.119,3.42
		l-0.12,3.36c0,1.14-0.061,2.28-0.061,3.48c0,2.22,0.061,4.5,0.061,6.78c0,1.14,0.06,2.28,0.12,3.36l0.18,3.419l0.18,1.68
		c0.061,0.54,0.061,1.14,0.061,1.68c0,0.479-0.061,0.9,0,1.38c0.06,0.3,0.119,0.6,0.359,0.78c0.18,0.18,0.48,0.3,0.78,0.36
		c0.54,0.12,1.08,0.18,1.62,0.18c1.08,0.12,2.22,0.06,3.3,0.06c1.14,0,2.279-0.06,3.42-0.12c1.14-0.06,2.22-0.06,3.3-0.06
		c0.6,0,1.14-0.06,1.739-0.12c0.421-0.06,0.841-0.18,1.2,0.06c0.36,0.18,0.48,0.54,0.54,0.96c0.061,0.54,0.061,1.02,0,1.56
		c-0.06,1.14-0.24,2.22-0.36,3.36c0,0.6-0.06,1.14-0.06,1.68v0.66c0,0.06,0,0.06-0.06,0.18c-0.12,0.12-0.42,0.24-0.601,0.36
		c-0.479,0.18-0.899,0.18-1.38,0.24h-1.74c-1.14-0.06-2.279-0.06-3.419-0.06c-2.28,0-4.561,0.18-6.78,0.18h-6.899
		c-1.14,0-2.28,0-3.42-0.12c-0.24,0-0.48-0.06-0.78-0.06c-0.18,0-0.42,0-0.6-0.12c-0.42-0.18-0.36-0.6-0.42-0.96v-3.42
		c-0.061-1.14-0.061-2.22-0.061-3.36c-0.06-2.28,0-4.5,0-6.78s-0.06-4.56-0.06-6.84c0-4.56,0-9.179-0.061-13.739
		c0-1.14,0-2.28-0.06-3.42c-0.06-0.54-0.12-1.08-0.12-1.68c0-0.42,0.18-0.78,0.54-1.08c0.36-0.3,0.9-0.24,1.38-0.24
		c0.54,0,1.021,0.06,1.56,0.12c1.08,0.18,2.221-0.06,3.301-0.06c0.479-0.06,1.02-0.06,1.56,0.06c0.24,0,0.479,0.12,0.78,0.12
		C260.276,15.168,260.457,15.168,260.696,15.228z"/>
	<path fill="#FFFFFF" d="M293.696,24.527v6.48c0,0.12,0.06,0.3,0.12,0.42c0.119,0.06,0.42,0.06,0.54,0.12h1.739
		c1.561,0,3.18,0,4.74-0.12c0.84-0.06,1.62-0.06,2.46-0.06c0.72,0,1.5-0.12,2.22,0c0.54,0.12,0.96,0.48,1.08,1.02
		c0.06,0.3,0,0.66,0,0.96c-0.061,0.42-0.061,0.84-0.061,1.2c0,0.78-0.18,1.56-0.18,2.34v2.28c0,0.12,0,0.24-0.06,0.36
		c0,0.06-0.061,0.12-0.12,0.18c-0.061,0.12-0.12,0.12-0.24,0.18c-0.36,0.06-0.78,0.06-1.14,0.06c-0.78,0-1.561-0.06-2.4-0.06
		c-1.56,0.06-3.12,0.12-4.739,0.24c-0.78,0.06-1.561,0-2.34-0.06c-0.601,0-1.2-0.06-1.74,0.36c-0.061,0.12-0.18,0.18-0.24,0.36
		c0,0.18,0.061,0.42,0.061,0.66v1.14l0.18,2.4l0.18,2.34c0,0.06,0,0.18,0.061,0.24c0,0.12,0.06,0.18,0.119,0.24
		c0.181,0.06,0.301,0.12,0.421,0.12h1.02c0.84,0,1.62-0.06,2.399-0.06c0.841,0,1.62,0.06,2.4,0.06c1.62,0,3.24,0,4.8-0.06h1.26
		c0.36-0.06,0.78,0,1.14-0.06c0.54-0.06,1.261-0.3,1.74-0.06c0.48,0.3,0.54,0.96,0.48,1.44c0,0.78,0,1.62-0.061,2.4
		c0,0.78,0,1.62-0.06,2.4c-0.061,0.36,0,0.78,0,1.14c0,0.3-0.12,0.66-0.181,0.96l-0.119,0.24c-0.061,0-0.181,0.06-0.24,0.12
		l-0.42,0.3c-0.12,0.06-0.12,0.06-0.24,0.06h-0.9c-0.779-0.06-1.499-0.12-2.279-0.12c-0.18-0.06-0.36-0.06-0.54-0.06
		s-0.36,0.06-0.6,0.12c-0.36,0-0.721,0-1.141-0.06c-0.359,0-0.72,0.06-1.14,0c-0.36-0.06-0.72-0.06-1.14,0
		c-0.78,0-1.561,0-2.34-0.12c-0.841-0.06-1.62-0.06-2.4-0.06c-1.62-0.06-3.24-0.06-4.859-0.06l-4.8-0.12h-1.2
		c-0.18-0.06-0.36-0.06-0.54-0.06c-0.061,0-0.18,0-0.24-0.06c-0.06,0-0.06,0-0.06-0.06c-0.061-0.06-0.061-0.12-0.12-0.12
		c-0.12-0.36-0.061-0.72-0.061-1.08c0-0.42,0-0.78,0.061-1.2c0-0.42,0.06-0.84,0-1.2c0-0.42,0-0.84-0.061-1.2
		c0-0.84-0.06-1.62-0.06-2.399v-4.86c0-0.78,0-1.56,0.06-2.4c0.061-0.36,0.061-0.72,0.061-1.14v-1.2c-0.061-1.56-0.061-3.18,0-4.74
		c0.12-3.24,0.12-6.419,0.06-9.659c-0.06-1.62-0.18-3.24-0.18-4.8c0-0.84,0.06-1.62,0.12-2.4c0.06-0.42,0.06-0.84,0.06-1.2
		c0.061-0.3,0-0.6,0.181-0.84c0.06-0.18,0.239-0.3,0.479-0.3c0.3-0.06,0.66-0.06,1.021-0.06h2.459c1.561,0,3.12-0.12,4.74-0.18
		c1.62,0,3.24,0,4.859-0.06c0.78,0,1.62,0,2.4,0.06c0.84,0,1.62,0.06,2.4,0.06h5.279c0.12,0,0.12,0,0.18,0.12l0.181,0.3
		c0.18,0.3,0.239,0.66,0.3,1.02c0.12,0.78,0.18,1.56,0.24,2.28l0.3,2.4c0.06,0.54,0.12,1.14,0.06,1.68c0,0.3-0.12,0.6-0.359,0.72
		c-0.301,0.24-0.721,0.24-1.08,0.3l-2.28,0.18l-2.399,0.18c-1.62,0.18-3.24,0.18-4.8,0.18
		C296.696,24.587,295.196,24.587,293.696,24.527z"/>
	<path fill="#FFFFFF" d="M343.976,30.047c-0.841,0.12-1.681,0.18-2.58,0.12c-0.9,0-1.86,0-2.76-0.06h-1.44
		c-0.42,0-0.899,0-1.32-0.06c-0.359-0.06-0.72-0.18-0.959-0.48c-0.181-0.3-0.24-0.72-0.24-1.08c-0.12-0.48-0.181-0.96-0.24-1.38
		s-0.06-0.9-0.18-1.32c-0.12-0.78-0.601-1.44-1.08-1.98c-0.48-0.66-1.38-0.9-2.16-1.08c-0.72-0.18-1.439-0.18-2.16,0.12
		c-0.359,0.12-0.66,0.3-0.96,0.48c-0.3,0.24-0.659,0.42-0.84,0.72c-0.24,0.3-0.359,0.66-0.479,0.96c-0.12,0.36-0.181,0.72-0.24,1.02
		c-0.18,1.5,0.42,2.82,1.5,3.84c1.26,1.08,2.819,1.86,4.319,2.52c1.681,0.72,3.36,1.26,5.04,1.98c0.78,0.3,1.561,0.72,2.28,1.14
		c0.779,0.36,1.5,0.78,2.159,1.26c1.2,0.9,2.16,2.04,2.881,3.36l0.539,1.2c0.24,0.36,0.42,0.72,0.601,1.14
		c0.18,0.36,0.3,0.72,0.359,1.14c0,0.42-0.119,0.78-0.06,1.2c0,0.24,0.06,0.42,0.06,0.66v0.66c0,0.42-0.06,0.9-0.06,1.32
		c-0.12,0.9-0.3,1.8-0.54,2.64c-0.24,0.9-0.6,1.62-1.08,2.34c-0.54,0.72-1.08,1.32-1.739,1.86c-0.48,0.42-0.961,0.78-1.5,1.14
		c-0.42,0.3-0.9,0.48-1.381,0.72c-1.56,0.6-3.18,1.14-4.799,1.5c-1.74,0.42-3.601,0.72-5.4,0.72c-0.96-0.06-1.859-0.18-2.76-0.36
		c-0.84-0.18-1.74-0.36-2.58-0.6c-0.779-0.24-1.5-0.54-2.22-0.9c-0.72-0.36-1.44-0.78-2.04-1.32l-0.84-0.9
		c-0.3-0.3-0.6-0.6-0.78-0.96l-0.359-0.54l-0.181-0.18c-0.06-0.12-0.06-0.24-0.06-0.3l-0.36-1.02c-0.3-0.72-0.66-1.38-0.72-2.1
		c-0.06-0.24,0-0.42,0-0.6l-0.18-0.72c-0.061-0.42-0.12-0.9-0.12-1.32c-0.061-0.479-0.061-0.96-0.061-1.38
		c0.061-0.48,0.12-0.96,0.12-1.38c0.061-0.66-0.18-1.56,0.54-1.86c0.36-0.18,0.78-0.18,1.2-0.24c0.42-0.06,0.9-0.06,1.32-0.06
		c0.96-0.06,1.92-0.12,2.819-0.12c0.48-0.06,0.9-0.06,1.38-0.06c0.48,0,0.96,0.06,1.44,0.12c0.18,0.06,0.359,0.06,0.479,0.18
		c0.181,0.06,0.24,0.24,0.3,0.36c0.061,0.24,0,0.48,0,0.66v2.1c-0.06,0.48,0,0.9,0.12,1.32c0.24,0.78,0.66,1.5,1.2,2.1
		c0.24,0.3,0.48,0.6,0.78,0.84c0.359,0.24,0.779,0.42,1.14,0.54c0.84,0.24,1.68,0.36,2.52,0.18c1.44-0.18,3.12-0.84,3.36-2.4
		c0.24-1.56-0.3-3.24-1.5-4.26c-0.6-0.54-1.38-0.96-2.16-1.32c-0.779-0.42-1.56-0.84-2.399-1.2c-1.62-0.84-3.3-1.56-4.86-2.46
		c-0.779-0.42-1.5-0.96-2.22-1.44c-0.72-0.42-1.439-0.78-2.1-1.32c-0.601-0.42-1.08-0.96-1.5-1.56c-0.48-0.66-0.78-1.32-1.08-2.04
		c-0.18-0.36-0.36-0.72-0.48-1.08c-0.119-0.48-0.119-0.96-0.239-1.38c-0.12-0.9-0.24-1.8-0.24-2.7c0.06-1.74,0.54-3.48,1.32-5.04
		c0.359-0.72,0.84-1.44,1.319-2.1c0.48-0.6,1.021-1.26,1.561-1.8c1.02-1.08,2.279-1.86,3.659-2.399c0.78-0.24,1.62-0.42,2.4-0.54
		c0.899-0.18,1.8-0.3,2.76-0.36c0.899,0,1.8,0,2.7,0.06c0.96,0.06,1.859,0.12,2.76,0.24c0.899,0.18,1.8,0.36,2.64,0.6
		c0.78,0.24,1.56,0.6,2.22,1.14l1.021,0.78l0.899,0.66c0.54,0.54,0.96,1.2,1.26,1.86c0.42,0.84,0.9,1.62,1.2,2.52
		c0.24,0.9,0.42,1.8,0.54,2.7c0.12,0.84,0.18,1.74,0.12,2.58l-0.18,1.32c0,0.24-0.061,0.42-0.12,0.6L343.976,30.047z"/>
</g>
<g>
	<path fill="#FEF290" d="M368.447,28.83l-2.223-2.166l3.445-0.5l1.541-3.122l1.011,2.048l8.865-8.79v-0.184
		c-0.012-1.118-1.018-2.115-2.134-2.115h-3.782c-0.11,2.216-1.929,3.985-4.173,3.988c-2.246,0-4.064-1.771-4.174-3.987l-3.781,0
		c-0.554,0-1.073,0.219-1.462,0.611c-0.391,0.392-0.607,0.916-0.6,1.467l0.16,19.994L368.447,28.83z"/>
	<path fill="#FEF290" d="M398.864,32.978l-3.258-3.258c-2.006,1.813-5.096,1.772-7.032-0.158c-1.933-1.936-1.977-5.027-0.162-7.03
		l-3.255-3.256c-0.478-0.476-1.111-0.735-1.787-0.732c-0.675,0.001-1.311,0.267-1.78,0.748L358.586,42.66
		c-0.476,0.483-0.736,1.126-0.736,1.822c0,0.697,0.266,1.349,0.751,1.835l3.258,3.257c2.008-1.818,5.096-1.773,7.032,0.158
		c1.933,1.935,1.974,5.026,0.159,7.029l3.257,3.256c0.477,0.479,1.109,0.737,1.786,0.734c0.674-0.003,1.307-0.27,1.78-0.752
		l23.006-23.363C399.833,35.663,399.825,33.938,398.864,32.978z M381.337,41.458l-2.449,3.463l-1.261-4.05l-4.049-1.26l3.462-2.45
		l-0.053-4.239l3.4,2.535l4.018-1.36l-1.362,4.016l2.536,3.398L381.337,41.458z"/>
</g>
</svg>
