<?xml version="1.0" encoding="utf-8"?>
<!-- Generator: Adobe Illustrator 16.0.0, SVG Export Plug-In . SVG Version: 6.00 Build 0)  -->
<!DOCTYPE svg PUBLIC "-//W3C//DTD SVG 1.1//EN" "http://www.w3.org/Graphics/SVG/1.1/DTD/svg11.dtd">
<svg version="1.1" id="Calque_1" xmlns="http://www.w3.org/2000/svg" xmlns:xlink="http://www.w3.org/1999/xlink" x="0px" y="0px"
	 width="300px" height="450px" viewBox="0 0 300 450" enable-background="new 0 0 300 450" xml:space="preserve">
<rect fill="#664572" width="300" height="450"/>
<rect x="36.667" y="128.333" opacity="0.75" fill="none" width="230" height="111"/>
<g enable-background="new    ">
	<path fill="#FFFFFF" d="M116.074,146.793l-5.616-17.524h4.342l2.132,7.41c0.598,2.08,1.145,4.082,1.561,6.267h0.078
		c0.442-2.106,0.988-4.187,1.586-6.188l2.236-7.488h4.212l-5.902,17.524H116.074z"/>
	<path fill="#FFFFFF" d="M132.454,129.269v17.524h-3.978v-17.524H132.454z"/>
	<path fill="#FFFFFF" d="M136.016,142.711c1.066,0.546,2.704,1.092,4.394,1.092c1.82,0,2.782-0.754,2.782-1.898
		c0-1.092-0.832-1.716-2.938-2.47c-2.912-1.014-4.81-2.626-4.81-5.174c0-2.99,2.496-5.278,6.63-5.278
		c1.976,0,3.432,0.416,4.472,0.884l-0.884,3.198c-0.702-0.338-1.95-0.832-3.666-0.832c-1.716,0-2.548,0.78-2.548,1.69
		c0,1.118,0.988,1.611,3.25,2.47c3.094,1.145,4.55,2.756,4.55,5.227c0,2.938-2.262,5.434-7.072,5.434
		c-2.002,0-3.978-0.52-4.966-1.065L136.016,142.711z"/>
	<path fill="#FFFFFF" d="M153.877,129.269v10.088c0,3.017,1.145,4.551,3.173,4.551c2.08,0,3.224-1.456,3.224-4.551v-10.088h3.953
		v9.828c0,5.408-2.73,7.982-7.307,7.982c-4.42,0-7.021-2.444-7.021-8.034v-9.776H153.877z"/>
	<path fill="#FFFFFF" d="M178.084,139.383h-6.449v4.16h7.203v3.25h-11.182v-17.524h10.816v3.25h-6.838v3.64h6.449V139.383z"/>
	<path fill="#FFFFFF" d="M181.541,129.269h3.979v14.196h6.969v3.328h-10.947V129.269z"/>
</g>
<g enable-background="new    ">
	<path fill="#FFFFFF" d="M52.739,177.993v-17.524h4.628l3.64,6.422c1.04,1.847,2.08,4.03,2.86,6.007h0.078
		c-0.26-2.314-0.338-4.681-0.338-7.307v-5.122h3.64v17.524h-4.16l-3.744-6.76c-1.04-1.873-2.184-4.135-3.042-6.188l-0.078,0.025
		c0.104,2.314,0.156,4.784,0.156,7.645v5.278H52.739z"/>
	<path fill="#FFFFFF" d="M86.721,169.049c0,5.746-3.484,9.23-8.606,9.23c-5.2,0-8.242-3.927-8.242-8.919
		c0-5.252,3.354-9.178,8.528-9.178C83.783,160.183,86.721,164.213,86.721,169.049z M74.059,169.283c0,3.432,1.612,5.85,4.264,5.85
		c2.678,0,4.212-2.548,4.212-5.954c0-3.146-1.508-5.85-4.238-5.85C75.619,163.329,74.059,165.877,74.059,169.283z"/>
	<path fill="#FFFFFF" d="M89.321,177.993v-17.524h4.628l3.64,6.422c1.04,1.847,2.08,4.03,2.86,6.007h0.078
		c-0.26-2.314-0.338-4.681-0.338-7.307v-5.122h3.64v17.524h-4.16l-3.744-6.76c-1.04-1.873-2.184-4.135-3.042-6.188l-0.078,0.025
		c0.104,2.314,0.156,4.784,0.156,7.645v5.278H89.321z"/>
	<path fill="#FFFFFF" d="M112.512,160.702c1.456-0.233,3.354-0.363,5.356-0.363c3.328,0,5.486,0.598,7.176,1.872
		c1.82,1.352,2.964,3.51,2.964,6.604c0,3.354-1.222,5.669-2.912,7.099c-1.846,1.534-4.654,2.262-8.086,2.262
		c-2.054,0-3.51-0.13-4.498-0.26V160.702z M116.49,175.003c0.338,0.078,0.884,0.078,1.378,0.078c3.588,0.026,5.928-1.95,5.928-6.137
		c0.026-3.64-2.106-5.563-5.512-5.563c-0.884,0-1.456,0.078-1.794,0.155V175.003z"/>
	<path fill="#FFFFFF" d="M134.586,160.469v17.524h-3.979v-17.524H134.586z"/>
	<path fill="#FFFFFF" d="M138.148,173.911c1.066,0.546,2.704,1.092,4.394,1.092c1.82,0,2.782-0.754,2.782-1.898
		c0-1.092-0.832-1.716-2.938-2.47c-2.912-1.014-4.811-2.626-4.811-5.174c0-2.99,2.496-5.278,6.63-5.278
		c1.976,0,3.432,0.416,4.472,0.884l-0.884,3.198c-0.702-0.338-1.95-0.832-3.667-0.832c-1.716,0-2.548,0.78-2.548,1.69
		c0,1.118,0.988,1.611,3.25,2.47c3.094,1.145,4.55,2.756,4.55,5.227c0,2.938-2.262,5.434-7.072,5.434
		c-2.002,0-3.979-0.52-4.966-1.065L138.148,173.911z"/>
	<path fill="#FFFFFF" d="M152.057,160.702c1.223-0.208,2.939-0.363,5.357-0.363c2.443,0,4.186,0.468,5.355,1.403
		c1.118,0.885,1.873,2.341,1.873,4.057s-0.572,3.172-1.613,4.16c-1.352,1.274-3.354,1.846-5.693,1.846
		c-0.521,0-0.988-0.025-1.353-0.078v6.267h-3.927V160.702z M155.983,168.659c0.339,0.078,0.755,0.104,1.326,0.104
		c2.106,0,3.406-1.066,3.406-2.86c0-1.611-1.118-2.573-3.095-2.573c-0.806,0-1.352,0.077-1.638,0.155V168.659z"/>
	<path fill="#FFFFFF" d="M183.206,169.049c0,5.746-3.484,9.23-8.606,9.23c-5.2,0-8.242-3.927-8.242-8.919
		c0-5.252,3.354-9.178,8.528-9.178C180.268,160.183,183.206,164.213,183.206,169.049z M170.543,169.283
		c0,3.432,1.613,5.85,4.265,5.85c2.679,0,4.212-2.548,4.212-5.954c0-3.146-1.508-5.85-4.238-5.85
		C172.104,163.329,170.543,165.877,170.543,169.283z"/>
	<path fill="#FFFFFF" d="M185.805,177.993v-17.524h4.629l3.641,6.422c1.039,1.847,2.08,4.03,2.859,6.007h0.078
		c-0.26-2.314-0.338-4.681-0.338-7.307v-5.122h3.641v17.524h-4.16l-3.744-6.76c-1.041-1.873-2.185-4.135-3.043-6.188l-0.078,0.025
		c0.104,2.314,0.156,4.784,0.156,7.645v5.278H185.805z"/>
	<path fill="#FFFFFF" d="M207.723,160.469v17.524h-3.979v-17.524H207.723z"/>
	<path fill="#FFFFFF" d="M211.154,160.702c1.041-0.208,3.146-0.363,5.123-0.363c2.418,0,3.9,0.233,5.174,0.987
		c1.223,0.65,2.105,1.847,2.105,3.433c0,1.56-0.908,3.016-2.885,3.744v0.052c2.002,0.546,3.484,2.054,3.484,4.316
		c0,1.586-0.729,2.834-1.82,3.718c-1.275,1.015-3.406,1.586-6.891,1.586c-1.949,0-3.406-0.13-4.291-0.26V160.702z M215.082,167.411
		h1.299c2.08,0,3.199-0.858,3.199-2.158c0-1.326-1.016-2.028-2.809-2.028c-0.857,0-1.352,0.052-1.689,0.104V167.411z
		 M215.082,175.185c0.389,0.053,0.857,0.053,1.533,0.053c1.795,0,3.381-0.676,3.381-2.522c0-1.768-1.586-2.47-3.563-2.47h-1.352
		V175.185z"/>
	<path fill="#FFFFFF" d="M226.857,160.469h3.979v14.196h6.969v3.328h-10.947V160.469z"/>
	<path fill="#FFFFFF" d="M250.57,170.583h-6.447v4.16h7.201v3.25h-11.18v-17.524h10.816v3.25h-6.838v3.64h6.447V170.583z"/>
</g>
<circle opacity="0.75" fill="#FFFFFF" cx="128.847" cy="226.135" r="8.333"/>
<circle opacity="0.75" fill="#FFFFFF" cx="176.514" cy="226.135" r="8.333"/>
<path opacity="0.75" fill="none" stroke="#FFFFFF" stroke-width="5" stroke-linecap="round" stroke-miterlimit="10" d="
	M114.831,274.561c14.045-25.752,68.181-23.701,77.836,0.347"/>
</svg>
